<svg id="svg" version="1.1" xmlns="http://www.w3.org/2000/svg" xmlns:xlink="http://www.w3.org/1999/xlink" width="400" height="400" viewBox="0, 0, 400,400"><g id="svgg"><path id="path0" d="M56.400 75.454 C 26.623 81.148,14.972 116.010,35.390 138.316 C 43.179 146.825,57.146 151.610,68.176 149.547 C 101.403 143.332,111.359 102.705,84.651 82.314 C 77.784 77.071,64.637 73.879,56.400 75.454 M194.623 300.347 C 193.975 300.486,196.395 300.600,200.000 300.600 C 203.605 300.600,206.025 300.486,205.377 300.347 C 204.730 300.208,202.310 300.095,200.000 300.095 C 197.690 300.095,195.270 300.208,194.623 300.347 M190.600 301.200 L 189.800 301.544 190.600 301.532 C 191.040 301.526,191.850 301.376,192.400 301.200 L 193.400 300.880 192.400 300.868 C 191.850 300.862,191.040 301.011,190.600 301.200 M207.600 301.200 C 208.150 301.376,208.960 301.526,209.400 301.532 L 210.200 301.544 209.400 301.200 C 208.960 301.011,208.150 300.862,207.600 300.868 L 206.600 300.880 207.600 301.200 M188.000 302.000 C 187.467 302.345,187.467 302.388,188.000 302.388 C 188.330 302.388,188.870 302.213,189.200 302.000 C 189.733 301.655,189.733 301.612,189.200 301.612 C 188.870 301.612,188.330 301.787,188.000 302.000 M210.800 302.000 C 211.130 302.213,211.670 302.388,212.000 302.388 C 212.533 302.388,212.533 302.345,212.000 302.000 C 211.670 301.787,211.130 301.612,210.800 301.612 C 210.267 301.612,210.267 301.655,210.800 302.000 M182.868 304.202 C 177.463 307.104,172.434 311.381,169.937 315.200 L 168.761 317.000 169.880 315.631 C 174.113 310.457,178.281 307.006,183.511 304.343 C 185.610 303.275,187.074 302.403,186.764 302.407 C 186.454 302.410,184.700 303.218,182.868 304.202 M215.400 303.803 C 234.932 313.391,242.611 335.433,233.016 354.369 C 232.427 355.530,232.115 356.376,232.322 356.248 C 232.901 355.891,234.691 352.044,235.614 349.175 C 237.991 341.786,238.119 335.324,236.051 327.200 C 234.131 319.661,227.510 310.593,220.800 306.312 C 218.041 304.552,213.787 302.395,213.111 302.414 C 212.830 302.422,213.860 303.047,215.400 303.803 M167.430 318.913 C 161.356 329.277,160.899 342.929,166.258 353.883 C 166.832 355.056,167.471 356.120,167.678 356.248 C 167.885 356.376,167.591 355.566,167.025 354.449 C 161.466 343.479,161.646 329.384,167.468 319.715 C 168.208 318.486,168.736 317.403,168.642 317.309 C 168.548 317.214,168.002 317.936,167.430 318.913 M168.000 356.996 C 168.000 357.698,173.980 364.953,174.297 364.636 C 174.392 364.542,173.887 363.865,173.176 363.132 C 172.465 362.400,171.082 360.720,170.104 359.400 C 168.022 356.592,168.000 356.567,168.000 356.996 M230.279 358.900 C 229.479 360.055,228.085 361.781,227.180 362.735 C 226.276 363.689,225.623 364.557,225.730 364.663 C 225.836 364.770,226.816 363.784,227.908 362.473 C 230.917 358.857,232.131 357.198,231.922 356.989 C 231.818 356.885,231.079 357.745,230.279 358.900 M174.822 365.025 C 174.974 367.580,188.025 373.781,195.000 374.614 C 198.275 375.005,197.586 374.482,194.158 373.975 C 189.594 373.300,188.802 373.128,188.573 372.756 C 188.452 372.560,188.082 372.400,187.751 372.400 C 186.168 372.400,178.410 367.993,175.900 365.669 C 175.295 365.109,174.810 364.819,174.822 365.025 M224.369 365.438 C 222.957 367.139,213.901 372.400,212.385 372.400 C 212.167 372.400,211.677 372.569,211.295 372.776 C 210.913 372.983,210.084 373.261,209.453 373.395 C 208.822 373.529,208.407 373.740,208.530 373.864 C 209.344 374.677,219.513 369.927,222.914 367.145 C 224.061 366.206,225.075 365.385,225.167 365.319 C 225.258 365.254,225.239 365.106,225.124 364.990 C 225.008 364.875,224.669 365.076,224.369 365.438 M203.600 374.400 L 202.600 374.720 203.600 374.730 C 204.150 374.736,205.410 374.597,206.400 374.420 L 208.200 374.100 206.400 374.090 C 205.410 374.084,204.150 374.224,203.600 374.400 M199.300 375.076 C 199.685 375.176,200.315 375.176,200.700 375.076 C 201.085 374.975,200.770 374.893,200.000 374.893 C 199.230 374.893,198.915 374.975,199.300 375.076 " stroke="none" fill="#739be8" fill-rule="evenodd"></path><path id="path1" d="M195.000 144.217 C 180.528 146.355,168.201 156.589,164.429 169.600 C 164.142 170.590,163.757 171.850,163.572 172.400 C 160.870 180.470,163.219 193.620,168.874 202.075 C 172.989 208.226,183.492 216.400,187.281 216.400 C 187.588 216.400,188.011 216.551,188.220 216.736 C 188.580 217.053,190.282 217.462,195.120 218.392 C 197.832 218.914,202.168 218.914,204.880 218.392 C 209.718 217.462,211.420 217.053,211.780 216.736 C 211.989 216.551,212.439 216.398,212.780 216.395 C 214.672 216.379,221.927 211.937,225.573 208.561 C 235.165 199.681,240.006 183.533,236.415 172.400 C 236.238 171.850,235.859 170.590,235.574 169.600 C 235.289 168.610,234.938 167.620,234.795 167.400 C 234.651 167.180,234.284 166.370,233.977 165.600 C 229.606 154.608,216.882 145.474,203.932 144.031 C 199.439 143.530,199.680 143.525,195.000 144.217 M333.600 162.624 C 334.858 162.899,343.751 163.034,342.800 162.764 C 342.250 162.608,339.820 162.483,337.400 162.486 C 334.980 162.490,333.270 162.552,333.600 162.624 M328.200 163.600 C 327.181 164.038,328.232 164.038,329.600 163.600 C 330.404 163.343,330.443 163.277,329.800 163.268 C 329.360 163.262,328.640 163.411,328.200 163.600 M344.833 163.344 C 344.925 163.423,345.540 163.608,346.200 163.756 C 347.076 163.952,347.238 163.915,346.800 163.618 C 346.260 163.253,344.432 162.998,344.833 163.344 M322.400 165.600 C 321.630 166.022,321.180 166.366,321.400 166.366 C 321.620 166.366,322.430 166.022,323.200 165.600 C 323.970 165.178,324.420 164.834,324.200 164.834 C 323.980 164.834,323.170 165.178,322.400 165.600 M354.033 166.529 C 354.693 167.039,358.000 168.794,358.000 168.634 C 358.000 168.376,354.636 166.400,354.198 166.400 C 354.016 166.400,353.942 166.458,354.033 166.529 M316.293 169.014 C 315.472 169.572,314.800 170.115,314.800 170.220 C 314.800 170.325,315.520 169.935,316.400 169.353 C 317.797 168.428,318.270 168.000,317.893 168.000 C 317.834 168.000,317.114 168.456,316.293 169.014 M358.400 168.925 C 358.400 169.024,359.061 169.609,359.868 170.225 C 360.676 170.841,361.211 171.141,361.056 170.891 C 360.740 170.379,358.400 168.647,358.400 168.925 M312.975 171.700 L 311.800 173.000 313.100 171.825 C 313.815 171.179,314.400 170.594,314.400 170.525 C 314.400 170.216,314.070 170.488,312.975 171.700 M361.641 171.500 C 361.663 171.665,362.608 172.603,363.741 173.585 L 365.800 175.371 363.815 173.285 C 361.786 171.154,361.570 170.976,361.641 171.500 M309.138 175.500 C 307.479 177.248,304.480 181.600,304.935 181.600 C 305.035 181.600,305.719 180.655,306.455 179.500 C 307.191 178.345,308.492 176.635,309.347 175.700 C 311.266 173.602,311.096 173.438,309.138 175.500 M367.140 177.516 C 367.633 178.209,368.244 178.904,368.497 179.060 C 368.750 179.217,368.554 178.777,368.060 178.084 C 367.567 177.391,366.956 176.696,366.703 176.540 C 366.450 176.383,366.646 176.823,367.140 177.516 M369.400 180.800 C 369.741 181.460,370.111 182.000,370.221 182.000 C 370.331 182.000,370.141 181.460,369.800 180.800 C 369.459 180.140,369.089 179.600,368.979 179.600 C 368.869 179.600,369.059 180.140,369.400 180.800 M371.913 185.819 C 372.284 186.820,372.639 187.482,372.703 187.291 C 372.831 186.906,371.693 184.000,371.414 184.000 C 371.317 184.000,371.542 184.819,371.913 185.819 M373.206 189.433 C 373.209 189.855,373.395 190.470,373.618 190.800 C 373.915 191.238,373.952 191.076,373.756 190.200 C 373.427 188.729,373.198 188.410,373.206 189.433 M374.093 192.800 C 374.093 193.570,374.175 193.885,374.276 193.500 C 374.376 193.115,374.376 192.485,374.276 192.100 C 374.175 191.715,374.093 192.030,374.093 192.800 M300.272 194.604 C 300.127 195.482,300.029 196.740,300.053 197.400 C 300.078 198.060,300.255 197.520,300.448 196.200 C 300.840 193.515,300.685 192.107,300.272 194.604 M374.934 200.000 C 374.934 201.650,375.005 202.325,375.091 201.500 C 375.178 200.675,375.178 199.325,375.091 198.500 C 375.005 197.675,374.934 198.350,374.934 200.000 M300.047 203.033 C 300.073 203.895,300.239 205.140,300.415 205.800 C 300.618 206.556,300.654 206.038,300.515 204.400 C 300.267 201.486,299.975 200.631,300.047 203.033 M374.093 207.200 C 374.093 207.970,374.175 208.285,374.276 207.900 C 374.376 207.515,374.376 206.885,374.276 206.500 C 374.175 206.115,374.093 206.430,374.093 207.200 M373.449 209.415 C 373.312 209.773,373.215 210.366,373.234 210.733 C 373.253 211.100,373.427 210.869,373.621 210.220 C 373.998 208.958,373.865 208.333,373.449 209.415 M371.913 214.181 C 371.542 215.181,371.317 216.000,371.414 216.000 C 371.693 216.000,372.831 213.094,372.703 212.709 C 372.639 212.518,372.284 213.180,371.913 214.181 M369.400 219.200 C 369.059 219.860,368.869 220.400,368.979 220.400 C 369.089 220.400,369.459 219.860,369.800 219.200 C 370.141 218.540,370.331 218.000,370.221 218.000 C 370.111 218.000,369.741 218.540,369.400 219.200 M305.467 219.606 C 305.859 220.270,306.598 221.305,307.110 221.906 C 307.621 222.508,307.375 221.965,306.563 220.700 C 305.024 218.303,304.228 217.507,305.467 219.606 M367.944 221.500 C 366.793 222.889,366.306 223.600,366.504 223.600 C 366.614 223.600,367.186 222.970,367.773 222.200 C 368.863 220.771,368.995 220.232,367.944 221.500 M309.200 224.600 C 309.946 225.370,310.647 226.000,310.757 226.000 C 310.867 226.000,310.346 225.370,309.600 224.600 C 308.854 223.830,308.153 223.200,308.043 223.200 C 307.933 223.200,308.454 223.830,309.200 224.600 M363.477 226.653 C 362.419 227.662,361.620 228.554,361.701 228.634 C 361.782 228.715,362.731 227.886,363.809 226.791 C 366.268 224.295,366.046 224.203,363.477 226.653 M312.000 227.325 C 312.000 227.394,312.585 227.979,313.300 228.625 L 314.600 229.800 313.425 228.500 C 312.330 227.288,312.000 227.016,312.000 227.325 M359.585 230.032 L 358.200 231.263 359.488 230.413 C 360.630 229.659,361.493 228.800,361.108 228.800 C 361.032 228.800,360.347 229.354,359.585 230.032 M315.069 230.032 C 315.566 230.633,318.000 232.164,318.000 231.876 C 318.000 231.783,317.235 231.202,316.300 230.585 C 315.365 229.968,314.811 229.720,315.069 230.032 M356.700 231.829 C 356.095 232.157,355.600 232.510,355.600 232.613 C 355.600 232.999,356.232 232.757,357.200 232.000 C 358.389 231.070,358.211 231.009,356.700 231.829 M322.400 234.400 C 323.170 234.822,323.980 235.166,324.200 235.166 C 324.420 235.166,323.970 234.822,323.200 234.400 C 322.430 233.978,321.620 233.634,321.400 233.634 C 321.180 233.634,321.630 233.978,322.400 234.400 M328.200 236.400 C 328.640 236.589,329.360 236.738,329.800 236.732 C 330.443 236.723,330.404 236.657,329.600 236.400 C 328.232 235.962,327.181 235.962,328.200 236.400 M345.600 236.400 C 344.776 236.664,344.741 236.726,345.400 236.754 C 345.840 236.773,346.470 236.613,346.800 236.400 C 347.501 235.947,347.014 235.947,345.600 236.400 M332.476 237.260 C 332.984 237.403,335.290 237.520,337.600 237.520 C 339.910 237.520,342.216 237.403,342.724 237.260 C 343.232 237.117,340.926 237.000,337.600 237.000 C 334.274 237.000,331.968 237.117,332.476 237.260 M56.000 238.000 C 54.643 238.286,54.637 238.295,55.800 238.307 C 56.460 238.315,57.450 238.176,58.000 238.000 C 59.312 237.580,57.996 237.580,56.000 238.000 M67.000 238.000 C 67.660 238.168,68.650 238.305,69.200 238.305 C 70.092 238.305,70.070 238.272,69.000 238.000 C 68.340 237.832,67.350 237.695,66.800 237.695 C 65.908 237.695,65.930 237.728,67.000 238.000 M52.400 238.800 C 51.576 239.064,51.541 239.126,52.200 239.154 C 52.640 239.173,53.270 239.013,53.600 238.800 C 54.301 238.347,53.814 238.347,52.400 238.800 M44.100 242.226 C 41.771 243.622,41.942 243.896,44.300 242.546 C 46.572 241.245,46.635 241.199,46.167 241.204 C 45.965 241.206,45.035 241.666,44.100 242.226 M81.200 242.508 C 81.672 243.019,86.427 246.400,86.673 246.400 C 87.006 246.400,82.908 243.301,81.800 242.715 C 81.360 242.482,81.090 242.389,81.200 242.508 M38.491 246.300 L 36.526 248.200 38.363 246.638 C 40.938 244.449,40.989 244.400,40.708 244.400 C 40.569 244.400,39.572 245.255,38.491 246.300 M88.783 248.500 C 89.764 249.545,90.619 250.400,90.683 250.400 C 90.984 250.400,90.666 250.041,88.900 248.383 L 87.000 246.600 88.783 248.500 M33.955 250.700 C 32.681 252.108,31.856 253.200,32.066 253.200 C 32.157 253.200,32.908 252.390,33.735 251.400 C 35.387 249.424,35.535 248.953,33.955 250.700 M91.211 251.046 C 91.217 251.241,91.712 251.947,92.311 252.616 C 93.517 253.962,93.411 253.619,92.072 251.846 C 91.592 251.211,91.205 250.851,91.211 251.046 M28.980 258.040 C 28.411 259.162,28.013 260.147,28.095 260.229 C 28.177 260.311,28.727 259.393,29.318 258.189 C 29.908 256.985,30.306 256.000,30.202 256.000 C 30.098 256.000,29.548 256.918,28.980 258.040 M26.649 263.415 C 26.512 263.773,26.415 264.366,26.434 264.733 C 26.453 265.100,26.627 264.869,26.821 264.220 C 27.198 262.958,27.065 262.333,26.649 263.415 M98.456 265.200 C 98.456 265.530,98.611 266.160,98.800 266.600 C 99.017 267.104,99.144 267.178,99.144 266.800 C 99.144 266.470,98.989 265.840,98.800 265.400 C 98.583 264.896,98.456 264.822,98.456 265.200 M99.469 270.600 C 99.596 271.920,99.768 273.075,99.850 273.167 C 100.141 273.490,99.916 270.186,99.579 269.200 C 99.358 268.552,99.320 269.045,99.469 270.600 M24.937 275.000 C 24.939 276.760,25.009 277.430,25.093 276.489 C 25.178 275.549,25.177 274.109,25.091 273.289 C 25.005 272.470,24.936 273.240,24.937 275.000 M99.470 278.957 C 99.311 280.253,99.261 281.394,99.360 281.493 C 99.626 281.759,100.103 278.218,99.919 277.347 C 99.832 276.936,99.630 277.660,99.470 278.957 M98.629 283.829 C 98.481 284.415,98.438 284.972,98.532 285.066 C 98.627 285.160,98.824 284.758,98.971 284.171 C 99.119 283.585,99.162 283.028,99.068 282.934 C 98.973 282.840,98.776 283.242,98.629 283.829 M26.418 285.254 C 26.408 285.614,26.663 286.514,26.984 287.254 C 27.740 288.994,27.758 288.273,27.012 286.200 C 26.695 285.320,26.427 284.894,26.418 285.254 M28.000 289.747 C 28.000 290.180,29.988 294.000,30.213 294.000 C 30.323 294.000,29.939 293.055,29.359 291.900 C 28.243 289.679,28.000 289.294,28.000 289.747 M92.207 297.426 C 91.609 298.211,91.182 298.916,91.260 298.993 C 91.337 299.070,91.907 298.428,92.526 297.567 C 93.934 295.608,93.679 295.496,92.207 297.426 M32.730 297.900 C 33.161 298.505,33.928 299.360,34.434 299.800 C 34.940 300.240,34.651 299.745,33.792 298.700 C 32.073 296.608,31.503 296.179,32.730 297.900 M88.800 301.400 C 87.828 302.390,87.123 303.200,87.233 303.200 C 87.343 303.200,88.228 302.390,89.200 301.400 C 90.172 300.410,90.877 299.600,90.767 299.600 C 90.657 299.600,89.772 300.410,88.800 301.400 M37.400 302.748 C 38.060 303.477,39.140 304.446,39.800 304.901 C 41.218 305.880,40.898 305.534,38.200 303.174 C 36.722 301.881,36.513 301.770,37.400 302.748 M83.856 305.429 C 82.567 306.403,81.667 307.195,81.856 307.189 C 82.045 307.183,83.266 306.373,84.570 305.389 C 85.873 304.405,86.773 303.613,86.570 303.629 C 86.366 303.645,85.145 304.455,83.856 305.429 M42.400 306.583 C 42.400 306.857,46.012 308.921,46.186 308.747 C 46.268 308.665,45.450 308.103,44.368 307.499 C 43.286 306.895,42.400 306.483,42.400 306.583 M51.633 310.944 C 51.725 311.023,52.340 311.208,53.000 311.356 C 53.876 311.552,54.038 311.515,53.600 311.218 C 53.060 310.853,51.232 310.598,51.633 310.944 M54.833 311.749 C 54.925 311.831,55.900 312.001,57.000 312.128 C 58.349 312.284,58.674 312.249,58.000 312.020 C 57.001 311.680,54.518 311.468,54.833 311.749 M66.800 312.020 C 66.126 312.249,66.451 312.284,67.800 312.128 C 68.900 312.001,69.875 311.831,69.967 311.749 C 70.282 311.468,67.799 311.680,66.800 312.020 " stroke="none" fill="#db545c" fill-rule="evenodd"></path><path id="path2" d="M329.800 163.563 C 303.512 169.760,291.813 198.903,306.768 220.935 C 319.885 240.260,347.223 242.786,363.804 226.204 C 384.046 205.963,374.961 171.977,347.173 163.989 C 342.834 162.741,334.183 162.529,329.800 163.563 M57.000 238.084 C 26.104 243.866,14.503 280.118,36.632 301.730 C 44.624 309.536,57.663 313.895,67.269 311.974 C 68.441 311.740,70.390 311.351,71.600 311.110 C 72.810 310.868,73.971 310.520,74.180 310.336 C 74.389 310.151,74.799 310.000,75.091 310.000 C 76.110 310.000,81.510 307.202,84.046 305.360 C 104.791 290.295,105.101 260.468,84.672 245.155 C 81.717 242.940,76.253 240.000,75.091 240.000 C 74.799 240.000,74.389 239.849,74.180 239.664 C 73.820 239.347,72.118 238.938,67.280 238.008 C 64.765 237.524,59.797 237.561,57.000 238.084 " stroke="none" fill="#f3da43" fill-rule="evenodd"></path><path id="path3" d="M191.000 12.400 C 190.864 12.620,189.953 12.800,188.976 12.800 C 187.999 12.800,187.200 12.980,187.200 13.200 C 187.200 13.420,186.581 13.600,185.824 13.600 C 185.067 13.600,184.336 13.780,184.200 14.000 C 184.064 14.220,183.524 14.400,183.000 14.400 C 182.476 14.400,181.936 14.580,181.800 14.800 C 181.664 15.020,181.203 15.200,180.776 15.200 C 180.349 15.200,180.000 15.380,180.000 15.600 C 180.000 15.820,179.640 16.000,179.200 16.000 C 178.760 16.000,178.400 16.180,178.400 16.400 C 178.400 16.620,178.040 16.800,177.600 16.800 C 177.160 16.800,176.800 16.946,176.800 17.125 C 176.800 17.304,176.170 17.698,175.400 18.000 C 174.630 18.302,174.000 18.696,174.000 18.875 C 174.000 19.054,173.680 19.200,173.288 19.200 C 172.897 19.200,172.317 19.560,172.000 20.000 C 171.683 20.440,171.220 20.800,170.971 20.800 C 170.722 20.800,169.997 21.297,169.359 21.904 C 168.722 22.512,167.570 23.443,166.800 23.973 C 164.582 25.501,160.186 30.242,158.951 32.440 C 158.538 33.175,157.885 34.130,157.500 34.563 C 157.115 34.997,156.800 35.587,156.800 35.875 C 156.800 36.164,156.620 36.400,156.400 36.400 C 156.180 36.400,156.000 36.760,156.000 37.200 C 156.000 37.640,155.820 38.000,155.600 38.000 C 155.380 38.000,155.200 38.360,155.200 38.800 C 155.200 39.240,155.020 39.600,154.800 39.600 C 154.580 39.600,154.400 39.960,154.400 40.400 C 154.400 40.840,154.265 41.201,154.100 41.203 C 153.741 41.207,152.800 43.144,152.800 43.880 C 152.800 44.166,152.620 44.400,152.400 44.400 C 152.180 44.400,152.000 44.839,152.000 45.376 C 152.000 45.913,151.820 46.464,151.600 46.600 C 151.380 46.736,151.200 47.467,151.200 48.224 C 151.200 48.981,151.020 49.600,150.800 49.600 C 150.580 49.600,150.400 50.399,150.400 51.376 C 150.400 52.353,150.220 53.264,150.000 53.400 C 149.753 53.553,149.600 57.071,149.600 62.624 C 149.600 68.341,149.745 71.600,150.000 71.600 C 150.220 71.600,150.400 71.960,150.400 72.400 C 150.400 72.933,150.133 73.200,149.600 73.200 C 149.160 73.200,148.800 73.380,148.800 73.600 C 148.800 73.820,148.260 74.000,147.600 74.000 C 146.940 74.000,146.400 74.180,146.400 74.400 C 146.400 74.620,146.044 74.800,145.608 74.800 C 144.866 74.800,142.145 75.684,140.800 76.363 C 140.470 76.529,139.345 76.915,138.300 77.220 C 137.255 77.525,136.400 77.915,136.400 78.087 C 136.400 78.259,135.860 78.400,135.200 78.400 C 134.540 78.400,134.000 78.580,134.000 78.800 C 134.000 79.020,133.460 79.200,132.800 79.200 C 132.140 79.200,131.600 79.380,131.600 79.600 C 131.600 79.820,131.161 80.000,130.624 80.000 C 130.087 80.000,129.536 80.180,129.400 80.400 C 129.264 80.620,128.803 80.800,128.376 80.800 C 127.949 80.800,127.600 80.980,127.600 81.200 C 127.600 81.420,127.150 81.600,126.600 81.600 C 126.050 81.600,125.600 81.780,125.600 82.000 C 125.600 82.220,125.060 82.400,124.400 82.400 C 123.740 82.400,123.200 82.580,123.200 82.800 C 123.200 83.020,122.660 83.200,122.000 83.200 C 121.340 83.200,120.800 83.380,120.800 83.600 C 120.800 83.820,120.440 84.000,120.000 84.000 C 119.560 84.000,119.200 84.180,119.200 84.400 C 119.200 84.620,118.660 84.800,118.000 84.800 C 117.340 84.800,116.800 84.980,116.800 85.200 C 116.800 85.420,116.260 85.600,115.600 85.600 C 114.940 85.600,114.400 85.780,114.400 86.000 C 114.400 86.220,113.950 86.400,113.400 86.400 C 112.850 86.400,112.400 86.580,112.400 86.800 C 112.400 87.020,111.950 87.200,111.400 87.200 C 110.850 87.200,110.400 87.380,110.400 87.600 C 110.400 87.820,109.965 88.000,109.433 88.000 C 108.902 88.000,108.396 88.212,108.310 88.471 C 108.091 89.127,107.354 88.588,106.699 87.292 C 105.783 85.479,105.037 84.283,104.300 83.445 C 103.915 83.007,103.600 82.506,103.600 82.331 C 103.600 81.646,96.245 74.000,95.586 74.000 C 95.339 74.000,94.476 73.325,93.669 72.500 C 92.861 71.675,91.705 70.745,91.100 70.432 C 90.495 70.120,90.000 69.715,90.000 69.532 C 90.000 69.350,89.730 69.200,89.400 69.200 C 89.070 69.200,88.800 69.020,88.800 68.800 C 88.800 68.580,88.440 68.400,88.000 68.400 C 87.560 68.400,87.200 68.220,87.200 68.000 C 87.200 67.780,86.840 67.600,86.400 67.600 C 85.960 67.600,85.600 67.420,85.600 67.200 C 85.600 66.980,85.240 66.800,84.800 66.800 C 84.360 66.800,84.000 66.620,84.000 66.400 C 84.000 66.180,83.655 66.000,83.233 66.000 C 82.812 66.000,82.407 65.865,82.333 65.699 C 82.151 65.288,77.097 63.600,76.047 63.600 C 75.581 63.600,75.200 63.420,75.200 63.200 C 75.200 62.980,74.401 62.800,73.424 62.800 C 72.447 62.800,71.536 62.620,71.400 62.400 C 71.065 61.859,53.735 61.859,53.400 62.400 C 53.264 62.620,52.353 62.800,51.376 62.800 C 50.399 62.800,49.600 62.980,49.600 63.200 C 49.600 63.420,49.058 63.600,48.395 63.600 C 47.732 63.600,46.877 63.759,46.495 63.953 C 45.822 64.296,45.250 64.541,42.500 65.664 C 41.785 65.956,41.200 66.331,41.200 66.498 C 41.200 66.664,40.840 66.800,40.400 66.800 C 39.960 66.800,39.600 66.980,39.600 67.200 C 39.600 67.420,39.240 67.600,38.800 67.600 C 38.360 67.600,38.000 67.780,38.000 68.000 C 38.000 68.220,37.640 68.400,37.200 68.400 C 36.760 68.400,36.400 68.580,36.400 68.800 C 36.400 69.020,36.164 69.200,35.875 69.200 C 35.587 69.200,34.964 69.560,34.492 70.000 C 34.020 70.440,33.481 70.800,33.295 70.800 C 33.109 70.800,32.308 71.385,31.515 72.100 C 29.483 73.932,28.600 74.651,27.453 75.402 C 26.903 75.762,25.676 77.075,24.727 78.319 C 23.777 79.562,22.505 81.106,21.900 81.749 C 21.295 82.392,20.800 83.079,20.800 83.276 C 20.800 83.473,20.440 84.020,20.000 84.492 C 19.560 84.964,19.200 85.587,19.200 85.875 C 19.200 86.164,19.020 86.400,18.800 86.400 C 18.580 86.400,18.400 86.760,18.400 87.200 C 18.400 87.640,18.220 88.000,18.000 88.000 C 17.780 88.000,17.600 88.360,17.600 88.800 C 17.600 89.240,17.420 89.600,17.200 89.600 C 16.980 89.600,16.800 89.960,16.800 90.400 C 16.800 90.840,16.664 91.200,16.498 91.200 C 16.331 91.200,15.956 91.785,15.664 92.500 C 14.541 95.250,14.296 95.822,13.953 96.495 C 13.759 96.877,13.600 97.732,13.600 98.395 C 13.600 99.058,13.420 99.600,13.200 99.600 C 12.980 99.600,12.800 100.399,12.800 101.376 C 12.800 102.353,12.620 103.264,12.400 103.400 C 12.153 103.553,12.000 107.071,12.000 112.624 C 12.000 118.341,12.145 121.600,12.400 121.600 C 12.620 121.600,12.800 122.410,12.800 123.400 C 12.800 124.390,12.980 125.200,13.200 125.200 C 13.420 125.200,13.600 125.819,13.600 126.576 C 13.600 127.333,13.780 128.064,14.000 128.200 C 14.220 128.336,14.400 128.876,14.400 129.400 C 14.400 129.924,14.580 130.464,14.800 130.600 C 15.020 130.736,15.200 131.197,15.200 131.624 C 15.200 132.051,15.380 132.400,15.600 132.400 C 15.820 132.400,16.000 132.760,16.000 133.200 C 16.000 133.640,16.180 134.000,16.400 134.000 C 16.620 134.000,16.800 134.360,16.800 134.800 C 16.800 135.240,16.980 135.600,17.200 135.600 C 17.420 135.600,17.600 135.960,17.600 136.400 C 17.600 136.840,17.780 137.200,18.000 137.200 C 18.220 137.200,18.400 137.560,18.400 138.000 C 18.400 138.440,18.580 138.800,18.800 138.800 C 19.020 138.800,19.200 139.070,19.200 139.400 C 19.200 139.730,19.341 140.000,19.514 140.000 C 19.686 140.000,20.127 140.508,20.494 141.128 C 20.860 141.748,21.799 142.953,22.580 143.806 C 23.361 144.659,24.000 145.516,24.000 145.711 C 24.000 146.149,28.940 151.200,29.369 151.200 C 29.540 151.200,30.156 151.695,30.740 152.300 C 31.323 152.905,32.295 153.655,32.900 153.968 C 33.505 154.280,34.000 154.663,34.000 154.819 C 34.000 154.975,34.540 155.327,35.200 155.600 C 35.860 155.873,36.400 156.255,36.400 156.449 C 36.400 156.642,36.760 156.800,37.200 156.800 C 37.640 156.800,38.000 156.980,38.000 157.200 C 38.000 157.420,38.271 157.600,38.602 157.600 C 38.933 157.600,40.137 158.050,41.277 158.600 C 42.417 159.150,43.586 159.600,43.875 159.600 C 44.164 159.600,44.400 159.780,44.400 160.000 C 44.400 160.220,44.839 160.400,45.376 160.400 C 45.913 160.400,46.464 160.580,46.600 160.800 C 46.736 161.020,47.467 161.200,48.224 161.200 C 48.981 161.200,49.600 161.380,49.600 161.600 C 49.600 161.820,50.500 162.000,51.600 162.000 C 52.700 162.000,53.600 162.180,53.600 162.400 C 53.600 162.655,56.867 162.800,62.600 162.800 C 68.333 162.800,71.600 162.655,71.600 162.400 C 71.600 162.180,72.410 162.000,73.400 162.000 C 74.390 162.000,75.200 161.820,75.200 161.600 C 75.200 161.380,75.742 161.200,76.405 161.200 C 77.068 161.200,77.968 161.020,78.405 160.800 C 78.842 160.580,79.558 160.220,79.995 160.000 C 81.558 159.213,83.200 159.916,83.200 161.371 C 83.200 161.717,83.380 162.000,83.600 162.000 C 83.820 162.000,84.000 162.320,84.000 162.712 C 84.000 163.103,84.360 163.683,84.800 164.000 C 85.240 164.317,85.600 164.897,85.600 165.288 C 85.600 165.680,85.780 166.000,86.000 166.000 C 86.220 166.000,86.400 166.320,86.400 166.712 C 86.400 167.103,86.760 167.683,87.200 168.000 C 87.640 168.317,88.000 168.897,88.000 169.288 C 88.000 169.680,88.180 170.000,88.400 170.000 C 88.620 170.000,88.800 170.278,88.800 170.617 C 88.800 170.956,89.160 171.620,89.600 172.092 C 90.040 172.564,90.400 173.187,90.400 173.475 C 90.400 173.764,90.580 174.000,90.800 174.000 C 91.020 174.000,91.200 174.270,91.200 174.600 C 91.200 174.930,91.366 175.200,91.568 175.200 C 91.771 175.200,92.055 175.740,92.200 176.400 C 92.345 177.060,92.584 177.603,92.732 177.606 C 92.879 177.610,93.440 178.510,93.979 179.606 C 94.517 180.703,95.102 181.600,95.279 181.600 C 95.455 181.600,95.600 181.960,95.600 182.400 C 95.600 182.840,95.758 183.200,95.951 183.200 C 96.145 183.200,96.527 183.740,96.800 184.400 C 97.073 185.060,97.455 185.600,97.649 185.600 C 97.842 185.600,98.000 185.960,98.000 186.400 C 98.000 186.840,98.180 187.200,98.400 187.200 C 98.620 187.200,98.800 187.470,98.800 187.800 C 98.800 188.130,98.980 188.400,99.200 188.400 C 99.420 188.400,99.600 188.670,99.600 189.000 C 99.600 189.330,99.736 189.600,99.902 189.600 C 100.069 189.600,100.460 190.185,100.772 190.900 C 101.084 191.615,101.668 192.491,102.070 192.847 C 102.471 193.203,102.800 193.788,102.800 194.147 C 102.800 194.506,102.980 194.800,103.200 194.800 C 103.420 194.800,103.600 195.145,103.600 195.567 C 103.600 195.988,103.805 196.402,104.054 196.485 C 104.464 196.621,103.928 198.074,103.199 198.800 C 103.089 198.910,102.744 199.495,102.432 200.100 C 102.120 200.705,101.715 201.200,101.532 201.200 C 101.350 201.200,101.200 201.520,101.200 201.912 C 101.200 202.303,100.840 202.883,100.400 203.200 C 99.960 203.517,99.600 204.057,99.600 204.400 C 99.600 204.743,99.240 205.283,98.800 205.600 C 98.360 205.917,98.000 206.457,98.000 206.800 C 98.000 207.143,97.640 207.683,97.200 208.000 C 96.760 208.317,96.400 208.729,96.400 208.916 C 96.400 209.103,95.860 210.041,95.200 211.000 C 94.540 211.959,94.000 212.937,94.000 213.172 C 94.000 213.407,93.847 213.600,93.661 213.600 C 93.474 213.600,92.997 214.320,92.600 215.200 C 92.203 216.080,91.726 216.800,91.539 216.800 C 91.353 216.800,91.200 217.120,91.200 217.512 C 91.200 217.903,90.840 218.483,90.400 218.800 C 89.960 219.117,89.600 219.657,89.600 220.000 C 89.600 220.343,89.240 220.883,88.800 221.200 C 88.360 221.517,88.000 222.057,88.000 222.400 C 88.000 222.743,87.640 223.283,87.200 223.600 C 86.760 223.917,86.400 224.420,86.400 224.717 C 86.400 225.014,86.175 225.485,85.900 225.763 C 85.625 226.041,85.042 226.748,84.605 227.334 C 83.800 228.414,82.652 228.731,82.200 228.000 C 82.064 227.780,81.513 227.600,80.976 227.600 C 80.439 227.600,80.000 227.420,80.000 227.200 C 80.000 226.980,79.460 226.800,78.800 226.800 C 78.140 226.800,77.600 226.640,77.600 226.444 C 77.600 226.248,77.015 225.989,76.300 225.868 C 75.585 225.747,73.920 225.444,72.600 225.195 C 67.224 224.181,49.891 225.032,47.105 226.447 C 46.723 226.641,46.136 226.800,45.800 226.800 C 45.464 226.800,44.877 226.968,44.495 227.174 C 44.113 227.379,43.215 227.783,42.500 228.071 C 41.785 228.360,41.200 228.731,41.200 228.898 C 41.200 229.064,40.840 229.200,40.400 229.200 C 39.960 229.200,39.600 229.380,39.600 229.600 C 39.600 229.820,39.240 230.000,38.800 230.000 C 38.360 230.000,38.000 230.180,38.000 230.400 C 38.000 230.620,37.640 230.800,37.200 230.800 C 36.760 230.800,36.400 230.980,36.400 231.200 C 36.400 231.420,36.164 231.600,35.875 231.600 C 35.587 231.600,34.964 231.960,34.492 232.400 C 34.020 232.840,33.489 233.200,33.313 233.200 C 32.634 233.200,24.000 241.162,24.000 241.787 C 24.000 241.948,23.460 242.583,22.800 243.200 C 22.140 243.817,21.600 244.519,21.600 244.760 C 21.600 245.002,21.420 245.200,21.200 245.200 C 20.980 245.200,20.800 245.388,20.800 245.617 C 20.800 245.846,20.440 246.420,20.000 246.892 C 19.560 247.364,19.200 247.987,19.200 248.275 C 19.200 248.564,19.020 248.800,18.800 248.800 C 18.580 248.800,18.400 249.160,18.400 249.600 C 18.400 250.040,18.220 250.400,18.000 250.400 C 17.780 250.400,17.600 250.760,17.600 251.200 C 17.600 251.640,17.420 252.000,17.200 252.000 C 16.980 252.000,16.800 252.360,16.800 252.800 C 16.800 253.240,16.620 253.600,16.400 253.600 C 16.180 253.600,16.000 253.960,16.000 254.400 C 16.000 254.840,15.820 255.200,15.600 255.200 C 15.380 255.200,15.200 255.549,15.200 255.976 C 15.200 256.403,15.020 256.864,14.800 257.000 C 14.580 257.136,14.400 257.687,14.400 258.224 C 14.400 258.761,14.220 259.200,14.000 259.200 C 13.780 259.200,13.600 259.819,13.600 260.576 C 13.600 261.333,13.420 262.064,13.200 262.200 C 12.980 262.336,12.800 263.247,12.800 264.224 C 12.800 265.201,12.620 266.000,12.400 266.000 C 12.145 266.000,12.000 269.267,12.000 275.000 C 12.000 280.733,12.145 284.000,12.400 284.000 C 12.620 284.000,12.800 284.799,12.800 285.776 C 12.800 286.753,12.980 287.664,13.200 287.800 C 13.420 287.936,13.600 288.566,13.600 289.200 C 13.600 289.834,13.780 290.464,14.000 290.600 C 14.220 290.736,14.400 291.276,14.400 291.800 C 14.400 292.324,14.580 292.864,14.800 293.000 C 15.020 293.136,15.200 293.597,15.200 294.024 C 15.200 294.451,15.380 294.800,15.600 294.800 C 15.820 294.800,16.000 295.160,16.000 295.600 C 16.000 296.040,16.180 296.400,16.400 296.400 C 16.620 296.400,16.800 296.760,16.800 297.200 C 16.800 297.640,16.980 298.000,17.200 298.000 C 17.420 298.000,17.600 298.360,17.600 298.800 C 17.600 299.240,17.780 299.600,18.000 299.600 C 18.220 299.600,18.400 299.960,18.400 300.400 C 18.400 300.840,18.580 301.200,18.800 301.200 C 19.020 301.200,19.200 301.470,19.200 301.800 C 19.200 302.130,19.380 302.400,19.600 302.400 C 19.820 302.400,20.000 302.670,20.000 303.000 C 20.000 303.330,20.180 303.600,20.400 303.600 C 20.620 303.600,20.800 303.870,20.800 304.200 C 20.800 304.530,20.980 304.800,21.200 304.800 C 21.420 304.800,21.600 304.998,21.600 305.240 C 21.600 305.481,22.140 306.183,22.800 306.800 C 23.460 307.417,24.000 308.052,24.000 308.213 C 24.000 308.753,31.728 315.999,32.307 316.001 C 32.468 316.001,33.230 316.541,34.000 317.200 C 34.770 317.859,35.625 318.399,35.900 318.399 C 36.175 318.400,36.400 318.580,36.400 318.800 C 36.400 319.020,36.760 319.200,37.200 319.200 C 37.640 319.200,38.000 319.380,38.000 319.600 C 38.000 319.820,38.360 320.000,38.800 320.000 C 39.240 320.000,39.600 320.180,39.600 320.400 C 39.600 320.620,39.960 320.800,40.400 320.800 C 40.840 320.800,41.200 320.980,41.200 321.200 C 41.200 321.420,41.560 321.600,42.000 321.600 C 42.440 321.600,42.800 321.780,42.800 322.000 C 42.800 322.220,43.149 322.400,43.576 322.400 C 44.003 322.400,44.464 322.580,44.600 322.800 C 44.736 323.020,45.199 323.200,45.629 323.200 C 46.059 323.200,46.723 323.364,47.105 323.565 C 49.831 324.996,70.595 325.719,74.600 324.522 C 75.480 324.259,77.055 323.815,78.100 323.535 C 79.145 323.254,80.000 322.885,80.000 322.713 C 80.000 322.541,80.540 322.400,81.200 322.400 C 81.860 322.400,82.400 322.220,82.400 322.000 C 82.400 321.780,82.760 321.600,83.200 321.600 C 83.640 321.600,84.000 321.420,84.000 321.200 C 84.000 320.980,84.360 320.800,84.800 320.800 C 85.240 320.800,85.600 320.620,85.600 320.400 C 85.600 320.180,85.960 320.000,86.400 320.000 C 86.840 320.000,87.200 319.820,87.200 319.600 C 87.200 319.380,87.560 319.200,88.000 319.200 C 88.440 319.200,88.800 319.020,88.800 318.800 C 88.800 318.580,89.070 318.400,89.400 318.400 C 89.730 318.400,90.000 318.250,90.000 318.068 C 90.000 317.885,90.495 317.480,91.100 317.168 C 91.705 316.855,92.861 315.925,93.669 315.100 C 94.476 314.275,95.335 313.600,95.576 313.600 C 96.038 313.600,101.200 308.602,101.200 308.154 C 101.200 308.011,101.530 307.603,101.933 307.247 C 102.336 306.891,102.987 306.105,103.379 305.500 C 104.074 304.429,106.000 303.914,106.000 304.800 C 106.000 305.020,106.345 305.200,106.767 305.200 C 107.188 305.200,107.593 305.342,107.667 305.515 C 107.740 305.688,108.880 306.329,110.200 306.940 C 111.520 307.551,112.913 308.220,113.295 308.426 C 113.677 308.631,114.262 308.800,114.595 308.800 C 114.928 308.800,115.200 308.980,115.200 309.200 C 115.200 309.420,115.560 309.600,116.000 309.600 C 116.440 309.600,116.800 309.780,116.800 310.000 C 116.800 310.220,117.160 310.400,117.600 310.400 C 118.040 310.400,118.400 310.580,118.400 310.800 C 118.400 311.020,118.760 311.200,119.200 311.200 C 119.640 311.200,120.000 311.380,120.000 311.600 C 120.000 311.820,120.360 312.000,120.800 312.000 C 121.240 312.000,121.600 312.180,121.600 312.400 C 121.600 312.620,121.960 312.800,122.400 312.800 C 122.840 312.800,123.200 312.980,123.200 313.200 C 123.200 313.420,123.560 313.600,124.000 313.600 C 124.440 313.600,124.800 313.780,124.800 314.000 C 124.800 314.220,125.070 314.400,125.400 314.400 C 125.730 314.400,126.000 314.580,126.000 314.800 C 126.000 315.020,126.360 315.200,126.800 315.200 C 127.240 315.200,127.600 315.380,127.600 315.600 C 127.600 315.820,127.960 316.000,128.400 316.000 C 128.840 316.000,129.200 316.180,129.200 316.400 C 129.200 316.620,129.560 316.800,130.000 316.800 C 130.440 316.800,130.800 316.980,130.800 317.200 C 130.800 317.420,131.160 317.600,131.600 317.600 C 132.040 317.600,132.400 317.780,132.400 318.000 C 132.400 318.220,132.760 318.400,133.200 318.400 C 133.640 318.400,134.000 318.580,134.000 318.800 C 134.000 319.020,134.360 319.200,134.800 319.200 C 135.240 319.200,135.600 319.380,135.600 319.600 C 135.600 319.820,135.960 320.000,136.400 320.000 C 136.840 320.000,137.200 320.180,137.200 320.400 C 137.200 320.620,137.560 320.800,138.000 320.800 C 138.440 320.800,138.800 320.980,138.800 321.200 C 138.800 321.420,139.160 321.600,139.600 321.600 C 140.040 321.600,140.400 321.780,140.400 322.000 C 140.400 322.220,140.745 322.400,141.167 322.400 C 141.588 322.400,141.993 322.542,142.067 322.716 C 142.247 323.143,146.672 325.200,147.411 325.200 C 147.735 325.200,148.000 325.380,148.000 325.600 C 148.000 325.820,148.283 326.000,148.629 326.000 C 148.974 326.000,149.514 326.257,149.829 326.571 C 150.484 327.227,150.594 328.400,150.000 328.400 C 149.745 328.400,149.600 331.659,149.600 337.376 C 149.600 342.929,149.753 346.447,150.000 346.600 C 150.220 346.736,150.400 347.647,150.400 348.624 C 150.400 349.601,150.580 350.400,150.800 350.400 C 151.020 350.400,151.200 351.019,151.200 351.776 C 151.200 352.533,151.380 353.264,151.600 353.400 C 151.820 353.536,152.000 354.087,152.000 354.624 C 152.000 355.161,152.180 355.600,152.400 355.600 C 152.620 355.600,152.800 355.834,152.800 356.120 C 152.800 356.856,153.741 358.793,154.100 358.797 C 154.265 358.799,154.400 359.160,154.400 359.600 C 154.400 360.040,154.580 360.400,154.800 360.400 C 155.020 360.400,155.200 360.760,155.200 361.200 C 155.200 361.640,155.380 362.000,155.600 362.000 C 155.820 362.000,156.000 362.360,156.000 362.800 C 156.000 363.240,156.180 363.600,156.400 363.600 C 156.620 363.600,156.800 363.836,156.800 364.125 C 156.800 364.413,157.115 365.003,157.500 365.437 C 157.885 365.870,158.538 366.825,158.951 367.560 C 160.196 369.776,164.606 374.524,166.800 376.012 C 167.570 376.535,168.491 377.286,168.847 377.681 C 169.203 378.076,169.671 378.400,169.888 378.400 C 170.104 378.400,170.846 378.940,171.537 379.600 C 172.228 380.260,173.064 380.800,173.396 380.800 C 173.728 380.800,174.000 380.946,174.000 381.125 C 174.000 381.304,174.630 381.698,175.400 382.000 C 176.170 382.302,176.800 382.696,176.800 382.875 C 176.800 383.054,177.160 383.200,177.600 383.200 C 178.040 383.200,178.400 383.380,178.400 383.600 C 178.400 383.820,178.760 384.000,179.200 384.000 C 179.640 384.000,180.000 384.180,180.000 384.400 C 180.000 384.620,180.362 384.800,180.805 384.800 C 181.248 384.800,181.968 384.980,182.405 385.200 C 182.842 385.420,183.558 385.780,183.995 386.000 C 184.432 386.220,185.332 386.400,185.995 386.400 C 186.658 386.400,187.200 386.580,187.200 386.800 C 187.200 387.020,188.100 387.200,189.200 387.200 C 190.300 387.200,191.200 387.380,191.200 387.600 C 191.200 387.855,194.400 388.000,200.000 388.000 C 205.600 388.000,208.800 387.855,208.800 387.600 C 208.800 387.380,209.700 387.200,210.800 387.200 C 211.900 387.200,212.800 387.020,212.800 386.800 C 212.800 386.580,213.342 386.400,214.005 386.400 C 214.668 386.400,215.568 386.220,216.005 386.000 C 216.442 385.780,217.158 385.420,217.595 385.200 C 218.032 384.980,218.752 384.800,219.195 384.800 C 219.638 384.800,220.000 384.620,220.000 384.400 C 220.000 384.180,220.360 384.000,220.800 384.000 C 221.240 384.000,221.600 383.820,221.600 383.600 C 221.600 383.380,221.960 383.200,222.400 383.200 C 222.840 383.200,223.200 383.054,223.200 382.875 C 223.200 382.696,223.830 382.302,224.600 382.000 C 225.370 381.698,226.000 381.304,226.000 381.125 C 226.000 380.946,226.320 380.800,226.712 380.800 C 227.103 380.800,227.683 380.440,228.000 380.000 C 228.317 379.560,228.780 379.200,229.029 379.200 C 229.278 379.200,230.003 378.703,230.641 378.096 C 231.278 377.488,232.430 376.557,233.200 376.025 C 235.532 374.416,239.777 369.831,241.049 367.548 C 241.462 366.806,242.115 365.909,242.500 365.553 C 242.885 365.197,243.200 364.612,243.200 364.253 C 243.200 363.894,243.380 363.600,243.600 363.600 C 243.820 363.600,244.000 363.240,244.000 362.800 C 244.000 362.360,244.180 362.000,244.400 362.000 C 244.620 362.000,244.800 361.640,244.800 361.200 C 244.800 360.760,244.980 360.400,245.200 360.400 C 245.420 360.400,245.600 360.040,245.600 359.600 C 245.600 359.160,245.735 358.799,245.900 358.797 C 246.259 358.793,247.200 356.856,247.200 356.120 C 247.200 355.834,247.380 355.600,247.600 355.600 C 247.820 355.600,248.000 355.060,248.000 354.400 C 248.000 353.740,248.180 353.200,248.400 353.200 C 248.620 353.200,248.800 352.570,248.800 351.800 C 248.800 351.030,248.980 350.400,249.200 350.400 C 249.420 350.400,249.600 349.601,249.600 348.624 C 249.600 347.647,249.780 346.736,250.000 346.600 C 250.545 346.263,250.545 328.400,250.000 328.400 C 249.780 328.400,249.600 327.590,249.600 326.600 C 249.600 325.610,249.420 324.800,249.200 324.800 C 248.980 324.800,248.800 324.080,248.800 323.200 C 248.800 322.320,248.620 321.600,248.400 321.600 C 248.180 321.600,248.000 321.251,248.000 320.824 C 248.000 320.397,247.820 319.936,247.600 319.800 C 247.380 319.664,247.200 319.113,247.200 318.576 C 247.200 318.039,247.020 317.600,246.800 317.600 C 246.580 317.600,246.400 317.240,246.400 316.800 C 246.400 316.360,246.220 316.000,246.000 316.000 C 245.780 316.000,245.600 315.640,245.600 315.200 C 245.600 314.760,245.420 314.400,245.200 314.400 C 244.980 314.400,244.800 314.040,244.800 313.600 C 244.800 313.160,244.620 312.800,244.400 312.800 C 244.180 312.800,244.000 312.440,244.000 312.000 C 244.000 311.560,243.820 311.200,243.600 311.200 C 243.380 311.200,243.200 310.945,243.200 310.633 C 243.200 310.322,242.993 309.998,242.739 309.913 C 242.486 309.829,245.411 306.596,249.239 302.730 C 253.068 298.864,257.100 294.668,258.200 293.407 C 259.300 292.146,262.990 288.283,266.400 284.822 C 269.810 281.360,273.860 277.124,275.400 275.407 C 276.940 273.690,280.810 269.632,284.000 266.388 C 287.190 263.144,291.060 259.099,292.600 257.398 C 301.503 247.565,308.009 241.470,309.023 242.013 C 309.561 242.300,310.000 242.685,310.000 242.868 C 310.000 243.050,310.270 243.200,310.600 243.200 C 310.930 243.200,311.200 243.380,311.200 243.600 C 311.200 243.820,311.560 244.000,312.000 244.000 C 312.440 244.000,312.800 244.180,312.800 244.400 C 312.800 244.620,313.160 244.800,313.600 244.800 C 314.040 244.800,314.400 244.980,314.400 245.200 C 314.400 245.420,314.760 245.600,315.200 245.600 C 315.640 245.600,316.000 245.780,316.000 246.000 C 316.000 246.220,316.360 246.400,316.800 246.400 C 317.240 246.400,317.600 246.580,317.600 246.800 C 317.600 247.020,318.140 247.200,318.800 247.200 C 319.460 247.200,320.000 247.380,320.000 247.600 C 320.000 247.820,320.439 248.000,320.976 248.000 C 321.513 248.000,322.064 248.180,322.200 248.400 C 322.336 248.620,322.977 248.800,323.624 248.800 C 324.271 248.800,324.800 248.980,324.800 249.200 C 324.800 249.420,325.610 249.600,326.600 249.600 C 327.590 249.600,328.400 249.780,328.400 250.000 C 328.400 250.255,331.667 250.400,337.400 250.400 C 343.133 250.400,346.400 250.255,346.400 250.000 C 346.400 249.780,347.300 249.600,348.400 249.600 C 349.500 249.600,350.400 249.420,350.400 249.200 C 350.400 248.980,351.030 248.800,351.800 248.800 C 352.570 248.800,353.200 248.620,353.200 248.400 C 353.200 248.180,353.740 248.000,354.400 248.000 C 355.060 248.000,355.600 247.820,355.600 247.600 C 355.600 247.380,355.834 247.200,356.120 247.200 C 356.856 247.200,358.793 246.259,358.797 245.900 C 358.799 245.735,359.160 245.600,359.600 245.600 C 360.040 245.600,360.400 245.420,360.400 245.200 C 360.400 244.980,360.760 244.800,361.200 244.800 C 361.640 244.800,362.000 244.620,362.000 244.400 C 362.000 244.180,362.360 244.000,362.800 244.000 C 363.240 244.000,363.600 243.820,363.600 243.600 C 363.600 243.380,363.894 243.200,364.253 243.200 C 364.612 243.200,365.197 242.885,365.553 242.500 C 365.909 242.115,366.806 241.462,367.548 241.049 C 369.745 239.825,374.488 235.434,376.027 233.200 C 376.557 232.430,377.488 231.278,378.096 230.641 C 378.703 230.003,379.200 229.278,379.200 229.029 C 379.200 228.780,379.560 228.317,380.000 228.000 C 380.440 227.683,380.800 227.103,380.800 226.712 C 380.800 226.320,380.946 226.000,381.125 226.000 C 381.304 226.000,381.698 225.370,382.000 224.600 C 382.302 223.830,382.696 223.200,382.875 223.200 C 383.054 223.200,383.200 222.840,383.200 222.400 C 383.200 221.960,383.380 221.600,383.600 221.600 C 383.820 221.600,384.000 221.240,384.000 220.800 C 384.000 220.360,384.180 220.000,384.400 220.000 C 384.620 220.000,384.800 219.638,384.800 219.195 C 384.800 218.752,384.980 218.032,385.200 217.595 C 385.420 217.158,385.780 216.442,386.000 216.005 C 386.220 215.568,386.400 214.668,386.400 214.005 C 386.400 213.342,386.580 212.800,386.800 212.800 C 387.020 212.800,387.200 212.001,387.200 211.024 C 387.200 210.047,387.380 209.136,387.600 209.000 C 387.847 208.847,388.000 205.404,388.000 200.000 C 388.000 194.596,387.847 191.153,387.600 191.000 C 387.380 190.864,387.200 189.953,387.200 188.976 C 387.200 187.999,387.020 187.200,386.800 187.200 C 386.580 187.200,386.400 186.658,386.400 185.995 C 386.400 185.332,386.220 184.432,386.000 183.995 C 385.780 183.558,385.420 182.842,385.200 182.405 C 384.980 181.968,384.800 181.248,384.800 180.805 C 384.800 180.362,384.620 180.000,384.400 180.000 C 384.180 180.000,384.000 179.640,384.000 179.200 C 384.000 178.760,383.820 178.400,383.600 178.400 C 383.380 178.400,383.200 178.040,383.200 177.600 C 383.200 177.160,383.054 176.800,382.875 176.800 C 382.696 176.800,382.302 176.170,382.000 175.400 C 381.698 174.630,381.304 174.000,381.125 174.000 C 380.946 174.000,380.800 173.680,380.800 173.288 C 380.800 172.897,380.440 172.317,380.000 172.000 C 379.560 171.683,379.200 171.220,379.200 170.971 C 379.200 170.722,378.703 169.997,378.096 169.359 C 377.488 168.722,376.557 167.570,376.025 166.800 C 374.426 164.483,369.845 160.235,367.560 158.951 C 366.825 158.538,365.870 157.885,365.437 157.500 C 365.003 157.115,364.413 156.800,364.125 156.800 C 363.836 156.800,363.600 156.620,363.600 156.400 C 363.600 156.180,363.240 156.000,362.800 156.000 C 362.360 156.000,362.000 155.820,362.000 155.600 C 362.000 155.380,361.640 155.200,361.200 155.200 C 360.760 155.200,360.400 155.020,360.400 154.800 C 360.400 154.580,360.040 154.400,359.600 154.400 C 359.160 154.400,358.799 154.265,358.797 154.100 C 358.793 153.741,356.856 152.800,356.120 152.800 C 355.834 152.800,355.600 152.620,355.600 152.400 C 355.600 152.180,355.161 152.000,354.624 152.000 C 354.087 152.000,353.536 151.820,353.400 151.600 C 353.264 151.380,352.533 151.200,351.776 151.200 C 351.019 151.200,350.400 151.020,350.400 150.800 C 350.400 150.580,349.601 150.400,348.624 150.400 C 347.647 150.400,346.736 150.220,346.600 150.000 C 346.263 149.455,328.400 149.455,328.400 150.000 C 328.400 150.220,327.590 150.400,326.600 150.400 C 325.610 150.400,324.800 150.580,324.800 150.800 C 324.800 151.020,324.271 151.200,323.624 151.200 C 322.977 151.200,322.336 151.380,322.200 151.600 C 322.064 151.820,321.513 152.000,320.976 152.000 C 320.439 152.000,320.000 152.180,320.000 152.400 C 320.000 152.620,319.460 152.800,318.800 152.800 C 318.140 152.800,317.600 152.980,317.600 153.200 C 317.600 153.420,317.240 153.600,316.800 153.600 C 316.360 153.600,316.000 153.780,316.000 154.000 C 316.000 154.220,315.640 154.400,315.200 154.400 C 314.760 154.400,314.400 154.580,314.400 154.800 C 314.400 155.020,314.040 155.200,313.600 155.200 C 313.160 155.200,312.800 155.380,312.800 155.600 C 312.800 155.820,312.440 156.000,312.000 156.000 C 311.560 156.000,311.200 156.180,311.200 156.400 C 311.200 156.620,310.945 156.800,310.633 156.800 C 310.322 156.800,310.007 156.942,309.933 157.114 C 309.860 157.287,309.217 157.839,308.503 158.339 L 307.207 159.250 273.978 126.022 L 240.750 92.794 241.661 91.497 C 242.161 90.784,242.713 90.140,242.886 90.067 C 243.058 89.993,243.200 89.678,243.200 89.367 C 243.200 89.055,243.380 88.800,243.600 88.800 C 243.820 88.800,244.000 88.440,244.000 88.000 C 244.000 87.560,244.180 87.200,244.400 87.200 C 244.620 87.200,244.800 86.840,244.800 86.400 C 244.800 85.960,244.980 85.600,245.200 85.600 C 245.420 85.600,245.600 85.240,245.600 84.800 C 245.600 84.360,245.780 84.000,246.000 84.000 C 246.220 84.000,246.400 83.640,246.400 83.200 C 246.400 82.760,246.580 82.400,246.800 82.400 C 247.020 82.400,247.200 81.860,247.200 81.200 C 247.200 80.540,247.380 80.000,247.600 80.000 C 247.820 80.000,248.000 79.460,248.000 78.800 C 248.000 78.140,248.180 77.600,248.400 77.600 C 248.620 77.600,248.800 77.060,248.800 76.400 C 248.800 75.740,248.980 75.200,249.200 75.200 C 249.420 75.200,249.600 74.390,249.600 73.400 C 249.600 72.410,249.780 71.600,250.000 71.600 C 250.255 71.600,250.400 68.341,250.400 62.624 C 250.400 57.071,250.247 53.553,250.000 53.400 C 249.780 53.264,249.600 52.353,249.600 51.376 C 249.600 50.399,249.420 49.600,249.200 49.600 C 248.980 49.600,248.800 48.981,248.800 48.224 C 248.800 47.467,248.620 46.736,248.400 46.600 C 248.180 46.464,248.000 45.913,248.000 45.376 C 248.000 44.839,247.820 44.400,247.600 44.400 C 247.380 44.400,247.200 44.166,247.200 43.880 C 247.200 43.144,246.259 41.207,245.900 41.203 C 245.735 41.201,245.600 40.840,245.600 40.400 C 245.600 39.960,245.420 39.600,245.200 39.600 C 244.980 39.600,244.800 39.240,244.800 38.800 C 244.800 38.360,244.620 38.000,244.400 38.000 C 244.180 38.000,244.000 37.640,244.000 37.200 C 244.000 36.760,243.820 36.400,243.600 36.400 C 243.380 36.400,243.200 36.106,243.200 35.747 C 243.200 35.388,242.885 34.803,242.500 34.447 C 242.115 34.091,241.462 33.194,241.049 32.452 C 239.874 30.343,234.075 24.000,233.321 24.000 C 233.127 24.000,232.172 23.280,231.200 22.400 C 230.228 21.520,229.240 20.800,229.004 20.800 C 228.769 20.800,228.317 20.440,228.000 20.000 C 227.683 19.560,227.103 19.200,226.712 19.200 C 226.320 19.200,226.000 19.054,226.000 18.875 C 226.000 18.696,225.370 18.302,224.600 18.000 C 223.830 17.698,223.200 17.304,223.200 17.125 C 223.200 16.946,222.840 16.800,222.400 16.800 C 221.960 16.800,221.600 16.620,221.600 16.400 C 221.600 16.180,221.240 16.000,220.800 16.000 C 220.360 16.000,220.000 15.820,220.000 15.600 C 220.000 15.380,219.651 15.200,219.224 15.200 C 218.797 15.200,218.336 15.020,218.200 14.800 C 218.064 14.580,217.524 14.400,217.000 14.400 C 216.476 14.400,215.936 14.220,215.800 14.000 C 215.664 13.780,214.933 13.600,214.176 13.600 C 213.419 13.600,212.800 13.420,212.800 13.200 C 212.800 12.980,212.001 12.800,211.024 12.800 C 210.047 12.800,209.136 12.620,209.000 12.400 C 208.665 11.859,191.335 11.859,191.000 12.400 M209.931 26.365 C 234.642 33.573,245.258 62.155,231.089 83.330 C 214.166 108.620,175.818 104.034,164.786 75.400 C 162.408 69.230,161.813 58.117,163.607 53.412 C 163.777 52.965,164.156 51.790,164.449 50.800 C 168.121 38.373,180.079 28.116,194.000 25.454 C 196.716 24.935,207.054 25.526,209.931 26.365 M72.400 76.371 C 94.962 82.849,106.326 107.708,96.275 128.600 C 87.823 146.168,67.313 154.395,49.200 147.483 C 23.733 137.765,16.914 104.715,36.464 85.752 C 42.084 80.300,48.565 76.952,56.400 75.454 C 59.120 74.934,69.457 75.526,72.400 76.371 M155.429 86.971 C 155.743 87.286,156.000 87.826,156.000 88.171 C 156.000 88.517,156.180 88.800,156.400 88.800 C 156.620 88.800,156.800 89.070,156.800 89.400 C 156.800 89.730,156.950 90.000,157.132 90.000 C 157.315 90.000,157.720 90.495,158.032 91.100 C 158.716 92.425,158.864 92.627,160.399 94.342 C 161.059 95.081,161.600 95.824,161.600 95.995 C 161.600 96.166,162.659 97.378,163.953 98.688 L 166.307 101.071 165.653 102.235 C 165.294 102.876,164.910 103.490,164.799 103.600 C 164.689 103.710,164.344 104.295,164.032 104.900 C 163.720 105.505,163.315 106.000,163.132 106.000 C 162.950 106.000,162.800 106.320,162.800 106.712 C 162.800 107.103,162.440 107.683,162.000 108.000 C 161.560 108.317,161.200 108.724,161.200 108.904 C 161.200 109.084,160.570 110.167,159.800 111.310 C 159.030 112.454,158.400 113.617,158.400 113.895 C 158.400 114.173,158.250 114.400,158.068 114.400 C 157.885 114.400,157.480 114.895,157.168 115.500 C 156.855 116.105,156.285 116.949,155.900 117.375 C 155.515 117.802,155.200 118.387,155.200 118.675 C 155.200 118.964,155.020 119.200,154.800 119.200 C 154.580 119.200,154.400 119.520,154.400 119.912 C 154.400 120.303,154.040 120.883,153.600 121.200 C 153.160 121.517,152.800 122.031,152.800 122.341 C 152.800 122.652,152.484 123.197,152.097 123.553 C 151.711 123.909,151.140 124.695,150.830 125.300 C 150.519 125.905,150.115 126.400,149.932 126.400 C 149.750 126.400,149.600 126.670,149.600 127.000 C 149.600 127.330,149.420 127.600,149.200 127.600 C 148.980 127.600,148.800 127.836,148.800 128.125 C 148.800 128.413,148.485 128.998,148.100 129.425 C 147.715 129.851,147.145 130.695,146.832 131.300 C 146.520 131.905,146.115 132.400,145.932 132.400 C 145.750 132.400,145.600 132.678,145.600 133.017 C 145.600 133.356,145.240 134.020,144.800 134.492 C 144.360 134.964,144.000 135.587,144.000 135.875 C 144.000 136.164,143.847 136.400,143.661 136.400 C 143.474 136.400,142.997 137.120,142.600 138.000 C 142.203 138.880,141.726 139.600,141.539 139.600 C 141.353 139.600,141.200 139.878,141.200 140.218 C 141.200 142.174,138.076 143.037,136.562 141.500 C 136.400 141.335,135.937 141.200,135.533 141.200 C 135.130 141.200,134.800 141.020,134.800 140.800 C 134.800 140.580,134.440 140.400,134.000 140.400 C 133.560 140.400,133.200 140.220,133.200 140.000 C 133.200 139.780,132.840 139.600,132.400 139.600 C 131.960 139.600,131.600 139.420,131.600 139.200 C 131.600 138.980,131.240 138.800,130.800 138.800 C 130.360 138.800,130.000 138.620,130.000 138.400 C 130.000 138.180,129.640 138.000,129.200 138.000 C 128.760 138.000,128.400 137.820,128.400 137.600 C 128.400 137.380,128.040 137.200,127.600 137.200 C 127.160 137.200,126.800 137.020,126.800 136.800 C 126.800 136.580,126.440 136.400,126.000 136.400 C 125.560 136.400,125.200 136.220,125.200 136.000 C 125.200 135.780,124.930 135.600,124.600 135.600 C 124.270 135.600,124.000 135.420,124.000 135.200 C 124.000 134.980,123.640 134.800,123.200 134.800 C 122.760 134.800,122.400 134.620,122.400 134.400 C 122.400 134.180,122.040 134.000,121.600 134.000 C 121.160 134.000,120.800 133.820,120.800 133.600 C 120.800 133.380,120.440 133.200,120.000 133.200 C 119.560 133.200,119.200 133.020,119.200 132.800 C 119.200 132.580,118.840 132.400,118.400 132.400 C 117.960 132.400,117.600 132.220,117.600 132.000 C 117.600 131.780,117.240 131.600,116.800 131.600 C 116.360 131.600,116.000 131.420,116.000 131.200 C 116.000 130.980,115.640 130.800,115.200 130.800 C 114.760 130.800,114.400 130.620,114.400 130.400 C 114.400 130.180,114.040 130.000,113.600 130.000 C 113.160 130.000,112.800 129.820,112.800 129.600 C 112.800 129.380,112.517 129.200,112.171 129.200 C 111.295 129.200,110.043 127.919,110.704 127.699 C 110.977 127.608,111.200 127.008,111.200 126.367 C 111.200 125.725,111.380 125.200,111.600 125.200 C 111.820 125.200,112.000 124.390,112.000 123.400 C 112.000 122.410,112.180 121.600,112.400 121.600 C 112.655 121.600,112.800 118.333,112.800 112.600 C 112.800 106.867,112.655 103.600,112.400 103.600 C 112.180 103.600,112.000 103.240,112.000 102.800 C 112.000 102.267,112.267 102.000,112.800 102.000 C 113.240 102.000,113.600 101.820,113.600 101.600 C 113.600 101.380,114.140 101.200,114.800 101.200 C 115.460 101.200,116.000 101.020,116.000 100.800 C 116.000 100.580,116.349 100.400,116.776 100.400 C 117.203 100.400,117.664 100.220,117.800 100.000 C 117.936 99.780,118.487 99.600,119.024 99.600 C 119.561 99.600,120.000 99.420,120.000 99.200 C 120.000 98.980,120.540 98.800,121.200 98.800 C 121.860 98.800,122.400 98.620,122.400 98.400 C 122.400 98.180,122.850 98.000,123.400 98.000 C 123.950 98.000,124.400 97.820,124.400 97.600 C 124.400 97.380,124.749 97.200,125.176 97.200 C 125.603 97.200,126.064 97.020,126.200 96.800 C 126.336 96.580,126.887 96.400,127.424 96.400 C 127.961 96.400,128.400 96.220,128.400 96.000 C 128.400 95.780,128.940 95.600,129.600 95.600 C 130.260 95.600,130.800 95.420,130.800 95.200 C 130.800 94.980,131.340 94.800,132.000 94.800 C 132.660 94.800,133.200 94.620,133.200 94.400 C 133.200 94.180,133.549 94.000,133.976 94.000 C 134.403 94.000,134.864 93.820,135.000 93.600 C 135.136 93.380,135.687 93.200,136.224 93.200 C 136.761 93.200,137.200 93.020,137.200 92.800 C 137.200 92.580,137.740 92.400,138.400 92.400 C 139.060 92.400,139.600 92.240,139.600 92.045 C 139.600 91.850,140.406 91.570,141.391 91.422 C 142.376 91.275,143.286 90.984,143.414 90.777 C 143.542 90.570,144.087 90.400,144.624 90.400 C 145.161 90.400,145.600 90.220,145.600 90.000 C 145.600 89.780,146.039 89.600,146.576 89.600 C 147.113 89.600,147.642 89.456,147.751 89.279 C 147.860 89.103,148.861 88.710,149.975 88.407 C 151.089 88.104,152.000 87.708,152.000 87.528 C 152.000 87.347,152.540 87.200,153.200 87.200 C 153.860 87.200,154.400 87.020,154.400 86.800 C 154.400 86.242,154.758 86.301,155.429 86.971 M263.561 136.439 C 281.622 154.500,296.400 169.485,296.400 169.739 C 296.399 169.993,295.954 170.717,295.411 171.349 C 294.867 171.981,294.316 172.836,294.184 173.249 C 294.053 173.662,293.778 174.000,293.573 174.000 C 293.368 174.000,293.200 174.360,293.200 174.800 C 293.200 175.240,293.028 175.600,292.818 175.600 C 292.608 175.600,292.318 176.230,292.174 177.000 C 292.029 177.770,291.751 178.400,291.555 178.400 C 291.360 178.400,291.200 178.760,291.200 179.200 C 291.200 179.640,291.020 180.000,290.800 180.000 C 290.580 180.000,290.400 180.540,290.400 181.200 C 290.400 181.860,290.220 182.400,290.000 182.400 C 289.780 182.400,289.600 182.940,289.600 183.600 C 289.600 184.260,289.420 184.800,289.200 184.800 C 288.980 184.800,288.800 185.160,288.800 185.600 C 288.800 186.187,288.533 186.400,287.800 186.400 C 287.250 186.400,286.800 186.220,286.800 186.000 C 286.800 185.769,285.533 185.600,283.800 185.600 C 282.067 185.600,280.800 185.431,280.800 185.200 C 280.800 184.971,279.600 184.800,278.000 184.800 C 276.400 184.800,275.200 184.629,275.200 184.400 C 275.200 184.175,274.075 184.000,272.624 184.000 C 271.207 184.000,269.936 183.820,269.800 183.600 C 269.664 183.380,268.314 183.200,266.800 183.200 C 265.286 183.200,263.936 183.020,263.800 182.800 C 263.664 182.580,262.303 182.400,260.776 182.400 C 259.192 182.400,258.000 182.228,258.000 182.000 C 258.000 181.775,256.875 181.600,255.424 181.600 C 254.007 181.600,252.736 181.420,252.600 181.200 C 252.464 180.980,251.913 180.800,251.376 180.800 C 250.404 180.800,250.400 180.785,250.400 176.624 C 250.400 174.271,250.225 172.339,250.000 172.200 C 249.780 172.064,249.600 171.153,249.600 170.176 C 249.600 169.199,249.420 168.400,249.200 168.400 C 248.980 168.400,248.800 167.781,248.800 167.024 C 248.800 166.267,248.620 165.536,248.400 165.400 C 248.180 165.264,248.000 164.713,248.000 164.176 C 248.000 163.639,247.820 163.200,247.600 163.200 C 247.380 163.200,247.200 162.750,247.200 162.200 C 247.200 161.650,247.020 161.200,246.800 161.200 C 246.580 161.200,246.400 160.840,246.400 160.400 C 246.400 159.960,246.220 159.600,246.000 159.600 C 245.780 159.600,245.600 159.330,245.600 159.000 C 245.600 158.670,245.420 158.400,245.200 158.400 C 244.980 158.400,244.800 158.040,244.800 157.600 C 244.800 157.160,244.620 156.800,244.400 156.800 C 244.180 156.800,244.000 156.440,244.000 156.000 C 244.000 155.560,243.820 155.200,243.600 155.200 C 243.380 155.200,243.200 154.906,243.200 154.547 C 243.200 154.188,242.885 153.603,242.500 153.247 C 242.115 152.891,241.462 151.994,241.049 151.252 C 239.825 149.055,233.681 142.400,232.877 142.400 C 232.670 142.400,231.813 141.770,230.972 141.000 C 230.131 140.230,229.249 139.600,229.010 139.600 C 228.772 139.600,228.317 139.240,228.000 138.800 C 227.683 138.360,227.103 138.000,226.712 138.000 C 226.320 138.000,226.000 137.854,226.000 137.675 C 226.000 137.496,225.370 137.102,224.600 136.800 C 223.830 136.498,223.200 136.104,223.200 135.925 C 223.200 135.746,222.840 135.600,222.400 135.600 C 221.960 135.600,221.600 135.420,221.600 135.200 C 221.600 134.980,221.240 134.800,220.800 134.800 C 220.360 134.800,220.000 134.620,220.000 134.400 C 220.000 134.180,219.651 134.000,219.224 134.000 C 218.797 134.000,218.336 133.820,218.200 133.600 C 218.064 133.380,217.524 133.200,217.000 133.200 C 216.476 133.200,215.936 133.020,215.800 132.800 C 215.664 132.580,214.933 132.400,214.176 132.400 C 213.419 132.400,212.800 132.220,212.800 132.000 C 212.800 131.780,212.001 131.600,211.024 131.600 C 210.047 131.600,209.136 131.420,209.000 131.200 C 208.847 130.953,205.396 130.800,199.976 130.800 C 194.392 130.800,191.200 130.945,191.200 131.200 C 191.200 131.420,190.300 131.600,189.200 131.600 C 188.100 131.600,187.200 131.780,187.200 132.000 C 187.200 132.220,186.658 132.400,185.995 132.400 C 185.332 132.400,184.432 132.580,183.995 132.800 C 183.558 133.020,182.842 133.380,182.405 133.600 C 181.968 133.820,181.248 134.000,180.805 134.000 C 180.362 134.000,180.000 134.180,180.000 134.400 C 180.000 134.620,179.640 134.800,179.200 134.800 C 178.760 134.800,178.400 134.980,178.400 135.200 C 178.400 135.420,178.040 135.600,177.600 135.600 C 177.160 135.600,176.800 135.746,176.800 135.925 C 176.800 136.104,176.170 136.498,175.400 136.800 C 174.630 137.102,174.000 137.496,174.000 137.675 C 174.000 137.854,173.680 138.000,173.288 138.000 C 172.897 138.000,172.317 138.360,172.000 138.800 C 171.683 139.240,171.187 139.600,170.898 139.600 C 170.610 139.600,169.743 140.230,168.973 141.000 C 168.203 141.770,167.382 142.400,167.148 142.400 C 166.642 142.400,161.200 147.583,161.200 148.065 C 161.200 148.248,160.570 149.066,159.800 149.882 C 159.030 150.699,158.386 151.734,158.368 152.183 C 158.351 152.633,158.246 152.775,158.135 152.500 C 158.024 152.225,157.678 152.000,157.367 152.000 C 157.055 152.000,156.800 151.820,156.800 151.600 C 156.800 151.380,156.440 151.200,156.000 151.200 C 155.560 151.200,155.200 151.020,155.200 150.800 C 155.200 150.580,154.917 150.400,154.571 150.400 C 152.962 150.400,152.313 148.528,153.600 147.600 C 154.040 147.283,154.400 146.786,154.400 146.495 C 154.400 146.204,154.760 145.580,155.200 145.108 C 155.640 144.636,156.000 144.013,156.000 143.725 C 156.000 143.436,156.153 143.200,156.339 143.200 C 156.526 143.200,157.003 142.480,157.400 141.600 C 157.797 140.720,158.274 140.000,158.461 140.000 C 158.647 140.000,158.800 139.730,158.800 139.400 C 158.800 139.070,158.980 138.800,159.200 138.800 C 159.420 138.800,159.600 138.564,159.600 138.275 C 159.600 137.987,159.960 137.364,160.400 136.892 C 160.840 136.420,161.200 135.796,161.200 135.505 C 161.200 135.214,161.560 134.717,162.000 134.400 C 162.440 134.083,162.800 133.543,162.800 133.200 C 162.800 132.857,163.160 132.317,163.600 132.000 C 164.040 131.683,164.400 131.143,164.400 130.800 C 164.400 130.457,164.760 129.917,165.200 129.600 C 165.640 129.283,166.000 128.743,166.000 128.400 C 166.000 128.057,166.360 127.517,166.800 127.200 C 167.240 126.883,167.600 126.386,167.600 126.095 C 167.600 125.804,167.931 125.211,168.336 124.777 C 168.741 124.342,169.326 123.495,169.636 122.893 C 169.946 122.292,170.515 121.451,170.900 121.025 C 171.285 120.598,171.600 120.096,171.600 119.908 C 171.600 119.720,171.960 119.180,172.400 118.708 C 172.840 118.236,173.200 117.613,173.200 117.325 C 173.200 117.036,173.353 116.800,173.539 116.800 C 173.726 116.800,174.203 116.080,174.600 115.200 C 174.997 114.320,175.474 113.600,175.661 113.600 C 175.847 113.600,176.000 113.240,176.000 112.800 C 176.000 112.360,176.150 112.000,176.332 112.000 C 176.515 112.000,176.920 111.505,177.232 110.900 C 178.197 109.030,180.000 107.923,180.000 109.200 C 180.000 109.420,180.540 109.600,181.200 109.600 C 181.860 109.600,182.400 109.780,182.400 110.000 C 182.400 110.220,182.940 110.400,183.600 110.400 C 184.260 110.400,184.800 110.580,184.800 110.800 C 184.800 111.020,185.340 111.200,186.000 111.200 C 186.660 111.200,187.200 111.380,187.200 111.600 C 187.200 111.820,188.100 112.000,189.200 112.000 C 190.300 112.000,191.200 112.180,191.200 112.400 C 191.200 112.655,194.400 112.800,200.000 112.800 C 205.600 112.800,208.800 112.655,208.800 112.400 C 208.800 112.180,209.700 112.000,210.800 112.000 C 211.900 112.000,212.800 111.820,212.800 111.600 C 212.800 111.380,213.340 111.200,214.000 111.200 C 214.660 111.200,215.200 111.020,215.200 110.800 C 215.200 110.580,215.740 110.400,216.400 110.400 C 217.060 110.400,217.600 110.220,217.600 110.000 C 217.600 109.780,218.140 109.600,218.800 109.600 C 219.460 109.600,220.000 109.420,220.000 109.200 C 220.000 108.980,220.360 108.800,220.800 108.800 C 221.240 108.800,221.600 108.640,221.600 108.445 C 221.600 108.249,222.230 107.971,223.000 107.826 C 223.770 107.682,224.400 107.413,224.400 107.229 C 224.400 107.044,224.715 106.793,225.100 106.671 C 226.009 106.383,227.953 105.188,228.958 104.300 C 229.394 103.915,229.969 103.600,230.237 103.600 C 230.504 103.600,245.500 118.378,263.561 136.439 M106.000 142.000 C 106.000 142.220,106.360 142.400,106.800 142.400 C 107.240 142.400,107.600 142.546,107.600 142.725 C 107.600 142.904,108.230 143.298,109.000 143.600 C 109.770 143.902,110.400 144.296,110.400 144.475 C 110.400 144.654,110.760 144.800,111.200 144.800 C 111.640 144.800,112.000 144.980,112.000 145.200 C 112.000 145.420,112.360 145.600,112.800 145.600 C 113.240 145.600,113.600 145.780,113.600 146.000 C 113.600 146.220,113.960 146.400,114.400 146.400 C 114.840 146.400,115.200 146.580,115.200 146.800 C 115.200 147.020,115.560 147.200,116.000 147.200 C 116.440 147.200,116.800 147.380,116.800 147.600 C 116.800 147.820,117.160 148.000,117.600 148.000 C 118.040 148.000,118.400 148.180,118.400 148.400 C 118.400 148.620,118.760 148.800,119.200 148.800 C 119.640 148.800,120.000 148.980,120.000 149.200 C 120.000 149.420,120.360 149.600,120.800 149.600 C 121.240 149.600,121.600 149.780,121.600 150.000 C 121.600 150.220,121.960 150.400,122.400 150.400 C 122.840 150.400,123.200 150.580,123.200 150.800 C 123.200 151.020,123.560 151.200,124.000 151.200 C 124.440 151.200,124.800 151.346,124.800 151.525 C 124.800 151.704,125.430 152.098,126.200 152.400 C 126.970 152.702,127.600 153.096,127.600 153.275 C 127.600 153.454,127.960 153.600,128.400 153.600 C 128.840 153.600,129.200 153.780,129.200 154.000 C 129.200 154.220,129.560 154.400,130.000 154.400 C 131.108 154.400,131.227 156.030,130.195 157.062 C 129.897 157.361,129.538 157.964,129.399 158.402 C 129.260 158.841,128.978 159.200,128.773 159.200 C 128.568 159.200,128.400 159.470,128.400 159.800 C 128.400 160.130,128.250 160.400,128.068 160.400 C 127.885 160.400,127.480 160.895,127.168 161.500 C 126.507 162.780,124.991 165.185,124.406 165.883 C 124.183 166.149,124.000 166.604,124.000 166.895 C 124.000 167.186,123.640 167.683,123.200 168.000 C 122.760 168.317,122.400 168.814,122.400 169.105 C 122.400 169.396,122.040 170.020,121.600 170.492 C 121.160 170.964,120.800 171.587,120.800 171.875 C 120.800 172.164,120.620 172.400,120.400 172.400 C 120.180 172.400,120.000 172.636,120.000 172.925 C 120.000 173.213,119.640 173.836,119.200 174.308 C 118.760 174.780,118.400 175.354,118.400 175.583 C 118.400 175.812,118.250 176.000,118.068 176.000 C 117.885 176.000,117.480 176.495,117.168 177.100 C 116.855 177.705,116.285 178.549,115.900 178.975 C 115.515 179.402,115.200 179.904,115.200 180.092 C 115.200 180.280,114.840 180.820,114.400 181.292 C 113.960 181.764,113.600 182.387,113.600 182.675 C 113.600 182.964,113.497 183.200,113.371 183.200 C 112.972 183.200,112.000 182.075,112.000 181.612 C 112.000 181.367,111.640 180.780,111.200 180.308 C 110.760 179.836,110.400 179.213,110.400 178.925 C 110.400 178.636,110.220 178.400,110.000 178.400 C 109.780 178.400,109.600 178.040,109.600 177.600 C 109.600 177.160,109.420 176.800,109.200 176.800 C 108.980 176.800,108.800 176.530,108.800 176.200 C 108.800 175.870,108.665 175.600,108.500 175.599 C 108.335 175.599,107.674 174.519,107.030 173.199 C 106.387 171.880,105.712 170.800,105.530 170.800 C 105.349 170.800,105.200 170.440,105.200 170.000 C 105.200 169.560,105.020 169.200,104.800 169.200 C 104.580 169.200,104.400 168.964,104.400 168.675 C 104.400 168.387,104.040 167.764,103.600 167.292 C 103.160 166.820,102.800 166.156,102.800 165.817 C 102.800 165.478,102.620 165.200,102.400 165.200 C 102.180 165.200,102.000 164.964,102.000 164.675 C 102.000 164.387,101.640 163.764,101.200 163.292 C 100.760 162.820,100.400 162.156,100.400 161.817 C 100.400 161.478,100.220 161.200,100.000 161.200 C 99.780 161.200,99.600 161.012,99.600 160.783 C 99.600 160.554,99.240 159.980,98.800 159.508 C 98.360 159.036,98.000 158.413,98.000 158.125 C 98.000 157.836,97.820 157.600,97.600 157.600 C 97.380 157.600,97.200 157.322,97.200 156.983 C 97.200 156.644,96.840 155.980,96.400 155.508 C 95.960 155.036,95.600 154.413,95.600 154.125 C 95.600 153.836,95.420 153.600,95.200 153.600 C 94.371 153.600,94.767 151.264,95.642 150.987 C 96.565 150.694,101.200 146.161,101.200 145.552 C 101.200 145.344,101.830 144.543,102.600 143.773 C 103.370 143.003,104.000 142.199,104.000 141.987 C 104.000 141.774,104.450 141.600,105.000 141.600 C 105.550 141.600,106.000 141.780,106.000 142.000 M203.932 144.031 C 216.882 145.474,229.606 154.608,233.977 165.600 C 234.284 166.370,234.651 167.180,234.795 167.400 C 234.938 167.620,235.289 168.610,235.574 169.600 C 235.859 170.590,236.238 171.850,236.415 172.400 C 240.006 183.533,235.165 199.681,225.573 208.561 C 221.927 211.937,214.672 216.379,212.780 216.395 C 212.439 216.398,211.989 216.551,211.780 216.736 C 211.420 217.053,209.718 217.462,204.880 218.392 C 202.168 218.914,197.832 218.914,195.120 218.392 C 190.282 217.462,188.580 217.053,188.220 216.736 C 188.011 216.551,187.588 216.400,187.281 216.400 C 183.492 216.400,172.989 208.226,168.874 202.075 C 163.219 193.620,160.870 180.470,163.572 172.400 C 163.757 171.850,164.142 170.590,164.429 169.600 C 168.201 156.589,180.528 146.355,195.000 144.217 C 199.680 143.525,199.439 143.530,203.932 144.031 M144.800 161.600 C 144.800 161.820,145.160 162.000,145.600 162.000 C 146.040 162.000,146.400 162.180,146.400 162.400 C 146.400 162.620,146.760 162.800,147.200 162.800 C 147.640 162.800,148.000 162.980,148.000 163.200 C 148.000 163.420,148.360 163.600,148.800 163.600 C 149.240 163.600,149.600 163.780,149.600 164.000 C 149.600 164.220,149.883 164.400,150.229 164.400 C 151.105 164.400,152.357 165.681,151.696 165.901 C 151.423 165.992,151.200 166.592,151.200 167.233 C 151.200 167.875,151.020 168.400,150.800 168.400 C 150.580 168.400,150.400 169.300,150.400 170.400 C 150.400 171.500,150.220 172.400,150.000 172.400 C 149.745 172.400,149.600 175.592,149.600 181.176 C 149.600 186.596,149.753 190.047,150.000 190.200 C 150.220 190.336,150.400 191.247,150.400 192.224 C 150.400 193.201,150.580 194.000,150.800 194.000 C 151.020 194.000,151.203 194.405,151.206 194.900 C 151.213 195.876,152.082 198.615,152.526 199.059 C 152.677 199.210,152.800 199.753,152.800 200.267 C 152.800 200.780,152.980 201.200,153.200 201.200 C 153.420 201.200,153.600 201.560,153.600 202.000 C 153.600 202.440,153.780 202.800,154.000 202.800 C 154.220 202.800,154.400 203.160,154.400 203.600 C 154.400 204.040,154.580 204.400,154.800 204.400 C 155.020 204.400,155.200 204.760,155.200 205.200 C 155.200 205.640,155.336 206.000,155.502 206.000 C 155.669 206.000,156.060 206.585,156.372 207.300 C 156.684 208.015,157.268 208.891,157.670 209.247 C 158.071 209.603,158.400 210.143,158.400 210.447 C 158.400 210.751,159.120 211.788,160.000 212.751 C 160.880 213.713,161.605 214.613,161.611 214.751 C 161.631 215.216,164.594 218.217,166.000 219.195 C 166.770 219.731,167.877 220.671,168.460 221.285 C 169.044 221.898,169.743 222.400,170.014 222.400 C 170.284 222.400,170.797 222.723,171.153 223.117 C 171.509 223.512,172.880 224.367,174.200 225.017 C 175.520 225.668,176.660 226.335,176.733 226.500 C 176.807 226.665,177.212 226.800,177.633 226.800 C 178.055 226.800,178.400 226.980,178.400 227.200 C 178.400 227.420,178.760 227.600,179.200 227.600 C 179.640 227.600,180.000 227.780,180.000 228.000 C 180.000 228.220,180.540 228.400,181.200 228.400 C 181.860 228.400,182.400 228.580,182.400 228.800 C 182.400 229.020,182.839 229.200,183.376 229.200 C 183.913 229.200,184.464 229.380,184.600 229.600 C 184.736 229.820,185.377 230.000,186.024 230.000 C 186.671 230.000,187.200 230.180,187.200 230.400 C 187.200 230.620,188.100 230.800,189.200 230.800 C 190.300 230.800,191.200 230.980,191.200 231.200 C 191.200 231.420,191.650 231.600,192.200 231.600 L 193.200 231.600 193.200 259.400 L 193.200 287.200 192.200 287.200 C 191.650 287.200,191.200 287.380,191.200 287.600 C 191.200 287.820,190.300 288.000,189.200 288.000 C 188.100 288.000,187.200 288.180,187.200 288.400 C 187.200 288.620,186.671 288.800,186.024 288.800 C 185.377 288.800,184.736 288.980,184.600 289.200 C 184.464 289.420,183.913 289.600,183.376 289.600 C 182.839 289.600,182.400 289.780,182.400 290.000 C 182.400 290.220,181.860 290.400,181.200 290.400 C 180.540 290.400,180.000 290.580,180.000 290.800 C 180.000 291.020,179.655 291.200,179.233 291.200 C 178.812 291.200,178.403 291.390,178.326 291.623 C 178.128 292.215,176.800 291.636,176.800 290.957 C 176.800 290.651,176.620 290.400,176.400 290.400 C 176.180 290.400,176.000 290.040,176.000 289.600 C 176.000 289.160,175.854 288.800,175.675 288.800 C 175.496 288.800,174.962 287.945,174.487 286.900 C 173.651 285.057,172.407 282.807,172.000 282.400 C 171.890 282.290,171.575 281.795,171.300 281.300 C 171.025 280.805,170.575 279.995,170.300 279.500 C 170.025 279.005,169.710 278.510,169.599 278.400 C 169.489 278.290,169.130 277.660,168.802 277.000 C 168.474 276.340,167.889 275.509,167.503 275.153 C 167.116 274.797,166.800 274.212,166.800 273.853 C 166.800 273.494,166.620 273.200,166.400 273.200 C 166.180 273.200,166.000 272.880,166.000 272.488 C 166.000 272.097,165.640 271.517,165.200 271.200 C 164.760 270.883,164.400 270.303,164.400 269.912 C 164.400 269.520,164.220 269.200,164.000 269.200 C 163.780 269.200,163.600 268.880,163.600 268.488 C 163.600 268.097,163.240 267.517,162.800 267.200 C 162.360 266.883,162.000 266.303,162.000 265.912 C 162.000 265.520,161.820 265.200,161.600 265.200 C 161.380 265.200,161.200 264.922,161.200 264.583 C 161.200 264.244,160.840 263.580,160.400 263.108 C 159.960 262.636,159.600 262.013,159.600 261.725 C 159.600 261.436,159.457 261.200,159.282 261.200 C 159.107 261.200,158.630 260.390,158.222 259.400 C 157.813 258.410,157.372 257.597,157.240 257.594 C 157.108 257.590,156.560 256.690,156.021 255.594 C 155.483 254.497,154.898 253.600,154.721 253.600 C 154.545 253.600,154.400 253.240,154.400 252.800 C 154.400 252.360,154.220 252.000,154.000 252.000 C 153.780 252.000,153.600 251.764,153.600 251.475 C 153.600 251.187,153.240 250.564,152.800 250.092 C 152.360 249.620,152.000 248.956,152.000 248.617 C 152.000 248.278,151.820 248.000,151.600 248.000 C 151.380 248.000,151.200 247.764,151.200 247.475 C 151.200 247.187,150.840 246.564,150.400 246.092 C 149.960 245.620,149.600 244.956,149.600 244.617 C 149.600 244.278,149.420 244.000,149.200 244.000 C 148.980 244.000,148.800 243.770,148.800 243.488 C 148.800 243.207,148.440 242.717,148.000 242.400 C 147.560 242.083,147.200 241.503,147.200 241.112 C 147.200 240.720,147.020 240.400,146.800 240.400 C 146.580 240.400,146.400 240.080,146.400 239.688 C 146.400 239.297,146.040 238.717,145.600 238.400 C 145.160 238.083,144.800 237.503,144.800 237.112 C 144.800 236.720,144.620 236.400,144.400 236.400 C 144.180 236.400,144.000 236.122,144.000 235.783 C 144.000 235.444,143.640 234.780,143.200 234.308 C 142.760 233.836,142.400 233.213,142.400 232.925 C 142.400 232.636,142.220 232.400,142.000 232.400 C 141.780 232.400,141.600 232.126,141.600 231.792 C 141.600 231.458,141.191 230.513,140.691 229.692 C 140.191 228.871,139.532 227.708,139.227 227.107 C 138.922 226.505,138.341 225.658,137.936 225.223 C 137.531 224.789,137.200 224.156,137.200 223.817 C 137.200 223.478,137.020 223.200,136.800 223.200 C 136.580 223.200,136.400 222.964,136.400 222.675 C 136.400 222.387,136.040 221.764,135.600 221.292 C 135.160 220.820,134.800 220.156,134.800 219.817 C 134.800 219.478,134.620 219.200,134.400 219.200 C 134.180 219.200,134.000 218.880,134.000 218.488 C 134.000 218.097,133.640 217.517,133.200 217.200 C 132.760 216.883,132.400 216.303,132.400 215.912 C 132.400 215.520,132.220 215.200,132.000 215.200 C 131.780 215.200,131.600 214.880,131.600 214.488 C 131.600 214.097,131.240 213.517,130.800 213.200 C 130.360 212.883,130.000 212.303,130.000 211.912 C 130.000 211.520,129.820 211.200,129.600 211.200 C 129.380 211.200,129.200 210.930,129.200 210.600 C 129.200 210.270,129.020 210.000,128.800 210.000 C 128.580 210.000,128.400 209.730,128.400 209.400 C 128.400 209.070,128.220 208.800,128.000 208.800 C 127.780 208.800,127.600 208.530,127.600 208.200 C 127.600 207.870,127.420 207.600,127.200 207.600 C 126.980 207.600,126.800 207.240,126.800 206.800 C 126.800 206.360,126.665 205.999,126.500 205.997 C 126.335 205.995,126.012 205.590,125.782 205.097 C 125.135 203.707,123.030 199.824,122.803 199.600 C 121.856 198.667,121.253 196.400,121.951 196.400 C 122.145 196.400,122.527 195.860,122.800 195.200 C 123.073 194.540,123.410 193.998,123.549 193.995 C 123.687 193.993,124.157 193.228,124.593 192.295 C 125.028 191.363,125.703 190.309,126.093 189.953 C 126.482 189.597,126.800 189.052,126.800 188.741 C 126.800 188.431,127.160 187.917,127.600 187.600 C 128.040 187.283,128.400 186.743,128.400 186.400 C 128.400 186.057,128.760 185.517,129.200 185.200 C 129.640 184.883,130.000 184.343,130.000 184.000 C 130.000 183.657,130.360 183.117,130.800 182.800 C 131.240 182.483,131.600 181.903,131.600 181.512 C 131.600 181.120,131.758 180.800,131.951 180.800 C 132.145 180.800,132.527 180.260,132.800 179.600 C 133.073 178.940,133.455 178.400,133.649 178.400 C 133.842 178.400,134.000 178.164,134.000 177.875 C 134.000 177.587,134.315 177.002,134.700 176.575 C 135.085 176.149,135.655 175.305,135.968 174.700 C 136.280 174.095,136.685 173.600,136.868 173.600 C 137.050 173.600,137.200 173.412,137.200 173.183 C 137.200 172.954,137.560 172.380,138.000 171.908 C 138.440 171.436,138.800 170.813,138.800 170.525 C 138.800 170.236,138.935 169.999,139.100 169.999 C 139.265 169.998,139.940 168.963,140.600 167.699 C 141.260 166.434,141.890 165.310,142.001 165.200 C 142.111 165.090,142.456 164.505,142.768 163.900 C 143.080 163.295,143.485 162.800,143.668 162.800 C 143.850 162.800,144.000 162.440,144.000 162.000 C 144.000 161.560,144.180 161.200,144.400 161.200 C 144.620 161.200,144.800 161.380,144.800 161.600 M343.269 162.832 C 374.438 169.151,385.813 204.873,363.645 226.819 C 345.060 245.218,313.555 238.980,303.006 214.812 C 298.565 204.638,299.086 191.982,304.339 182.400 C 312.014 168.402,328.894 159.917,343.269 162.832 M250.800 195.200 C 250.800 195.431,252.067 195.600,253.800 195.600 C 255.533 195.600,256.800 195.769,256.800 196.000 C 256.800 196.225,257.925 196.400,259.376 196.400 C 260.793 196.400,262.064 196.580,262.200 196.800 C 262.336 197.020,263.596 197.200,265.000 197.200 C 266.404 197.200,267.664 197.380,267.800 197.600 C 267.936 197.820,269.387 198.000,271.024 198.000 C 272.741 198.000,274.000 198.169,274.000 198.400 C 274.000 198.626,275.133 198.800,276.600 198.800 C 278.067 198.800,279.200 198.974,279.200 199.200 C 279.200 199.429,280.400 199.600,282.000 199.600 C 283.600 199.600,284.800 199.771,284.800 200.000 C 284.800 200.220,285.340 200.400,286.000 200.400 L 287.200 200.400 287.200 204.776 C 287.200 207.263,287.373 209.260,287.600 209.400 C 287.820 209.536,288.000 210.357,288.000 211.224 C 288.000 212.091,288.180 212.800,288.400 212.800 C 288.620 212.800,288.800 213.329,288.800 213.976 C 288.800 214.623,288.980 215.264,289.200 215.400 C 289.420 215.536,289.600 216.177,289.600 216.824 C 289.600 217.471,289.780 218.000,290.000 218.000 C 290.220 218.000,290.400 218.450,290.400 219.000 C 290.400 219.550,290.580 220.000,290.800 220.000 C 291.020 220.000,291.200 220.349,291.200 220.776 C 291.200 221.203,291.366 221.655,291.569 221.781 C 291.772 221.906,292.057 222.547,292.201 223.205 C 292.345 223.862,292.629 224.400,292.832 224.400 C 293.034 224.400,293.200 224.760,293.200 225.200 C 293.200 225.640,293.368 226.000,293.573 226.000 C 293.778 226.000,294.053 226.338,294.184 226.751 C 294.316 227.164,294.867 228.019,295.411 228.651 C 295.954 229.283,296.399 230.010,296.400 230.267 C 296.400 230.523,296.623 230.808,296.895 230.898 C 297.204 231.001,296.716 231.875,295.595 233.229 C 292.439 237.037,291.783 237.720,283.899 245.422 C 282.084 247.194,279.928 249.444,279.107 250.422 C 275.105 255.189,275.673 254.593,267.496 262.621 C 263.716 266.332,261.848 268.370,259.501 271.341 C 259.006 271.969,257.816 273.229,256.859 274.141 C 249.805 280.859,244.919 285.965,242.400 289.251 C 241.850 289.969,240.990 290.926,240.489 291.378 C 239.988 291.830,238.046 293.696,236.172 295.523 L 232.765 298.847 231.622 297.623 C 230.993 296.951,230.315 296.400,230.115 296.400 C 229.915 296.400,229.402 296.076,228.975 295.680 C 228.549 295.284,227.390 294.519,226.400 293.980 C 225.410 293.441,224.542 292.871,224.471 292.713 C 224.400 292.555,223.725 292.310,222.971 292.168 C 222.217 292.027,221.600 291.751,221.600 291.555 C 221.600 291.360,221.240 291.200,220.800 291.200 C 220.360 291.200,220.000 291.020,220.000 290.800 C 220.000 290.580,219.561 290.400,219.024 290.400 C 218.487 290.400,217.936 290.220,217.800 290.000 C 217.664 289.780,217.023 289.600,216.376 289.600 C 215.729 289.600,215.200 289.420,215.200 289.200 C 215.200 288.980,214.660 288.800,214.000 288.800 C 213.340 288.800,212.800 288.620,212.800 288.400 C 212.800 288.180,211.900 288.000,210.800 288.000 C 209.700 288.000,208.800 287.820,208.800 287.600 C 208.800 287.380,208.350 287.200,207.800 287.200 L 206.800 287.200 206.800 259.400 L 206.800 231.600 207.800 231.600 C 208.350 231.600,208.800 231.420,208.800 231.200 C 208.800 230.980,209.700 230.800,210.800 230.800 C 211.900 230.800,212.800 230.620,212.800 230.400 C 212.800 230.180,213.340 230.000,214.000 230.000 C 214.660 230.000,215.200 229.820,215.200 229.600 C 215.200 229.380,215.740 229.200,216.400 229.200 C 217.060 229.200,217.600 229.020,217.600 228.800 C 217.600 228.580,218.140 228.400,218.800 228.400 C 219.460 228.400,220.000 228.220,220.000 228.000 C 220.000 227.780,220.360 227.600,220.800 227.600 C 221.240 227.600,221.600 227.420,221.600 227.200 C 221.600 226.980,221.945 226.800,222.367 226.800 C 222.788 226.800,223.193 226.665,223.267 226.500 C 223.340 226.335,224.480 225.668,225.800 225.017 C 227.120 224.367,228.491 223.512,228.847 223.117 C 229.203 222.723,229.704 222.400,229.960 222.400 C 230.217 222.400,231.042 221.815,231.794 221.100 C 232.546 220.385,233.863 219.260,234.720 218.600 C 235.577 217.940,236.889 216.590,237.634 215.600 C 238.380 214.610,239.281 213.530,239.636 213.200 C 239.991 212.870,240.605 211.970,241.000 211.200 C 241.395 210.430,242.052 209.509,242.459 209.153 C 242.867 208.797,243.200 208.212,243.200 207.853 C 243.200 207.494,243.380 207.200,243.600 207.200 C 243.820 207.200,244.000 206.930,244.000 206.600 C 244.000 206.270,244.180 206.000,244.400 206.000 C 244.620 206.000,244.800 205.640,244.800 205.200 C 244.800 204.760,244.980 204.400,245.200 204.400 C 245.420 204.400,245.600 204.040,245.600 203.600 C 245.600 203.160,245.780 202.800,246.000 202.800 C 246.220 202.800,246.400 202.440,246.400 202.000 C 246.400 201.560,246.580 201.200,246.800 201.200 C 247.020 201.200,247.200 200.660,247.200 200.000 C 247.200 199.340,247.380 198.800,247.600 198.800 C 247.820 198.800,248.000 198.260,248.000 197.600 C 248.000 196.940,248.180 196.400,248.400 196.400 C 248.620 196.400,248.800 196.040,248.800 195.600 C 248.800 195.013,249.067 194.800,249.800 194.800 C 250.350 194.800,250.800 194.980,250.800 195.200 M112.929 211.700 C 113.188 211.975,113.655 212.695,113.968 213.300 C 114.280 213.905,114.685 214.400,114.868 214.400 C 115.050 214.400,115.200 214.760,115.200 215.200 C 115.200 215.640,115.380 216.000,115.600 216.000 C 115.820 216.000,116.000 216.236,116.000 216.525 C 116.000 216.813,116.360 217.436,116.800 217.908 C 117.240 218.380,117.600 219.044,117.600 219.383 C 117.600 219.722,117.780 220.000,118.000 220.000 C 118.220 220.000,118.400 220.236,118.400 220.525 C 118.400 220.813,118.760 221.436,119.200 221.908 C 119.640 222.380,120.000 223.044,120.000 223.383 C 120.000 223.722,120.180 224.000,120.400 224.000 C 120.620 224.000,120.800 224.188,120.800 224.417 C 120.800 224.646,121.160 225.220,121.600 225.692 C 122.040 226.164,122.400 226.787,122.400 227.075 C 122.400 227.364,122.580 227.600,122.800 227.600 C 123.020 227.600,123.200 227.960,123.200 228.400 C 123.200 228.840,123.335 229.201,123.500 229.203 C 123.665 229.205,123.988 229.610,124.218 230.103 C 124.865 231.493,126.970 235.376,127.197 235.600 C 127.591 235.988,128.852 238.209,129.071 238.900 C 129.193 239.285,129.452 239.600,129.647 239.600 C 129.841 239.600,130.000 239.870,130.000 240.200 C 130.000 240.530,130.180 240.800,130.400 240.800 C 130.620 240.800,130.800 241.120,130.800 241.512 C 130.800 241.903,131.160 242.483,131.600 242.800 C 132.040 243.117,132.400 243.697,132.400 244.088 C 132.400 244.480,132.580 244.800,132.800 244.800 C 133.020 244.800,133.200 245.120,133.200 245.512 C 133.200 245.903,133.560 246.483,134.000 246.800 C 134.440 247.117,134.800 247.697,134.800 248.088 C 134.800 248.480,134.980 248.800,135.200 248.800 C 135.420 248.800,135.600 249.078,135.600 249.417 C 135.600 249.756,135.960 250.420,136.400 250.892 C 136.840 251.364,137.200 251.987,137.200 252.275 C 137.200 252.564,137.380 252.800,137.600 252.800 C 137.820 252.800,138.000 253.078,138.000 253.417 C 138.000 253.756,138.360 254.420,138.800 254.892 C 139.240 255.364,139.600 255.987,139.600 256.275 C 139.600 256.564,139.780 256.800,140.000 256.800 C 140.220 256.800,140.400 257.055,140.400 257.367 C 140.400 257.678,140.539 257.993,140.708 258.067 C 140.878 258.140,141.729 259.595,142.600 261.300 C 143.471 263.005,144.322 264.400,144.492 264.400 C 144.661 264.400,144.800 264.760,144.800 265.200 C 144.800 265.640,144.980 266.000,145.200 266.000 C 145.420 266.000,145.600 266.236,145.600 266.525 C 145.600 266.813,145.960 267.436,146.400 267.908 C 146.840 268.380,147.200 269.044,147.200 269.383 C 147.200 269.722,147.380 270.000,147.600 270.000 C 147.820 270.000,148.000 270.236,148.000 270.525 C 148.000 270.813,148.315 271.398,148.700 271.825 C 149.085 272.251,149.669 273.140,149.997 273.800 C 150.326 274.460,150.911 275.291,151.297 275.647 C 151.684 276.003,152.000 276.588,152.000 276.947 C 152.000 277.306,152.180 277.600,152.400 277.600 C 152.620 277.600,152.800 277.878,152.800 278.217 C 152.800 278.556,153.160 279.220,153.600 279.692 C 154.040 280.164,154.400 280.787,154.400 281.075 C 154.400 281.364,154.580 281.600,154.800 281.600 C 155.020 281.600,155.200 281.960,155.200 282.400 C 155.200 282.840,155.380 283.200,155.600 283.200 C 155.820 283.200,156.000 283.470,156.000 283.800 C 156.000 284.130,156.180 284.400,156.400 284.400 C 156.620 284.400,156.800 284.670,156.800 285.000 C 156.800 285.330,156.980 285.600,157.200 285.600 C 157.420 285.600,157.600 285.960,157.600 286.400 C 157.600 286.840,157.735 287.202,157.900 287.204 C 158.065 287.206,158.555 288.016,158.990 289.004 C 159.424 289.992,159.897 290.800,160.041 290.800 C 160.185 290.800,160.527 291.340,160.800 292.000 C 161.073 292.660,161.455 293.200,161.649 293.200 C 161.842 293.200,162.000 293.560,162.000 294.000 C 162.000 294.440,162.180 294.800,162.400 294.800 C 162.620 294.800,162.800 295.036,162.800 295.325 C 162.800 295.613,163.160 296.236,163.600 296.708 C 164.040 297.180,164.400 297.844,164.400 298.183 C 164.400 298.522,164.580 298.800,164.800 298.800 C 165.612 298.800,165.166 300.358,164.094 301.264 C 163.486 301.779,162.550 302.830,162.013 303.600 C 161.477 304.370,160.741 305.270,160.378 305.600 C 160.015 305.930,159.437 306.740,159.093 307.400 C 158.749 308.060,158.093 308.997,157.634 309.483 C 157.175 309.969,156.800 310.554,156.800 310.783 C 156.800 311.012,156.620 311.200,156.400 311.200 C 156.180 311.200,156.000 311.560,156.000 312.000 C 156.000 312.622,155.733 312.800,154.800 312.800 C 154.140 312.800,153.600 312.620,153.600 312.400 C 153.600 312.180,153.240 312.000,152.800 312.000 C 152.360 312.000,152.000 311.820,152.000 311.600 C 152.000 311.380,151.640 311.200,151.200 311.200 C 150.760 311.200,150.400 311.020,150.400 310.800 C 150.400 310.580,150.040 310.400,149.600 310.400 C 149.160 310.400,148.800 310.220,148.800 310.000 C 148.800 309.780,148.551 309.600,148.246 309.600 C 147.941 309.600,147.176 309.331,146.546 309.002 C 145.916 308.674,145.085 308.404,144.700 308.402 C 144.315 308.401,144.000 308.220,144.000 308.000 C 144.000 307.780,143.640 307.600,143.200 307.600 C 142.760 307.600,142.400 307.454,142.400 307.275 C 142.400 307.096,141.770 306.702,141.000 306.400 C 140.230 306.098,139.600 305.704,139.600 305.525 C 139.600 305.346,139.240 305.200,138.800 305.200 C 138.360 305.200,138.000 305.020,138.000 304.800 C 138.000 304.580,137.640 304.400,137.200 304.400 C 136.760 304.400,136.400 304.220,136.400 304.000 C 136.400 303.780,136.040 303.600,135.600 303.600 C 135.160 303.600,134.800 303.420,134.800 303.200 C 134.800 302.980,134.440 302.800,134.000 302.800 C 133.560 302.800,133.200 302.620,133.200 302.400 C 133.200 302.180,132.840 302.000,132.400 302.000 C 131.960 302.000,131.600 301.820,131.600 301.600 C 131.600 301.380,131.240 301.200,130.800 301.200 C 130.360 301.200,130.000 301.020,130.000 300.800 C 130.000 300.580,129.640 300.400,129.200 300.400 C 128.760 300.400,128.400 300.220,128.400 300.000 C 128.400 299.780,128.040 299.600,127.600 299.600 C 127.160 299.600,126.800 299.420,126.800 299.200 C 126.800 298.980,126.440 298.800,126.000 298.800 C 125.560 298.800,125.200 298.654,125.200 298.475 C 125.200 298.296,124.570 297.902,123.800 297.600 C 123.030 297.298,122.400 296.904,122.400 296.725 C 122.400 296.546,122.040 296.400,121.600 296.400 C 121.160 296.400,120.800 296.220,120.800 296.000 C 120.800 295.780,120.440 295.600,120.000 295.600 C 119.560 295.600,119.200 295.420,119.200 295.200 C 119.200 294.980,118.840 294.800,118.400 294.800 C 117.960 294.800,117.600 294.620,117.600 294.400 C 117.600 294.180,117.240 294.000,116.800 294.000 C 116.360 294.000,116.000 293.820,116.000 293.600 C 116.000 293.380,115.728 293.200,115.395 293.200 C 115.062 293.200,114.477 293.029,114.095 292.819 C 113.713 292.610,112.725 292.140,111.900 291.774 C 110.497 291.152,109.895 290.400,110.800 290.400 C 111.020 290.400,111.200 289.871,111.200 289.224 C 111.200 288.577,111.380 287.936,111.600 287.800 C 111.820 287.664,112.000 286.753,112.000 285.776 C 112.000 284.799,112.180 284.000,112.400 284.000 C 112.655 284.000,112.800 280.741,112.800 275.024 C 112.800 269.471,112.647 265.953,112.400 265.800 C 112.180 265.664,112.000 264.753,112.000 263.776 C 112.000 262.799,111.820 262.000,111.600 262.000 C 111.380 262.000,111.200 261.370,111.200 260.600 C 111.200 259.830,111.020 259.200,110.800 259.200 C 110.580 259.200,110.400 258.761,110.400 258.224 C 110.400 257.687,110.220 257.136,110.000 257.000 C 109.780 256.864,109.600 256.403,109.600 255.976 C 109.600 255.549,109.420 255.200,109.200 255.200 C 108.980 255.200,108.800 254.928,108.800 254.595 C 108.800 254.262,108.637 253.677,108.437 253.295 C 108.237 252.913,107.407 251.250,106.593 249.600 C 105.778 247.950,104.988 246.510,104.837 246.400 C 104.685 246.290,104.129 245.570,103.600 244.800 C 103.071 244.030,102.314 243.109,101.919 242.753 C 101.524 242.397,101.200 241.982,101.200 241.831 C 101.200 241.680,100.120 240.496,98.800 239.200 C 97.480 237.904,96.400 236.652,96.400 236.417 C 96.400 236.003,97.193 234.406,97.601 234.000 C 97.711 233.890,98.056 233.305,98.368 232.700 C 98.680 232.095,99.085 231.600,99.268 231.600 C 99.450 231.600,99.600 231.280,99.600 230.888 C 99.600 230.497,99.960 229.917,100.400 229.600 C 100.840 229.283,101.200 228.743,101.200 228.400 C 101.200 228.057,101.560 227.517,102.000 227.200 C 102.440 226.883,102.800 226.343,102.800 226.000 C 102.800 225.657,103.160 225.117,103.600 224.800 C 104.040 224.483,104.400 224.073,104.400 223.890 C 104.400 223.706,105.093 222.531,105.940 221.278 C 106.787 220.025,107.797 218.325,108.185 217.500 C 108.574 216.675,109.051 216.000,109.246 216.000 C 109.441 216.000,109.600 215.680,109.600 215.288 C 109.600 214.897,109.960 214.317,110.400 214.000 C 110.840 213.683,111.200 213.186,111.200 212.895 C 111.200 211.732,112.265 210.996,112.929 211.700 M71.449 238.600 C 99.730 245.761,109.632 280.661,89.221 301.243 C 68.767 321.869,33.446 312.486,26.154 284.489 C 19.032 257.146,44.158 231.691,71.449 238.600 M206.400 300.579 C 220.005 303.206,230.055 311.600,235.248 324.676 C 238.669 333.291,237.923 346.559,233.586 354.214 C 233.154 354.976,232.424 356.263,231.965 357.074 C 231.027 358.731,226.872 363.881,225.732 364.800 C 225.323 365.130,224.090 366.134,222.994 367.031 C 206.270 380.711,178.483 375.690,168.042 357.100 C 167.579 356.275,166.846 354.976,166.414 354.214 C 160.433 343.656,161.439 327.988,168.814 316.836 C 176.993 304.469,192.286 297.854,206.400 300.579 " stroke="none" fill="#1c1c1c" fill-rule="evenodd"></path><path id="path4" d="M194.000 25.454 C 180.079 28.116,168.121 38.373,164.449 50.800 C 164.156 51.790,163.777 52.965,163.607 53.412 C 161.813 58.117,162.408 69.230,164.786 75.400 C 173.608 98.297,200.636 107.041,220.834 93.534 C 240.424 80.433,243.106 52.596,226.374 36.029 C 218.141 27.878,204.547 23.437,194.000 25.454 " stroke="none" fill="#8360f4" fill-rule="evenodd"></path><path id="path5" d="M195.600 300.627 C 177.878 303.714,166.388 314.800,163.399 331.694 C 160.975 345.402,167.317 360.154,179.000 367.977 C 182.013 369.994,186.772 372.400,187.751 372.400 C 188.082 372.400,188.452 372.560,188.573 372.756 C 188.694 372.951,189.379 373.214,190.096 373.340 C 190.813 373.465,192.660 373.790,194.200 374.062 C 199.727 375.037,208.148 374.396,211.295 372.761 C 211.677 372.562,212.167 372.400,212.385 372.400 C 214.369 372.400,222.594 367.292,225.962 363.968 C 246.766 343.432,236.990 308.581,208.400 301.355 C 206.192 300.797,197.472 300.301,195.600 300.627 " stroke="none" fill="#71d2df" fill-rule="evenodd"></path></g></svg>