<?xml version="1.0" standalone="no"?>
<!DOCTYPE svg PUBLIC "-//W3C//DTD SVG 1.0//EN" "http://www.w3.org/TR/2001/REC-SVG-20010904/DTD/svg10.dtd">
<svg xmlns="http://www.w3.org/2000/svg" xmlns:xlink="http://www.w3.org/1999/xlink" id="body_1" width="80" height="80">

<g transform="matrix(0.20000002 0 0 0.20000002 0 0)">
	<g>
        <path d="M56.4 75.454C 26.623 81.148 14.972 116.01 35.39 138.316C 43.179 146.825 57.146 151.61 68.176 149.547C 101.403 143.332 111.359 102.705 84.651 82.314C 77.784 77.071 64.637 73.879 56.4 75.454M194.623 300.347C 193.975 300.486 196.395 300.6 200 300.6C 203.605 300.6 206.025 300.486 205.377 300.347C 204.73 300.208 202.31 300.095 200 300.095C 197.69 300.095 195.27 300.208 194.623 300.347M190.6 301.2L189.8 301.544L190.6 301.532C 191.04 301.526 191.85 301.376 192.4 301.2L192.4 301.2L193.4 300.88L192.4 300.868C 191.85 300.862 191.04 301.011 190.6 301.2M207.6 301.2C 208.15 301.376 208.96 301.526 209.4 301.532L209.4 301.532L210.2 301.544L209.4 301.2C 208.96 301.011 208.15 300.862 207.6 300.868L207.6 300.868L206.6 300.88L207.6 301.2zM188 302C 187.467 302.345 187.467 302.388 188 302.388C 188.33 302.388 188.87 302.213 189.2 302C 189.733 301.655 189.733 301.612 189.2 301.612C 188.87 301.612 188.33 301.787 188 302M210.8 302C 211.13 302.213 211.67 302.388 212 302.388C 212.533 302.388 212.533 302.345 212 302C 211.67 301.787 211.13 301.612 210.8 301.612C 210.267 301.612 210.267 301.655 210.8 302M182.868 304.202C 177.463 307.104 172.434 311.381 169.937 315.2L169.937 315.2L168.761 317L169.88 315.631C 174.113 310.457 178.281 307.006 183.511 304.343C 185.61 303.275 187.074 302.403 186.764 302.407C 186.454 302.41 184.7 303.218 182.868 304.202M215.4 303.803C 234.932 313.391 242.611 335.433 233.016 354.369C 232.427 355.53 232.115 356.376 232.322 356.248C 232.901 355.891 234.691 352.044 235.614 349.175C 237.991 341.786 238.119 335.324 236.051 327.2C 234.131 319.661 227.51 310.593 220.8 306.312C 218.041 304.552 213.787 302.395 213.111 302.414C 212.83 302.422 213.86 303.047 215.4 303.803M167.43 318.913C 161.356 329.277 160.899 342.929 166.258 353.883C 166.832 355.056 167.471 356.12 167.678 356.248C 167.885 356.376 167.591 355.566 167.025 354.449C 161.466 343.479 161.646 329.384 167.468 319.715C 168.208 318.486 168.736 317.403 168.642 317.309C 168.548 317.214 168.002 317.936 167.43 318.913M168 356.996C 168 357.698 173.98 364.953 174.297 364.636C 174.392 364.542 173.887 363.865 173.176 363.132C 172.465 362.4 171.082 360.72 170.104 359.4C 168.022 356.592 168 356.567 168 356.996M230.279 358.9C 229.479 360.055 228.085 361.781 227.18 362.735C 226.276 363.689 225.623 364.557 225.73 364.663C 225.836 364.77 226.816 363.784 227.908 362.473C 230.917 358.857 232.131 357.198 231.922 356.989C 231.818 356.885 231.079 357.745 230.279 358.9M174.822 365.025C 174.974 367.58 188.025 373.781 195 374.614C 198.275 375.005 197.586 374.482 194.158 373.975C 189.594 373.3 188.802 373.128 188.573 372.756C 188.452 372.56 188.082 372.4 187.751 372.4C 186.168 372.4 178.41 367.993 175.9 365.669C 175.295 365.109 174.81 364.819 174.822 365.025M224.369 365.438C 222.957 367.139 213.901 372.4 212.385 372.4C 212.167 372.4 211.677 372.569 211.295 372.776C 210.913 372.983 210.084 373.261 209.453 373.395C 208.822 373.529 208.407 373.74 208.53 373.864C 209.344 374.677 219.513 369.927 222.914 367.145C 224.061 366.206 225.075 365.385 225.167 365.319C 225.258 365.254 225.239 365.106 225.124 364.99C 225.008 364.875 224.669 365.076 224.369 365.438M203.6 374.4L202.6 374.72L203.6 374.73C 204.15 374.736 205.41 374.597 206.4 374.42L206.4 374.42L208.2 374.1L206.4 374.09C 205.41 374.084 204.15 374.224 203.6 374.4M199.3 375.076C 199.685 375.176 200.315 375.176 200.7 375.076C 201.085 374.975 200.77 374.893 200 374.893C 199.23 374.893 198.915 374.975 199.3 375.076" stroke="none" fill="#739BE8" fill-rule="nonzero" />
        <path d="M195 144.217C 180.528 146.355 168.201 156.589 164.429 169.6C 164.142 170.59 163.757 171.85 163.572 172.4C 160.87 180.47 163.219 193.62 168.874 202.075C 172.989 208.226 183.492 216.4 187.281 216.4C 187.588 216.4 188.011 216.551 188.22 216.736C 188.58 217.053 190.282 217.462 195.12 218.392C 197.832 218.914 202.168 218.914 204.88 218.392C 209.718 217.462 211.42 217.053 211.78 216.736C 211.989 216.551 212.439 216.398 212.78 216.395C 214.672 216.379 221.927 211.937 225.573 208.561C 235.165 199.681 240.006 183.533 236.415 172.4C 236.238 171.85 235.859 170.59 235.574 169.6C 235.289 168.61 234.938 167.62 234.795 167.4C 234.651 167.18 234.284 166.37 233.977 165.6C 229.606 154.608 216.882 145.474 203.932 144.031C 199.439 143.53 199.68 143.525 195 144.217M333.6 162.624C 334.858 162.899 343.751 163.034 342.8 162.764C 342.25 162.608 339.82 162.483 337.4 162.486C 334.98 162.49 333.27 162.552 333.6 162.624M328.2 163.6C 327.181 164.038 328.232 164.038 329.6 163.6C 330.404 163.343 330.443 163.277 329.8 163.268C 329.36 163.262 328.64 163.411 328.2 163.6M344.833 163.344C 344.925 163.423 345.54 163.608 346.2 163.756C 347.076 163.952 347.238 163.915 346.8 163.618C 346.26 163.253 344.432 162.998 344.833 163.344M322.4 165.6C 321.63 166.022 321.18 166.366 321.4 166.366C 321.62 166.366 322.43 166.022 323.2 165.6C 323.97 165.178 324.42 164.834 324.2 164.834C 323.98 164.834 323.17 165.178 322.4 165.6M354.033 166.529C 354.693 167.039 358 168.794 358 168.634C 358 168.376 354.636 166.4 354.198 166.4C 354.016 166.4 353.942 166.458 354.033 166.529M316.293 169.014C 315.472 169.572 314.8 170.115 314.8 170.22C 314.8 170.325 315.52 169.935 316.4 169.353C 317.797 168.428 318.27 168 317.893 168C 317.834 168 317.114 168.456 316.293 169.014M358.4 168.925C 358.4 169.024 359.061 169.609 359.868 170.225C 360.676 170.841 361.211 171.141 361.056 170.891C 360.74 170.379 358.4 168.647 358.4 168.925M312.975 171.7L311.8 173L313.1 171.825C 313.815 171.179 314.4 170.594 314.4 170.525C 314.4 170.216 314.07 170.488 312.975 171.7M361.641 171.5C 361.663 171.665 362.608 172.603 363.741 173.585L363.741 173.585L365.8 175.371L363.815 173.285C 361.786 171.154 361.57 170.976 361.641 171.5M309.138 175.5C 307.479 177.248 304.48 181.6 304.935 181.6C 305.035 181.6 305.719 180.655 306.455 179.5C 307.191 178.345 308.492 176.635 309.347 175.7C 311.266 173.602 311.096 173.438 309.138 175.5M367.14 177.516C 367.633 178.209 368.244 178.904 368.497 179.06C 368.75 179.217 368.554 178.777 368.06 178.084C 367.567 177.391 366.956 176.696 366.703 176.54C 366.45 176.383 366.646 176.823 367.14 177.516M369.4 180.8C 369.741 181.46 370.111 182 370.221 182C 370.331 182 370.141 181.46 369.8 180.8C 369.459 180.14 369.089 179.6 368.979 179.6C 368.869 179.6 369.059 180.14 369.4 180.8M371.913 185.819C 372.284 186.82 372.639 187.482 372.703 187.291C 372.831 186.906 371.693 184 371.414 184C 371.317 184 371.542 184.819 371.913 185.819M373.206 189.433C 373.209 189.855 373.395 190.47 373.618 190.8C 373.915 191.238 373.952 191.076 373.756 190.2C 373.427 188.729 373.198 188.41 373.206 189.433M374.093 192.8C 374.093 193.57 374.175 193.885 374.276 193.5C 374.376 193.115 374.376 192.485 374.276 192.1C 374.175 191.715 374.093 192.03 374.093 192.8M300.272 194.604C 300.127 195.482 300.029 196.74 300.053 197.4C 300.078 198.06 300.255 197.52 300.448 196.2C 300.84 193.515 300.685 192.107 300.272 194.604M374.934 200C 374.934 201.65 375.005 202.325 375.091 201.5C 375.178 200.675 375.178 199.325 375.091 198.5C 375.005 197.675 374.934 198.35 374.934 200M300.047 203.033C 300.073 203.895 300.239 205.14 300.415 205.8C 300.618 206.556 300.654 206.038 300.515 204.4C 300.267 201.486 299.975 200.631 300.047 203.033M374.093 207.2C 374.093 207.97 374.175 208.285 374.276 207.9C 374.376 207.515 374.376 206.885 374.276 206.5C 374.175 206.115 374.093 206.43 374.093 207.2M373.449 209.415C 373.312 209.773 373.215 210.366 373.234 210.733C 373.253 211.1 373.427 210.869 373.621 210.22C 373.998 208.958 373.865 208.333 373.449 209.415M371.913 214.181C 371.542 215.181 371.317 216 371.414 216C 371.693 216 372.831 213.094 372.703 212.709C 372.639 212.518 372.284 213.18 371.913 214.181M369.4 219.2C 369.059 219.86 368.869 220.4 368.979 220.4C 369.089 220.4 369.459 219.86 369.8 219.2C 370.141 218.54 370.331 218 370.221 218C 370.111 218 369.741 218.54 369.4 219.2M305.467 219.606C 305.859 220.27 306.598 221.305 307.11 221.906C 307.621 222.508 307.375 221.965 306.563 220.7C 305.024 218.303 304.228 217.507 305.467 219.606M367.944 221.5C 366.793 222.889 366.306 223.6 366.504 223.6C 366.614 223.6 367.186 222.97 367.773 222.2C 368.863 220.771 368.995 220.232 367.944 221.5M309.2 224.6C 309.946 225.37 310.647 226 310.757 226C 310.867 226 310.346 225.37 309.6 224.6C 308.854 223.83 308.153 223.2 308.043 223.2C 307.933 223.2 308.454 223.83 309.2 224.6M363.477 226.653C 362.419 227.662 361.62 228.554 361.701 228.634C 361.782 228.715 362.731 227.886 363.809 226.791C 366.268 224.295 366.046 224.203 363.477 226.653M312 227.325C 312 227.394 312.585 227.979 313.3 228.625L313.3 228.625L314.6 229.8L313.425 228.5C 312.33 227.288 312 227.016 312 227.325M359.585 230.032L358.2 231.263L359.488 230.413C 360.63 229.659 361.493 228.8 361.108 228.8C 361.032 228.8 360.347 229.354 359.585 230.032M315.069 230.032C 315.566 230.633 318 232.164 318 231.876C 318 231.783 317.235 231.202 316.3 230.585C 315.365 229.968 314.811 229.72 315.069 230.032M356.7 231.829C 356.095 232.157 355.6 232.51 355.6 232.613C 355.6 232.999 356.232 232.757 357.2 232C 358.389 231.07 358.211 231.009 356.7 231.829M322.4 234.4C 323.17 234.822 323.98 235.166 324.2 235.166C 324.42 235.166 323.97 234.822 323.2 234.4C 322.43 233.978 321.62 233.634 321.4 233.634C 321.18 233.634 321.63 233.978 322.4 234.4M328.2 236.4C 328.64 236.589 329.36 236.738 329.8 236.732C 330.443 236.723 330.404 236.657 329.6 236.4C 328.232 235.962 327.181 235.962 328.2 236.4M345.6 236.4C 344.776 236.664 344.741 236.726 345.4 236.754C 345.84 236.773 346.47 236.613 346.8 236.4C 347.501 235.947 347.014 235.947 345.6 236.4M332.476 237.26C 332.984 237.403 335.29 237.52 337.6 237.52C 339.91 237.52 342.216 237.403 342.724 237.26C 343.232 237.117 340.926 237 337.6 237C 334.274 237 331.968 237.117 332.476 237.26M56 238C 54.643 238.286 54.637 238.295 55.8 238.307C 56.46 238.315 57.45 238.176 58 238C 59.312 237.58 57.996 237.58 56 238M67 238C 67.66 238.168 68.65 238.305 69.2 238.305C 70.092 238.305 70.07 238.272 69 238C 68.34 237.832 67.35 237.695 66.8 237.695C 65.908 237.695 65.93 237.728 67 238M52.4 238.8C 51.576 239.064 51.541 239.126 52.2 239.154C 52.64 239.173 53.27 239.013 53.6 238.8C 54.301 238.347 53.814 238.347 52.4 238.8M44.1 242.226C 41.771 243.622 41.942 243.896 44.3 242.546C 46.572 241.245 46.635 241.199 46.167 241.204C 45.965 241.206 45.035 241.666 44.1 242.226M81.2 242.508C 81.672 243.019 86.427 246.4 86.673 246.4C 87.006 246.4 82.908 243.301 81.8 242.715C 81.36 242.482 81.09 242.389 81.2 242.508M38.491 246.3L36.526 248.2L38.363 246.638C 40.938 244.449 40.989 244.4 40.708 244.4C 40.569 244.4 39.572 245.255 38.491 246.3M88.783 248.5C 89.764 249.545 90.619 250.4 90.683 250.4C 90.984 250.4 90.666 250.041 88.9 248.383L88.9 248.383L87 246.6L88.783 248.5zM33.955 250.7C 32.681 252.108 31.856 253.2 32.066 253.2C 32.157 253.2 32.908 252.39 33.735 251.4C 35.387 249.424 35.535 248.953 33.955 250.7M91.211 251.046C 91.217 251.241 91.712 251.947 92.311 252.616C 93.517 253.962 93.411 253.619 92.072 251.846C 91.592 251.211 91.205 250.851 91.211 251.046M28.98 258.04C 28.411 259.162 28.013 260.147 28.095 260.229C 28.177 260.311 28.727 259.393 29.318 258.189C 29.908 256.985 30.306 256 30.202 256C 30.098 256 29.548 256.918 28.98 258.04M26.649 263.415C 26.512 263.773 26.415 264.366 26.434 264.733C 26.453 265.1 26.627 264.869 26.821 264.22C 27.198 262.958 27.065 262.333 26.649 263.415M98.456 265.2C 98.456 265.53 98.611 266.16 98.8 266.6C 99.017 267.104 99.144 267.178 99.144 266.8C 99.144 266.47 98.989 265.84 98.8 265.4C 98.583 264.896 98.456 264.822 98.456 265.2M99.469 270.6C 99.596 271.92 99.768 273.075 99.85 273.167C 100.141 273.49 99.916 270.186 99.579 269.2C 99.358 268.552 99.32 269.045 99.469 270.6M24.937 275C 24.939 276.76 25.009 277.43 25.093 276.489C 25.178 275.549 25.177 274.109 25.091 273.289C 25.005 272.47 24.936 273.24 24.937 275M99.47 278.957C 99.311 280.253 99.261 281.394 99.36 281.493C 99.626 281.759 100.103 278.218 99.919 277.347C 99.832 276.936 99.63 277.66 99.47 278.957M98.629 283.829C 98.481 284.415 98.438 284.972 98.532 285.066C 98.627 285.16 98.824 284.758 98.971 284.171C 99.119 283.585 99.162 283.028 99.068 282.934C 98.973 282.84 98.776 283.242 98.629 283.829M26.418 285.254C 26.408 285.614 26.663 286.514 26.984 287.254C 27.74 288.994 27.758 288.273 27.012 286.2C 26.695 285.32 26.427 284.894 26.418 285.254M28 289.747C 28 290.18 29.988 294 30.213 294C 30.323 294 29.939 293.055 29.359 291.9C 28.243 289.679 28 289.294 28 289.747M92.207 297.426C 91.609 298.211 91.182 298.916 91.26 298.993C 91.337 299.07 91.907 298.428 92.526 297.567C 93.934 295.608 93.679 295.496 92.207 297.426M32.73 297.9C 33.161 298.505 33.928 299.36 34.434 299.8C 34.94 300.24 34.651 299.745 33.792 298.7C 32.073 296.608 31.503 296.179 32.73 297.9M88.8 301.4C 87.828 302.39 87.123 303.2 87.233 303.2C 87.343 303.2 88.228 302.39 89.2 301.4C 90.172 300.41 90.877 299.6 90.767 299.6C 90.657 299.6 89.772 300.41 88.8 301.4M37.4 302.748C 38.06 303.477 39.14 304.446 39.8 304.901C 41.218 305.88 40.898 305.534 38.2 303.174C 36.722 301.881 36.513 301.77 37.4 302.748M83.856 305.429C 82.567 306.403 81.667 307.195 81.856 307.189C 82.045 307.183 83.266 306.373 84.57 305.389C 85.873 304.405 86.773 303.613 86.57 303.629C 86.366 303.645 85.145 304.455 83.856 305.429M42.4 306.583C 42.4 306.857 46.012 308.921 46.186 308.747C 46.268 308.665 45.45 308.103 44.368 307.499C 43.286 306.895 42.4 306.483 42.4 306.583M51.633 310.944C 51.725 311.023 52.34 311.208 53 311.356C 53.876 311.552 54.038 311.515 53.6 311.218C 53.06 310.853 51.232 310.598 51.633 310.944M54.833 311.749C 54.925 311.831 55.9 312.001 57 312.128C 58.349 312.284 58.674 312.249 58 312.02C 57.001 311.68 54.518 311.468 54.833 311.749M66.8 312.02C 66.126 312.249 66.451 312.284 67.8 312.128C 68.9 312.001 69.875 311.831 69.967 311.749C 70.282 311.468 67.799 311.68 66.8 312.02" stroke="none" fill="#DB545C" fill-rule="nonzero" />
        <path d="M329.8 163.563C 303.512 169.76 291.813 198.903 306.768 220.935C 319.885 240.26 347.223 242.786 363.804 226.204C 384.046 205.963 374.961 171.977 347.173 163.989C 342.834 162.741 334.183 162.529 329.8 163.563M57 238.084C 26.104 243.866 14.503 280.118 36.632 301.73C 44.624 309.536 57.663 313.895 67.269 311.974C 68.441 311.74 70.39 311.351 71.6 311.11C 72.81 310.868 73.971 310.52 74.18 310.336C 74.389 310.151 74.799 310 75.091 310C 76.11 310 81.51 307.202 84.046 305.36C 104.791 290.295 105.101 260.468 84.672 245.155C 81.717 242.94 76.253 240 75.091 240C 74.799 240 74.389 239.849 74.18 239.664C 73.82 239.347 72.118 238.938 67.28 238.008C 64.765 237.524 59.797 237.561 57 238.084" stroke="none" fill="#F3DA43" fill-rule="nonzero" />
        <path d="M191 12.4C 190.864 12.62 189.953 12.8 188.976 12.8C 187.999 12.8 187.2 12.98 187.2 13.2C 187.2 13.42 186.581 13.6 185.824 13.6C 185.067 13.6 184.336 13.78 184.2 14C 184.064 14.22 183.524 14.4 183 14.4C 182.476 14.4 181.936 14.58 181.8 14.8C 181.664 15.02 181.203 15.2 180.776 15.2C 180.349 15.2 180 15.38 180 15.6C 180 15.82 179.64 16 179.2 16C 178.76 16 178.4 16.18 178.4 16.4C 178.4 16.62 178.04 16.8 177.6 16.8C 177.16 16.8 176.8 16.946 176.8 17.125C 176.8 17.304 176.17 17.698 175.4 18C 174.63 18.302 174 18.696 174 18.875C 174 19.054 173.68 19.2 173.288 19.2C 172.897 19.2 172.317 19.56 172 20C 171.683 20.44 171.22 20.8 170.971 20.8C 170.722 20.8 169.997 21.297 169.359 21.904C 168.722 22.512 167.57 23.443 166.8 23.973C 164.582 25.501 160.186 30.242 158.951 32.44C 158.538 33.175 157.885 34.13 157.5 34.563C 157.115 34.997 156.8 35.587 156.8 35.875C 156.8 36.164 156.62 36.4 156.4 36.4C 156.18 36.4 156 36.76 156 37.2C 156 37.64 155.82 38 155.6 38C 155.38 38 155.2 38.36 155.2 38.8C 155.2 39.24 155.02 39.6 154.8 39.6C 154.58 39.6 154.4 39.96 154.4 40.4C 154.4 40.84 154.265 41.201 154.1 41.203C 153.741 41.207 152.8 43.144 152.8 43.88C 152.8 44.166 152.62 44.4 152.4 44.4C 152.18 44.4 152 44.839 152 45.376C 152 45.913 151.82 46.464 151.6 46.6C 151.38 46.736 151.2 47.467 151.2 48.224C 151.2 48.981 151.02 49.6 150.8 49.6C 150.58 49.6 150.4 50.399 150.4 51.376C 150.4 52.353 150.22 53.264 150 53.4C 149.753 53.553 149.6 57.071 149.6 62.624C 149.6 68.341 149.745 71.6 150 71.6C 150.22 71.6 150.4 71.96 150.4 72.4C 150.4 72.933 150.133 73.2 149.6 73.2C 149.16 73.2 148.8 73.38 148.8 73.6C 148.8 73.82 148.26 74 147.6 74C 146.94 74 146.4 74.18 146.4 74.4C 146.4 74.62 146.044 74.8 145.608 74.8C 144.866 74.8 142.145 75.684 140.8 76.363C 140.47 76.529 139.345 76.915 138.3 77.22C 137.255 77.525 136.4 77.915 136.4 78.087C 136.4 78.259 135.86 78.4 135.2 78.4C 134.54 78.4 134 78.58 134 78.8C 134 79.02 133.46 79.2 132.8 79.2C 132.14 79.2 131.6 79.38 131.6 79.6C 131.6 79.82 131.161 80 130.624 80C 130.087 80 129.536 80.18 129.4 80.4C 129.264 80.62 128.803 80.8 128.376 80.8C 127.949 80.8 127.6 80.98 127.6 81.2C 127.6 81.42 127.15 81.6 126.6 81.6C 126.05 81.6 125.6 81.78 125.6 82C 125.6 82.22 125.06 82.4 124.4 82.4C 123.74 82.4 123.2 82.58 123.2 82.8C 123.2 83.02 122.66 83.2 122 83.2C 121.34 83.2 120.8 83.38 120.8 83.6C 120.8 83.82 120.44 84 120 84C 119.56 84 119.2 84.18 119.2 84.4C 119.2 84.62 118.66 84.8 118 84.8C 117.34 84.8 116.8 84.98 116.8 85.2C 116.8 85.42 116.26 85.6 115.6 85.6C 114.94 85.6 114.4 85.78 114.4 86C 114.4 86.22 113.95 86.4 113.4 86.4C 112.85 86.4 112.4 86.58 112.4 86.8C 112.4 87.02 111.95 87.2 111.4 87.2C 110.85 87.2 110.4 87.38 110.4 87.6C 110.4 87.82 109.965 88 109.433 88C 108.902 88 108.396 88.212 108.31 88.471C 108.091 89.127 107.354 88.588 106.699 87.292C 105.783 85.479 105.037 84.283 104.3 83.445C 103.915 83.007 103.6 82.506 103.6 82.331C 103.6 81.646 96.245 74 95.586 74C 95.339 74 94.476 73.325 93.669 72.5C 92.861 71.675 91.705 70.745 91.1 70.432C 90.495 70.12 90 69.715 90 69.532C 90 69.35 89.73 69.2 89.4 69.2C 89.07 69.2 88.8 69.02 88.8 68.8C 88.8 68.58 88.44 68.4 88 68.4C 87.56 68.4 87.2 68.22 87.2 68C 87.2 67.78 86.84 67.6 86.4 67.6C 85.96 67.6 85.6 67.42 85.6 67.2C 85.6 66.98 85.24 66.8 84.8 66.8C 84.36 66.8 84 66.62 84 66.4C 84 66.18 83.655 66 83.233 66C 82.812 66 82.407 65.865 82.333 65.699C 82.151 65.288 77.097 63.6 76.047 63.6C 75.581 63.6 75.2 63.42 75.2 63.2C 75.2 62.98 74.401 62.8 73.424 62.8C 72.447 62.8 71.536 62.62 71.4 62.4C 71.065 61.859 53.735 61.859 53.4 62.4C 53.264 62.62 52.353 62.8 51.376 62.8C 50.399 62.8 49.6 62.98 49.6 63.2C 49.6 63.42 49.058 63.6 48.395 63.6C 47.732 63.6 46.877 63.759 46.495 63.953C 45.822 64.296 45.25 64.541 42.5 65.664C 41.785 65.956 41.2 66.331 41.2 66.498C 41.2 66.664 40.84 66.8 40.4 66.8C 39.96 66.8 39.6 66.98 39.6 67.2C 39.6 67.42 39.24 67.6 38.8 67.6C 38.36 67.6 38 67.78 38 68C 38 68.22 37.64 68.4 37.2 68.4C 36.76 68.4 36.4 68.58 36.4 68.8C 36.4 69.02 36.164 69.2 35.875 69.2C 35.587 69.2 34.964 69.56 34.492 70C 34.02 70.44 33.481 70.8 33.295 70.8C 33.109 70.8 32.308 71.385 31.515 72.1C 29.483 73.932 28.6 74.651 27.453 75.402C 26.903 75.762 25.676 77.075 24.727 78.319C 23.777 79.562 22.505 81.106 21.9 81.749C 21.295 82.392 20.8 83.079 20.8 83.276C 20.8 83.473 20.44 84.02 20 84.492C 19.56 84.964 19.2 85.587 19.2 85.875C 19.2 86.164 19.02 86.4 18.8 86.4C 18.58 86.4 18.4 86.76 18.4 87.2C 18.4 87.64 18.22 88 18 88C 17.78 88 17.6 88.36 17.6 88.8C 17.6 89.24 17.42 89.6 17.2 89.6C 16.98 89.6 16.8 89.96 16.8 90.4C 16.8 90.84 16.664 91.2 16.498 91.2C 16.331 91.2 15.956 91.785 15.664 92.5C 14.541 95.25 14.296 95.822 13.953 96.495C 13.759 96.877 13.6 97.732 13.6 98.395C 13.6 99.058 13.42 99.6 13.2 99.6C 12.98 99.6 12.8 100.399 12.8 101.376C 12.8 102.353 12.62 103.264 12.4 103.4C 12.153 103.553 12 107.071 12 112.624C 12 118.341 12.145 121.6 12.4 121.6C 12.62 121.6 12.8 122.41 12.8 123.4C 12.8 124.39 12.98 125.2 13.2 125.2C 13.42 125.2 13.6 125.819 13.6 126.576C 13.6 127.333 13.78 128.064 14 128.2C 14.22 128.336 14.4 128.876 14.4 129.4C 14.4 129.924 14.58 130.464 14.8 130.6C 15.02 130.736 15.2 131.197 15.2 131.624C 15.2 132.051 15.38 132.4 15.6 132.4C 15.82 132.4 16 132.76 16 133.2C 16 133.64 16.18 134 16.4 134C 16.62 134 16.8 134.36 16.8 134.8C 16.8 135.24 16.98 135.6 17.2 135.6C 17.42 135.6 17.6 135.96 17.6 136.4C 17.6 136.84 17.78 137.2 18 137.2C 18.22 137.2 18.4 137.56 18.4 138C 18.4 138.44 18.58 138.8 18.8 138.8C 19.02 138.8 19.2 139.07 19.2 139.4C 19.2 139.73 19.341 140 19.514 140C 19.686 140 20.127 140.508 20.494 141.128C 20.86 141.748 21.799 142.953 22.58 143.806C 23.361 144.659 24 145.516 24 145.711C 24 146.149 28.94 151.2 29.369 151.2C 29.54 151.2 30.156 151.695 30.74 152.3C 31.323 152.905 32.295 153.655 32.9 153.968C 33.505 154.28 34 154.663 34 154.819C 34 154.975 34.54 155.327 35.2 155.6C 35.86 155.873 36.4 156.255 36.4 156.449C 36.4 156.642 36.76 156.8 37.2 156.8C 37.64 156.8 38 156.98 38 157.2C 38 157.42 38.271 157.6 38.602 157.6C 38.933 157.6 40.137 158.05 41.277 158.6C 42.417 159.15 43.586 159.6 43.875 159.6C 44.164 159.6 44.4 159.78 44.4 160C 44.4 160.22 44.839 160.4 45.376 160.4C 45.913 160.4 46.464 160.58 46.6 160.8C 46.736 161.02 47.467 161.2 48.224 161.2C 48.981 161.2 49.6 161.38 49.6 161.6C 49.6 161.82 50.5 162 51.6 162C 52.7 162 53.6 162.18 53.6 162.4C 53.6 162.655 56.867 162.8 62.6 162.8C 68.333 162.8 71.6 162.655 71.6 162.4C 71.6 162.18 72.41 162 73.4 162C 74.39 162 75.2 161.82 75.2 161.6C 75.2 161.38 75.742 161.2 76.405 161.2C 77.068 161.2 77.968 161.02 78.405 160.8C 78.842 160.58 79.558 160.22 79.995 160C 81.558 159.213 83.2 159.916 83.2 161.371C 83.2 161.717 83.38 162 83.6 162C 83.82 162 84 162.32 84 162.712C 84 163.103 84.36 163.683 84.8 164C 85.24 164.317 85.6 164.897 85.6 165.288C 85.6 165.68 85.78 166 86 166C 86.22 166 86.4 166.32 86.4 166.712C 86.4 167.103 86.76 167.683 87.2 168C 87.64 168.317 88 168.897 88 169.288C 88 169.68 88.18 170 88.4 170C 88.62 170 88.8 170.278 88.8 170.617C 88.8 170.956 89.16 171.62 89.6 172.092C 90.04 172.564 90.4 173.187 90.4 173.475C 90.4 173.764 90.58 174 90.8 174C 91.02 174 91.2 174.27 91.2 174.6C 91.2 174.93 91.366 175.2 91.568 175.2C 91.771 175.2 92.055 175.74 92.2 176.4C 92.345 177.06 92.584 177.603 92.732 177.606C 92.879 177.61 93.44 178.51 93.979 179.606C 94.517 180.703 95.102 181.6 95.279 181.6C 95.455 181.6 95.6 181.96 95.6 182.4C 95.6 182.84 95.758 183.2 95.951 183.2C 96.145 183.2 96.527 183.74 96.8 184.4C 97.073 185.06 97.455 185.6 97.649 185.6C 97.842 185.6 98 185.96 98 186.4C 98 186.84 98.18 187.2 98.4 187.2C 98.62 187.2 98.8 187.47 98.8 187.8C 98.8 188.13 98.98 188.4 99.2 188.4C 99.42 188.4 99.6 188.67 99.6 189C 99.6 189.33 99.736 189.6 99.902 189.6C 100.069 189.6 100.46 190.185 100.772 190.9C 101.084 191.615 101.668 192.491 102.07 192.847C 102.471 193.203 102.8 193.788 102.8 194.147C 102.8 194.506 102.98 194.8 103.2 194.8C 103.42 194.8 103.6 195.145 103.6 195.567C 103.6 195.988 103.805 196.402 104.054 196.485C 104.464 196.621 103.928 198.074 103.199 198.8C 103.089 198.91 102.744 199.495 102.432 200.1C 102.12 200.705 101.715 201.2 101.532 201.2C 101.35 201.2 101.2 201.52 101.2 201.912C 101.2 202.303 100.84 202.883 100.4 203.2C 99.96 203.517 99.6 204.057 99.6 204.4C 99.6 204.743 99.24 205.283 98.8 205.6C 98.36 205.917 98 206.457 98 206.8C 98 207.143 97.64 207.683 97.2 208C 96.76 208.317 96.4 208.729 96.4 208.916C 96.4 209.103 95.86 210.041 95.2 211C 94.54 211.959 94 212.937 94 213.172C 94 213.407 93.847 213.6 93.661 213.6C 93.474 213.6 92.997 214.32 92.6 215.2C 92.203 216.08 91.726 216.8 91.539 216.8C 91.353 216.8 91.2 217.12 91.2 217.512C 91.2 217.903 90.84 218.483 90.4 218.8C 89.96 219.117 89.6 219.657 89.6 220C 89.6 220.343 89.24 220.883 88.8 221.2C 88.36 221.517 88 222.057 88 222.4C 88 222.743 87.64 223.283 87.2 223.6C 86.76 223.917 86.4 224.42 86.4 224.717C 86.4 225.014 86.175 225.485 85.9 225.763C 85.625 226.041 85.042 226.748 84.605 227.334C 83.8 228.414 82.652 228.731 82.2 228C 82.064 227.78 81.513 227.6 80.976 227.6C 80.439 227.6 80 227.42 80 227.2C 80 226.98 79.46 226.8 78.8 226.8C 78.14 226.8 77.6 226.64 77.6 226.444C 77.6 226.248 77.015 225.989 76.3 225.868C 75.585 225.747 73.92 225.444 72.6 225.195C 67.224 224.181 49.891 225.032 47.105 226.447C 46.723 226.641 46.136 226.8 45.8 226.8C 45.464 226.8 44.877 226.968 44.495 227.174C 44.113 227.379 43.215 227.783 42.5 228.071C 41.785 228.36 41.2 228.731 41.2 228.898C 41.2 229.064 40.84 229.2 40.4 229.2C 39.96 229.2 39.6 229.38 39.6 229.6C 39.6 229.82 39.24 230 38.8 230C 38.36 230 38 230.18 38 230.4C 38 230.62 37.64 230.8 37.2 230.8C 36.76 230.8 36.4 230.98 36.4 231.2C 36.4 231.42 36.164 231.6 35.875 231.6C 35.587 231.6 34.964 231.96 34.492 232.4C 34.02 232.84 33.489 233.2 33.313 233.2C 32.634 233.2 24 241.162 24 241.787C 24 241.948 23.46 242.583 22.8 243.2C 22.14 243.817 21.6 244.519 21.6 244.76C 21.6 245.002 21.42 245.2 21.2 245.2C 20.98 245.2 20.8 245.388 20.8 245.617C 20.8 245.846 20.44 246.42 20 246.892C 19.56 247.364 19.2 247.987 19.2 248.275C 19.2 248.564 19.02 248.8 18.8 248.8C 18.58 248.8 18.4 249.16 18.4 249.6C 18.4 250.04 18.22 250.4 18 250.4C 17.78 250.4 17.6 250.76 17.6 251.2C 17.6 251.64 17.42 252 17.2 252C 16.98 252 16.8 252.36 16.8 252.8C 16.8 253.24 16.62 253.6 16.4 253.6C 16.18 253.6 16 253.96 16 254.4C 16 254.84 15.82 255.2 15.6 255.2C 15.38 255.2 15.2 255.549 15.2 255.976C 15.2 256.403 15.02 256.864 14.8 257C 14.58 257.136 14.4 257.687 14.4 258.224C 14.4 258.761 14.22 259.2 14 259.2C 13.78 259.2 13.6 259.819 13.6 260.576C 13.6 261.333 13.42 262.064 13.2 262.2C 12.98 262.336 12.8 263.247 12.8 264.224C 12.8 265.201 12.62 266 12.4 266C 12.145 266 12 269.267 12 275C 12 280.733 12.145 284 12.4 284C 12.62 284 12.8 284.799 12.8 285.776C 12.8 286.753 12.98 287.664 13.2 287.8C 13.42 287.936 13.6 288.566 13.6 289.2C 13.6 289.834 13.78 290.464 14 290.6C 14.22 290.736 14.4 291.276 14.4 291.8C 14.4 292.324 14.58 292.864 14.8 293C 15.02 293.136 15.2 293.597 15.2 294.024C 15.2 294.451 15.38 294.8 15.6 294.8C 15.82 294.8 16 295.16 16 295.6C 16 296.04 16.18 296.4 16.4 296.4C 16.62 296.4 16.8 296.76 16.8 297.2C 16.8 297.64 16.98 298 17.2 298C 17.42 298 17.6 298.36 17.6 298.8C 17.6 299.24 17.78 299.6 18 299.6C 18.22 299.6 18.4 299.96 18.4 300.4C 18.4 300.84 18.58 301.2 18.8 301.2C 19.02 301.2 19.2 301.47 19.2 301.8C 19.2 302.13 19.38 302.4 19.6 302.4C 19.82 302.4 20 302.67 20 303C 20 303.33 20.18 303.6 20.4 303.6C 20.62 303.6 20.8 303.87 20.8 304.2C 20.8 304.53 20.98 304.8 21.2 304.8C 21.42 304.8 21.6 304.998 21.6 305.24C 21.6 305.481 22.14 306.183 22.8 306.8C 23.46 307.417 24 308.052 24 308.213C 24 308.753 31.728 315.999 32.307 316.001C 32.468 316.001 33.23 316.541 34 317.2C 34.77 317.859 35.625 318.399 35.9 318.399C 36.175 318.4 36.4 318.58 36.4 318.8C 36.4 319.02 36.76 319.2 37.2 319.2C 37.64 319.2 38 319.38 38 319.6C 38 319.82 38.36 320 38.8 320C 39.24 320 39.6 320.18 39.6 320.4C 39.6 320.62 39.96 320.8 40.4 320.8C 40.84 320.8 41.2 320.98 41.2 321.2C 41.2 321.42 41.56 321.6 42 321.6C 42.44 321.6 42.8 321.78 42.8 322C 42.8 322.22 43.149 322.4 43.576 322.4C 44.003 322.4 44.464 322.58 44.6 322.8C 44.736 323.02 45.199 323.2 45.629 323.2C 46.059 323.2 46.723 323.364 47.105 323.565C 49.831 324.996 70.595 325.719 74.6 324.522C 75.48 324.259 77.055 323.815 78.1 323.535C 79.145 323.254 80 322.885 80 322.713C 80 322.541 80.54 322.4 81.2 322.4C 81.86 322.4 82.4 322.22 82.4 322C 82.4 321.78 82.76 321.6 83.2 321.6C 83.64 321.6 84 321.42 84 321.2C 84 320.98 84.36 320.8 84.8 320.8C 85.24 320.8 85.6 320.62 85.6 320.4C 85.6 320.18 85.96 320 86.4 320C 86.84 320 87.2 319.82 87.2 319.6C 87.2 319.38 87.56 319.2 88 319.2C 88.44 319.2 88.8 319.02 88.8 318.8C 88.8 318.58 89.07 318.4 89.4 318.4C 89.73 318.4 90 318.25 90 318.068C 90 317.885 90.495 317.48 91.1 317.168C 91.705 316.855 92.861 315.925 93.669 315.1C 94.476 314.275 95.335 313.6 95.576 313.6C 96.038 313.6 101.2 308.602 101.2 308.154C 101.2 308.011 101.53 307.603 101.933 307.247C 102.336 306.891 102.987 306.105 103.379 305.5C 104.074 304.429 106 303.914 106 304.8C 106 305.02 106.345 305.2 106.767 305.2C 107.188 305.2 107.593 305.342 107.667 305.515C 107.74 305.688 108.88 306.329 110.2 306.94C 111.52 307.551 112.913 308.22 113.295 308.426C 113.677 308.631 114.262 308.8 114.595 308.8C 114.928 308.8 115.2 308.98 115.2 309.2C 115.2 309.42 115.56 309.6 116 309.6C 116.44 309.6 116.8 309.78 116.8 310C 116.8 310.22 117.16 310.4 117.6 310.4C 118.04 310.4 118.4 310.58 118.4 310.8C 118.4 311.02 118.76 311.2 119.2 311.2C 119.64 311.2 120 311.38 120 311.6C 120 311.82 120.36 312 120.8 312C 121.24 312 121.6 312.18 121.6 312.4C 121.6 312.62 121.96 312.8 122.4 312.8C 122.84 312.8 123.2 312.98 123.2 313.2C 123.2 313.42 123.56 313.6 124 313.6C 124.44 313.6 124.8 313.78 124.8 314C 124.8 314.22 125.07 314.4 125.4 314.4C 125.73 314.4 126 314.58 126 314.8C 126 315.02 126.36 315.2 126.8 315.2C 127.24 315.2 127.6 315.38 127.6 315.6C 127.6 315.82 127.96 316 128.4 316C 128.84 316 129.2 316.18 129.2 316.4C 129.2 316.62 129.56 316.8 130 316.8C 130.44 316.8 130.8 316.98 130.8 317.2C 130.8 317.42 131.16 317.6 131.6 317.6C 132.04 317.6 132.4 317.78 132.4 318C 132.4 318.22 132.76 318.4 133.2 318.4C 133.64 318.4 134 318.58 134 318.8C 134 319.02 134.36 319.2 134.8 319.2C 135.24 319.2 135.6 319.38 135.6 319.6C 135.6 319.82 135.96 320 136.4 320C 136.84 320 137.2 320.18 137.2 320.4C 137.2 320.62 137.56 320.8 138 320.8C 138.44 320.8 138.8 320.98 138.8 321.2C 138.8 321.42 139.16 321.6 139.6 321.6C 140.04 321.6 140.4 321.78 140.4 322C 140.4 322.22 140.745 322.4 141.167 322.4C 141.588 322.4 141.993 322.542 142.067 322.716C 142.247 323.143 146.672 325.2 147.411 325.2C 147.735 325.2 148 325.38 148 325.6C 148 325.82 148.283 326 148.629 326C 148.974 326 149.514 326.257 149.829 326.571C 150.484 327.227 150.594 328.4 150 328.4C 149.745 328.4 149.6 331.659 149.6 337.376C 149.6 342.929 149.753 346.447 150 346.6C 150.22 346.736 150.4 347.647 150.4 348.624C 150.4 349.601 150.58 350.4 150.8 350.4C 151.02 350.4 151.2 351.019 151.2 351.776C 151.2 352.533 151.38 353.264 151.6 353.4C 151.82 353.536 152 354.087 152 354.624C 152 355.161 152.18 355.6 152.4 355.6C 152.62 355.6 152.8 355.834 152.8 356.12C 152.8 356.856 153.741 358.793 154.1 358.797C 154.265 358.799 154.4 359.16 154.4 359.6C 154.4 360.04 154.58 360.4 154.8 360.4C 155.02 360.4 155.2 360.76 155.2 361.2C 155.2 361.64 155.38 362 155.6 362C 155.82 362 156 362.36 156 362.8C 156 363.24 156.18 363.6 156.4 363.6C 156.62 363.6 156.8 363.836 156.8 364.125C 156.8 364.413 157.115 365.003 157.5 365.437C 157.885 365.87 158.538 366.825 158.951 367.56C 160.196 369.776 164.606 374.524 166.8 376.012C 167.57 376.535 168.491 377.286 168.847 377.681C 169.203 378.076 169.671 378.4 169.888 378.4C 170.104 378.4 170.846 378.94 171.537 379.6C 172.228 380.26 173.064 380.8 173.396 380.8C 173.728 380.8 174 380.946 174 381.125C 174 381.304 174.63 381.698 175.4 382C 176.17 382.302 176.8 382.696 176.8 382.875C 176.8 383.054 177.16 383.2 177.6 383.2C 178.04 383.2 178.4 383.38 178.4 383.6C 178.4 383.82 178.76 384 179.2 384C 179.64 384 180 384.18 180 384.4C 180 384.62 180.362 384.8 180.805 384.8C 181.248 384.8 181.968 384.98 182.405 385.2C 182.842 385.42 183.558 385.78 183.995 386C 184.432 386.22 185.332 386.4 185.995 386.4C 186.658 386.4 187.2 386.58 187.2 386.8C 187.2 387.02 188.1 387.2 189.2 387.2C 190.3 387.2 191.2 387.38 191.2 387.6C 191.2 387.855 194.4 388 200 388C 205.6 388 208.8 387.855 208.8 387.6C 208.8 387.38 209.7 387.2 210.8 387.2C 211.9 387.2 212.8 387.02 212.8 386.8C 212.8 386.58 213.342 386.4 214.005 386.4C 214.668 386.4 215.568 386.22 216.005 386C 216.442 385.78 217.158 385.42 217.595 385.2C 218.032 384.98 218.752 384.8 219.195 384.8C 219.638 384.8 220 384.62 220 384.4C 220 384.18 220.36 384 220.8 384C 221.24 384 221.6 383.82 221.6 383.6C 221.6 383.38 221.96 383.2 222.4 383.2C 222.84 383.2 223.2 383.054 223.2 382.875C 223.2 382.696 223.83 382.302 224.6 382C 225.37 381.698 226 381.304 226 381.125C 226 380.946 226.32 380.8 226.712 380.8C 227.103 380.8 227.683 380.44 228 380C 228.317 379.56 228.78 379.2 229.029 379.2C 229.278 379.2 230.003 378.703 230.641 378.096C 231.278 377.488 232.43 376.557 233.2 376.025C 235.532 374.416 239.777 369.831 241.049 367.548C 241.462 366.806 242.115 365.909 242.5 365.553C 242.885 365.197 243.2 364.612 243.2 364.253C 243.2 363.894 243.38 363.6 243.6 363.6C 243.82 363.6 244 363.24 244 362.8C 244 362.36 244.18 362 244.4 362C 244.62 362 244.8 361.64 244.8 361.2C 244.8 360.76 244.98 360.4 245.2 360.4C 245.42 360.4 245.6 360.04 245.6 359.6C 245.6 359.16 245.735 358.799 245.9 358.797C 246.259 358.793 247.2 356.856 247.2 356.12C 247.2 355.834 247.38 355.6 247.6 355.6C 247.82 355.6 248 355.06 248 354.4C 248 353.74 248.18 353.2 248.4 353.2C 248.62 353.2 248.8 352.57 248.8 351.8C 248.8 351.03 248.98 350.4 249.2 350.4C 249.42 350.4 249.6 349.601 249.6 348.624C 249.6 347.647 249.78 346.736 250 346.6C 250.545 346.263 250.545 328.4 250 328.4C 249.78 328.4 249.6 327.59 249.6 326.6C 249.6 325.61 249.42 324.8 249.2 324.8C 248.98 324.8 248.8 324.08 248.8 323.2C 248.8 322.32 248.62 321.6 248.4 321.6C 248.18 321.6 248 321.251 248 320.824C 248 320.397 247.82 319.936 247.6 319.8C 247.38 319.664 247.2 319.113 247.2 318.576C 247.2 318.039 247.02 317.6 246.8 317.6C 246.58 317.6 246.4 317.24 246.4 316.8C 246.4 316.36 246.22 316 246 316C 245.78 316 245.6 315.64 245.6 315.2C 245.6 314.76 245.42 314.4 245.2 314.4C 244.98 314.4 244.8 314.04 244.8 313.6C 244.8 313.16 244.62 312.8 244.4 312.8C 244.18 312.8 244 312.44 244 312C 244 311.56 243.82 311.2 243.6 311.2C 243.38 311.2 243.2 310.945 243.2 310.633C 243.2 310.322 242.993 309.998 242.739 309.913C 242.486 309.829 245.411 306.596 249.239 302.73C 253.068 298.864 257.1 294.668 258.2 293.407C 259.3 292.146 262.99 288.283 266.4 284.822C 269.81 281.36 273.86 277.124 275.4 275.407C 276.94 273.69 280.81 269.632 284 266.388C 287.19 263.144 291.06 259.099 292.6 257.398C 301.503 247.565 308.009 241.47 309.023 242.013C 309.561 242.3 310 242.685 310 242.868C 310 243.05 310.27 243.2 310.6 243.2C 310.93 243.2 311.2 243.38 311.2 243.6C 311.2 243.82 311.56 244 312 244C 312.44 244 312.8 244.18 312.8 244.4C 312.8 244.62 313.16 244.8 313.6 244.8C 314.04 244.8 314.4 244.98 314.4 245.2C 314.4 245.42 314.76 245.6 315.2 245.6C 315.64 245.6 316 245.78 316 246C 316 246.22 316.36 246.4 316.8 246.4C 317.24 246.4 317.6 246.58 317.6 246.8C 317.6 247.02 318.14 247.2 318.8 247.2C 319.46 247.2 320 247.38 320 247.6C 320 247.82 320.439 248 320.976 248C 321.513 248 322.064 248.18 322.2 248.4C 322.336 248.62 322.977 248.8 323.624 248.8C 324.271 248.8 324.8 248.98 324.8 249.2C 324.8 249.42 325.61 249.6 326.6 249.6C 327.59 249.6 328.4 249.78 328.4 250C 328.4 250.255 331.667 250.4 337.4 250.4C 343.133 250.4 346.4 250.255 346.4 250C 346.4 249.78 347.3 249.6 348.4 249.6C 349.5 249.6 350.4 249.42 350.4 249.2C 350.4 248.98 351.03 248.8 351.8 248.8C 352.57 248.8 353.2 248.62 353.2 248.4C 353.2 248.18 353.74 248 354.4 248C 355.06 248 355.6 247.82 355.6 247.6C 355.6 247.38 355.834 247.2 356.12 247.2C 356.856 247.2 358.793 246.259 358.797 245.9C 358.799 245.735 359.16 245.6 359.6 245.6C 360.04 245.6 360.4 245.42 360.4 245.2C 360.4 244.98 360.76 244.8 361.2 244.8C 361.64 244.8 362 244.62 362 244.4C 362 244.18 362.36 244 362.8 244C 363.24 244 363.6 243.82 363.6 243.6C 363.6 243.38 363.894 243.2 364.253 243.2C 364.612 243.2 365.197 242.885 365.553 242.5C 365.909 242.115 366.806 241.462 367.548 241.049C 369.745 239.825 374.488 235.434 376.027 233.2C 376.557 232.43 377.488 231.278 378.096 230.641C 378.703 230.003 379.2 229.278 379.2 229.029C 379.2 228.78 379.56 228.317 380 228C 380.44 227.683 380.8 227.103 380.8 226.712C 380.8 226.32 380.946 226 381.125 226C 381.304 226 381.698 225.37 382 224.6C 382.302 223.83 382.696 223.2 382.875 223.2C 383.054 223.2 383.2 222.84 383.2 222.4C 383.2 221.96 383.38 221.6 383.6 221.6C 383.82 221.6 384 221.24 384 220.8C 384 220.36 384.18 220 384.4 220C 384.62 220 384.8 219.638 384.8 219.195C 384.8 218.752 384.98 218.032 385.2 217.595C 385.42 217.158 385.78 216.442 386 216.005C 386.22 215.568 386.4 214.668 386.4 214.005C 386.4 213.342 386.58 212.8 386.8 212.8C 387.02 212.8 387.2 212.001 387.2 211.024C 387.2 210.047 387.38 209.136 387.6 209C 387.847 208.847 388 205.404 388 200C 388 194.596 387.847 191.153 387.6 191C 387.38 190.864 387.2 189.953 387.2 188.976C 387.2 187.999 387.02 187.2 386.8 187.2C 386.58 187.2 386.4 186.658 386.4 185.995C 386.4 185.332 386.22 184.432 386 183.995C 385.78 183.558 385.42 182.842 385.2 182.405C 384.98 181.968 384.8 181.248 384.8 180.805C 384.8 180.362 384.62 180 384.4 180C 384.18 180 384 179.64 384 179.2C 384 178.76 383.82 178.4 383.6 178.4C 383.38 178.4 383.2 178.04 383.2 177.6C 383.2 177.16 383.054 176.8 382.875 176.8C 382.696 176.8 382.302 176.17 382 175.4C 381.698 174.63 381.304 174 381.125 174C 380.946 174 380.8 173.68 380.8 173.288C 380.8 172.897 380.44 172.317 380 172C 379.56 171.683 379.2 171.22 379.2 170.971C 379.2 170.722 378.703 169.997 378.096 169.359C 377.488 168.722 376.557 167.57 376.025 166.8C 374.426 164.483 369.845 160.235 367.56 158.951C 366.825 158.538 365.87 157.885 365.437 157.5C 365.003 157.115 364.413 156.8 364.125 156.8C 363.836 156.8 363.6 156.62 363.6 156.4C 363.6 156.18 363.24 156 362.8 156C 362.36 156 362 155.82 362 155.6C 362 155.38 361.64 155.2 361.2 155.2C 360.76 155.2 360.4 155.02 360.4 154.8C 360.4 154.58 360.04 154.4 359.6 154.4C 359.16 154.4 358.799 154.265 358.797 154.1C 358.793 153.741 356.856 152.8 356.12 152.8C 355.834 152.8 355.6 152.62 355.6 152.4C 355.6 152.18 355.161 152 354.624 152C 354.087 152 353.536 151.82 353.4 151.6C 353.264 151.38 352.533 151.2 351.776 151.2C 351.019 151.2 350.4 151.02 350.4 150.8C 350.4 150.58 349.601 150.4 348.624 150.4C 347.647 150.4 346.736 150.22 346.6 150C 346.263 149.455 328.4 149.455 328.4 150C 328.4 150.22 327.59 150.4 326.6 150.4C 325.61 150.4 324.8 150.58 324.8 150.8C 324.8 151.02 324.271 151.2 323.624 151.2C 322.977 151.2 322.336 151.38 322.2 151.6C 322.064 151.82 321.513 152 320.976 152C 320.439 152 320 152.18 320 152.4C 320 152.62 319.46 152.8 318.8 152.8C 318.14 152.8 317.6 152.98 317.6 153.2C 317.6 153.42 317.24 153.6 316.8 153.6C 316.36 153.6 316 153.78 316 154C 316 154.22 315.64 154.4 315.2 154.4C 314.76 154.4 314.4 154.58 314.4 154.8C 314.4 155.02 314.04 155.2 313.6 155.2C 313.16 155.2 312.8 155.38 312.8 155.6C 312.8 155.82 312.44 156 312 156C 311.56 156 311.2 156.18 311.2 156.4C 311.2 156.62 310.945 156.8 310.633 156.8C 310.322 156.8 310.007 156.942 309.933 157.114C 309.86 157.287 309.217 157.839 308.503 158.339L308.503 158.339L307.207 159.25L273.978 126.022L240.75 92.794L241.661 91.497C 242.161 90.784 242.713 90.14 242.886 90.067C 243.058 89.993 243.2 89.678 243.2 89.367C 243.2 89.055 243.38 88.8 243.6 88.8C 243.82 88.8 244 88.44 244 88C 244 87.56 244.18 87.2 244.4 87.2C 244.62 87.2 244.8 86.84 244.8 86.4C 244.8 85.96 244.98 85.6 245.2 85.6C 245.42 85.6 245.6 85.24 245.6 84.8C 245.6 84.36 245.78 84 246 84C 246.22 84 246.4 83.64 246.4 83.2C 246.4 82.76 246.58 82.4 246.8 82.4C 247.02 82.4 247.2 81.86 247.2 81.2C 247.2 80.54 247.38 80 247.6 80C 247.82 80 248 79.46 248 78.8C 248 78.14 248.18 77.6 248.4 77.6C 248.62 77.6 248.8 77.06 248.8 76.4C 248.8 75.74 248.98 75.2 249.2 75.2C 249.42 75.2 249.6 74.39 249.6 73.4C 249.6 72.41 249.78 71.6 250 71.6C 250.255 71.6 250.4 68.341 250.4 62.624C 250.4 57.071 250.247 53.553 250 53.4C 249.78 53.264 249.6 52.353 249.6 51.376C 249.6 50.399 249.42 49.6 249.2 49.6C 248.98 49.6 248.8 48.981 248.8 48.224C 248.8 47.467 248.62 46.736 248.4 46.6C 248.18 46.464 248 45.913 248 45.376C 248 44.839 247.82 44.4 247.6 44.4C 247.38 44.4 247.2 44.166 247.2 43.88C 247.2 43.144 246.259 41.207 245.9 41.203C 245.735 41.201 245.6 40.84 245.6 40.4C 245.6 39.96 245.42 39.6 245.2 39.6C 244.98 39.6 244.8 39.24 244.8 38.8C 244.8 38.36 244.62 38 244.4 38C 244.18 38 244 37.64 244 37.2C 244 36.76 243.82 36.4 243.6 36.4C 243.38 36.4 243.2 36.106 243.2 35.747C 243.2 35.388 242.885 34.803 242.5 34.447C 242.115 34.091 241.462 33.194 241.049 32.452C 239.874 30.343 234.075 24 233.321 24C 233.127 24 232.172 23.28 231.2 22.4C 230.228 21.52 229.24 20.8 229.004 20.8C 228.769 20.8 228.317 20.44 228 20C 227.683 19.56 227.103 19.2 226.712 19.2C 226.32 19.2 226 19.054 226 18.875C 226 18.696 225.37 18.302 224.6 18C 223.83 17.698 223.2 17.304 223.2 17.125C 223.2 16.946 222.84 16.8 222.4 16.8C 221.96 16.8 221.6 16.62 221.6 16.4C 221.6 16.18 221.24 16 220.8 16C 220.36 16 220 15.82 220 15.6C 220 15.38 219.651 15.2 219.224 15.2C 218.797 15.2 218.336 15.02 218.2 14.8C 218.064 14.58 217.524 14.4 217 14.4C 216.476 14.4 215.936 14.22 215.8 14C 215.664 13.78 214.933 13.6 214.176 13.6C 213.419 13.6 212.8 13.42 212.8 13.2C 212.8 12.98 212.001 12.8 211.024 12.8C 210.047 12.8 209.136 12.62 209 12.4C 208.665 11.859 191.335 11.859 191 12.4M209.931 26.365C 234.642 33.573 245.258 62.155 231.089 83.33C 214.166 108.62 175.818 104.034 164.786 75.4C 162.408 69.23 161.813 58.117 163.607 53.412C 163.777 52.965 164.156 51.79 164.449 50.8C 168.121 38.373 180.079 28.116 194 25.454C 196.716 24.935 207.054 25.526 209.931 26.365M72.4 76.371C 94.962 82.849 106.326 107.708 96.275 128.6C 87.823 146.168 67.313 154.395 49.2 147.483C 23.733 137.765 16.914 104.715 36.464 85.752C 42.084 80.3 48.565 76.952 56.4 75.454C 59.12 74.934 69.457 75.526 72.4 76.371M155.429 86.971C 155.743 87.286 156 87.826 156 88.171C 156 88.517 156.18 88.8 156.4 88.8C 156.62 88.8 156.8 89.07 156.8 89.4C 156.8 89.73 156.95 90 157.132 90C 157.315 90 157.72 90.495 158.032 91.1C 158.716 92.425 158.864 92.627 160.399 94.342C 161.059 95.081 161.6 95.824 161.6 95.995C 161.6 96.166 162.659 97.378 163.953 98.688L163.953 98.688L166.307 101.071L165.653 102.235C 165.294 102.876 164.91 103.49 164.799 103.6C 164.689 103.71 164.344 104.295 164.032 104.9C 163.72 105.505 163.315 106 163.132 106C 162.95 106 162.8 106.32 162.8 106.712C 162.8 107.103 162.44 107.683 162 108C 161.56 108.317 161.2 108.724 161.2 108.904C 161.2 109.084 160.57 110.167 159.8 111.31C 159.03 112.454 158.4 113.617 158.4 113.895C 158.4 114.173 158.25 114.4 158.068 114.4C 157.885 114.4 157.48 114.895 157.168 115.5C 156.855 116.105 156.285 116.949 155.9 117.375C 155.515 117.802 155.2 118.387 155.2 118.675C 155.2 118.964 155.02 119.2 154.8 119.2C 154.58 119.2 154.4 119.52 154.4 119.912C 154.4 120.303 154.04 120.883 153.6 121.2C 153.16 121.517 152.8 122.031 152.8 122.341C 152.8 122.652 152.484 123.197 152.097 123.553C 151.711 123.909 151.14 124.695 150.83 125.3C 150.519 125.905 150.115 126.4 149.932 126.4C 149.75 126.4 149.6 126.67 149.6 127C 149.6 127.33 149.42 127.6 149.2 127.6C 148.98 127.6 148.8 127.836 148.8 128.125C 148.8 128.413 148.485 128.998 148.1 129.425C 147.715 129.851 147.145 130.695 146.832 131.3C 146.52 131.905 146.115 132.4 145.932 132.4C 145.75 132.4 145.6 132.678 145.6 133.017C 145.6 133.356 145.24 134.02 144.8 134.492C 144.36 134.964 144 135.587 144 135.875C 144 136.164 143.847 136.4 143.661 136.4C 143.474 136.4 142.997 137.12 142.6 138C 142.203 138.88 141.726 139.6 141.539 139.6C 141.353 139.6 141.2 139.878 141.2 140.218C 141.2 142.174 138.076 143.037 136.562 141.5C 136.4 141.335 135.937 141.2 135.533 141.2C 135.13 141.2 134.8 141.02 134.8 140.8C 134.8 140.58 134.44 140.4 134 140.4C 133.56 140.4 133.2 140.22 133.2 140C 133.2 139.78 132.84 139.6 132.4 139.6C 131.96 139.6 131.6 139.42 131.6 139.2C 131.6 138.98 131.24 138.8 130.8 138.8C 130.36 138.8 130 138.62 130 138.4C 130 138.18 129.64 138 129.2 138C 128.76 138 128.4 137.82 128.4 137.6C 128.4 137.38 128.04 137.2 127.6 137.2C 127.16 137.2 126.8 137.02 126.8 136.8C 126.8 136.58 126.44 136.4 126 136.4C 125.56 136.4 125.2 136.22 125.2 136C 125.2 135.78 124.93 135.6 124.6 135.6C 124.27 135.6 124 135.42 124 135.2C 124 134.98 123.64 134.8 123.2 134.8C 122.76 134.8 122.4 134.62 122.4 134.4C 122.4 134.18 122.04 134 121.6 134C 121.16 134 120.8 133.82 120.8 133.6C 120.8 133.38 120.44 133.2 120 133.2C 119.56 133.2 119.2 133.02 119.2 132.8C 119.2 132.58 118.84 132.4 118.4 132.4C 117.96 132.4 117.6 132.22 117.6 132C 117.6 131.78 117.24 131.6 116.8 131.6C 116.36 131.6 116 131.42 116 131.2C 116 130.98 115.64 130.8 115.2 130.8C 114.76 130.8 114.4 130.62 114.4 130.4C 114.4 130.18 114.04 130 113.6 130C 113.16 130 112.8 129.82 112.8 129.6C 112.8 129.38 112.517 129.2 112.171 129.2C 111.295 129.2 110.043 127.919 110.704 127.699C 110.977 127.608 111.2 127.008 111.2 126.367C 111.2 125.725 111.38 125.2 111.6 125.2C 111.82 125.2 112 124.39 112 123.4C 112 122.41 112.18 121.6 112.4 121.6C 112.655 121.6 112.8 118.333 112.8 112.6C 112.8 106.867 112.655 103.6 112.4 103.6C 112.18 103.6 112 103.24 112 102.8C 112 102.267 112.267 102 112.8 102C 113.24 102 113.6 101.82 113.6 101.6C 113.6 101.38 114.14 101.2 114.8 101.2C 115.46 101.2 116 101.02 116 100.8C 116 100.58 116.349 100.4 116.776 100.4C 117.203 100.4 117.664 100.22 117.8 100C 117.936 99.78 118.487 99.6 119.024 99.6C 119.561 99.6 120 99.42 120 99.2C 120 98.98 120.54 98.8 121.2 98.8C 121.86 98.8 122.4 98.62 122.4 98.4C 122.4 98.18 122.85 98 123.4 98C 123.95 98 124.4 97.82 124.4 97.6C 124.4 97.38 124.749 97.2 125.176 97.2C 125.603 97.2 126.064 97.02 126.2 96.8C 126.336 96.58 126.887 96.4 127.424 96.4C 127.961 96.4 128.4 96.22 128.4 96C 128.4 95.78 128.94 95.6 129.6 95.6C 130.26 95.6 130.8 95.42 130.8 95.2C 130.8 94.98 131.34 94.8 132 94.8C 132.66 94.8 133.2 94.62 133.2 94.4C 133.2 94.18 133.549 94 133.976 94C 134.403 94 134.864 93.82 135 93.6C 135.136 93.38 135.687 93.2 136.224 93.2C 136.761 93.2 137.2 93.02 137.2 92.8C 137.2 92.58 137.74 92.4 138.4 92.4C 139.06 92.4 139.6 92.24 139.6 92.045C 139.6 91.85 140.406 91.57 141.391 91.422C 142.376 91.275 143.286 90.984 143.414 90.777C 143.542 90.57 144.087 90.4 144.624 90.4C 145.161 90.4 145.6 90.22 145.6 90C 145.6 89.78 146.039 89.6 146.576 89.6C 147.113 89.6 147.642 89.456 147.751 89.279C 147.86 89.103 148.861 88.71 149.975 88.407C 151.089 88.104 152 87.708 152 87.528C 152 87.347 152.54 87.2 153.2 87.2C 153.86 87.2 154.4 87.02 154.4 86.8C 154.4 86.242 154.758 86.301 155.429 86.971M263.561 136.439C 281.622 154.5 296.4 169.485 296.4 169.739C 296.399 169.993 295.954 170.717 295.411 171.349C 294.867 171.981 294.316 172.836 294.184 173.249C 294.053 173.662 293.778 174 293.573 174C 293.368 174 293.2 174.36 293.2 174.8C 293.2 175.24 293.028 175.6 292.818 175.6C 292.608 175.6 292.318 176.23 292.174 177C 292.029 177.77 291.751 178.4 291.555 178.4C 291.36 178.4 291.2 178.76 291.2 179.2C 291.2 179.64 291.02 180 290.8 180C 290.58 180 290.4 180.54 290.4 181.2C 290.4 181.86 290.22 182.4 290 182.4C 289.78 182.4 289.6 182.94 289.6 183.6C 289.6 184.26 289.42 184.8 289.2 184.8C 288.98 184.8 288.8 185.16 288.8 185.6C 288.8 186.187 288.533 186.4 287.8 186.4C 287.25 186.4 286.8 186.22 286.8 186C 286.8 185.769 285.533 185.6 283.8 185.6C 282.067 185.6 280.8 185.431 280.8 185.2C 280.8 184.971 279.6 184.8 278 184.8C 276.4 184.8 275.2 184.629 275.2 184.4C 275.2 184.175 274.075 184 272.624 184C 271.207 184 269.936 183.82 269.8 183.6C 269.664 183.38 268.314 183.2 266.8 183.2C 265.286 183.2 263.936 183.02 263.8 182.8C 263.664 182.58 262.303 182.4 260.776 182.4C 259.192 182.4 258 182.228 258 182C 258 181.775 256.875 181.6 255.424 181.6C 254.007 181.6 252.736 181.42 252.6 181.2C 252.464 180.98 251.913 180.8 251.376 180.8C 250.404 180.8 250.4 180.785 250.4 176.624C 250.4 174.271 250.225 172.339 250 172.2C 249.78 172.064 249.6 171.153 249.6 170.176C 249.6 169.199 249.42 168.4 249.2 168.4C 248.98 168.4 248.8 167.781 248.8 167.024C 248.8 166.267 248.62 165.536 248.4 165.4C 248.18 165.264 248 164.713 248 164.176C 248 163.639 247.82 163.2 247.6 163.2C 247.38 163.2 247.2 162.75 247.2 162.2C 247.2 161.65 247.02 161.2 246.8 161.2C 246.58 161.2 246.4 160.84 246.4 160.4C 246.4 159.96 246.22 159.6 246 159.6C 245.78 159.6 245.6 159.33 245.6 159C 245.6 158.67 245.42 158.4 245.2 158.4C 244.98 158.4 244.8 158.04 244.8 157.6C 244.8 157.16 244.62 156.8 244.4 156.8C 244.18 156.8 244 156.44 244 156C 244 155.56 243.82 155.2 243.6 155.2C 243.38 155.2 243.2 154.906 243.2 154.547C 243.2 154.188 242.885 153.603 242.5 153.247C 242.115 152.891 241.462 151.994 241.049 151.252C 239.825 149.055 233.681 142.4 232.877 142.4C 232.67 142.4 231.813 141.77 230.972 141C 230.131 140.23 229.249 139.6 229.01 139.6C 228.772 139.6 228.317 139.24 228 138.8C 227.683 138.36 227.103 138 226.712 138C 226.32 138 226 137.854 226 137.675C 226 137.496 225.37 137.102 224.6 136.8C 223.83 136.498 223.2 136.104 223.2 135.925C 223.2 135.746 222.84 135.6 222.4 135.6C 221.96 135.6 221.6 135.42 221.6 135.2C 221.6 134.98 221.24 134.8 220.8 134.8C 220.36 134.8 220 134.62 220 134.4C 220 134.18 219.651 134 219.224 134C 218.797 134 218.336 133.82 218.2 133.6C 218.064 133.38 217.524 133.2 217 133.2C 216.476 133.2 215.936 133.02 215.8 132.8C 215.664 132.58 214.933 132.4 214.176 132.4C 213.419 132.4 212.8 132.22 212.8 132C 212.8 131.78 212.001 131.6 211.024 131.6C 210.047 131.6 209.136 131.42 209 131.2C 208.847 130.953 205.396 130.8 199.976 130.8C 194.392 130.8 191.2 130.945 191.2 131.2C 191.2 131.42 190.3 131.6 189.2 131.6C 188.1 131.6 187.2 131.78 187.2 132C 187.2 132.22 186.658 132.4 185.995 132.4C 185.332 132.4 184.432 132.58 183.995 132.8C 183.558 133.02 182.842 133.38 182.405 133.6C 181.968 133.82 181.248 134 180.805 134C 180.362 134 180 134.18 180 134.4C 180 134.62 179.64 134.8 179.2 134.8C 178.76 134.8 178.4 134.98 178.4 135.2C 178.4 135.42 178.04 135.6 177.6 135.6C 177.16 135.6 176.8 135.746 176.8 135.925C 176.8 136.104 176.17 136.498 175.4 136.8C 174.63 137.102 174 137.496 174 137.675C 174 137.854 173.68 138 173.288 138C 172.897 138 172.317 138.36 172 138.8C 171.683 139.24 171.187 139.6 170.898 139.6C 170.61 139.6 169.743 140.23 168.973 141C 168.203 141.77 167.382 142.4 167.148 142.4C 166.642 142.4 161.2 147.583 161.2 148.065C 161.2 148.248 160.57 149.066 159.8 149.882C 159.03 150.699 158.386 151.734 158.368 152.183C 158.351 152.633 158.246 152.775 158.135 152.5C 158.024 152.225 157.678 152 157.367 152C 157.055 152 156.8 151.82 156.8 151.6C 156.8 151.38 156.44 151.2 156 151.2C 155.56 151.2 155.2 151.02 155.2 150.8C 155.2 150.58 154.917 150.4 154.571 150.4C 152.962 150.4 152.313 148.528 153.6 147.6C 154.04 147.283 154.4 146.786 154.4 146.495C 154.4 146.204 154.76 145.58 155.2 145.108C 155.64 144.636 156 144.013 156 143.725C 156 143.436 156.153 143.2 156.339 143.2C 156.526 143.2 157.003 142.48 157.4 141.6C 157.797 140.72 158.274 140 158.461 140C 158.647 140 158.8 139.73 158.8 139.4C 158.8 139.07 158.98 138.8 159.2 138.8C 159.42 138.8 159.6 138.564 159.6 138.275C 159.6 137.987 159.96 137.364 160.4 136.892C 160.84 136.42 161.2 135.796 161.2 135.505C 161.2 135.214 161.56 134.717 162 134.4C 162.44 134.083 162.8 133.543 162.8 133.2C 162.8 132.857 163.16 132.317 163.6 132C 164.04 131.683 164.4 131.143 164.4 130.8C 164.4 130.457 164.76 129.917 165.2 129.6C 165.64 129.283 166 128.743 166 128.4C 166 128.057 166.36 127.517 166.8 127.2C 167.24 126.883 167.6 126.386 167.6 126.095C 167.6 125.804 167.931 125.211 168.336 124.777C 168.741 124.342 169.326 123.495 169.636 122.893C 169.946 122.292 170.515 121.451 170.9 121.025C 171.285 120.598 171.6 120.096 171.6 119.908C 171.6 119.72 171.96 119.18 172.4 118.708C 172.84 118.236 173.2 117.613 173.2 117.325C 173.2 117.036 173.353 116.8 173.539 116.8C 173.726 116.8 174.203 116.08 174.6 115.2C 174.997 114.32 175.474 113.6 175.661 113.6C 175.847 113.6 176 113.24 176 112.8C 176 112.36 176.15 112 176.332 112C 176.515 112 176.92 111.505 177.232 110.9C 178.197 109.03 180 107.923 180 109.2C 180 109.42 180.54 109.6 181.2 109.6C 181.86 109.6 182.4 109.78 182.4 110C 182.4 110.22 182.94 110.4 183.6 110.4C 184.26 110.4 184.8 110.58 184.8 110.8C 184.8 111.02 185.34 111.2 186 111.2C 186.66 111.2 187.2 111.38 187.2 111.6C 187.2 111.82 188.1 112 189.2 112C 190.3 112 191.2 112.18 191.2 112.4C 191.2 112.655 194.4 112.8 200 112.8C 205.6 112.8 208.8 112.655 208.8 112.4C 208.8 112.18 209.7 112 210.8 112C 211.9 112 212.8 111.82 212.8 111.6C 212.8 111.38 213.34 111.2 214 111.2C 214.66 111.2 215.2 111.02 215.2 110.8C 215.2 110.58 215.74 110.4 216.4 110.4C 217.06 110.4 217.6 110.22 217.6 110C 217.6 109.78 218.14 109.6 218.8 109.6C 219.46 109.6 220 109.42 220 109.2C 220 108.98 220.36 108.8 220.8 108.8C 221.24 108.8 221.6 108.64 221.6 108.445C 221.6 108.249 222.23 107.971 223 107.826C 223.77 107.682 224.4 107.413 224.4 107.229C 224.4 107.044 224.715 106.793 225.1 106.671C 226.009 106.383 227.953 105.188 228.958 104.3C 229.394 103.915 229.969 103.6 230.237 103.6C 230.504 103.6 245.5 118.378 263.561 136.439M106 142C 106 142.22 106.36 142.4 106.8 142.4C 107.24 142.4 107.6 142.546 107.6 142.725C 107.6 142.904 108.23 143.298 109 143.6C 109.77 143.902 110.4 144.296 110.4 144.475C 110.4 144.654 110.76 144.8 111.2 144.8C 111.64 144.8 112 144.98 112 145.2C 112 145.42 112.36 145.6 112.8 145.6C 113.24 145.6 113.6 145.78 113.6 146C 113.6 146.22 113.96 146.4 114.4 146.4C 114.84 146.4 115.2 146.58 115.2 146.8C 115.2 147.02 115.56 147.2 116 147.2C 116.44 147.2 116.8 147.38 116.8 147.6C 116.8 147.82 117.16 148 117.6 148C 118.04 148 118.4 148.18 118.4 148.4C 118.4 148.62 118.76 148.8 119.2 148.8C 119.64 148.8 120 148.98 120 149.2C 120 149.42 120.36 149.6 120.8 149.6C 121.24 149.6 121.6 149.78 121.6 150C 121.6 150.22 121.96 150.4 122.4 150.4C 122.84 150.4 123.2 150.58 123.2 150.8C 123.2 151.02 123.56 151.2 124 151.2C 124.44 151.2 124.8 151.346 124.8 151.525C 124.8 151.704 125.43 152.098 126.2 152.4C 126.97 152.702 127.6 153.096 127.6 153.275C 127.6 153.454 127.96 153.6 128.4 153.6C 128.84 153.6 129.2 153.78 129.2 154C 129.2 154.22 129.56 154.4 130 154.4C 131.108 154.4 131.227 156.03 130.195 157.062C 129.897 157.361 129.538 157.964 129.399 158.402C 129.26 158.841 128.978 159.2 128.773 159.2C 128.568 159.2 128.4 159.47 128.4 159.8C 128.4 160.13 128.25 160.4 128.068 160.4C 127.885 160.4 127.48 160.895 127.168 161.5C 126.507 162.78 124.991 165.185 124.406 165.883C 124.183 166.149 124 166.604 124 166.895C 124 167.186 123.64 167.683 123.2 168C 122.76 168.317 122.4 168.814 122.4 169.105C 122.4 169.396 122.04 170.02 121.6 170.492C 121.16 170.964 120.8 171.587 120.8 171.875C 120.8 172.164 120.62 172.4 120.4 172.4C 120.18 172.4 120 172.636 120 172.925C 120 173.213 119.64 173.836 119.2 174.308C 118.76 174.78 118.4 175.354 118.4 175.583C 118.4 175.812 118.25 176 118.068 176C 117.885 176 117.48 176.495 117.168 177.1C 116.855 177.705 116.285 178.549 115.9 178.975C 115.515 179.402 115.2 179.904 115.2 180.092C 115.2 180.28 114.84 180.82 114.4 181.292C 113.96 181.764 113.6 182.387 113.6 182.675C 113.6 182.964 113.497 183.2 113.371 183.2C 112.972 183.2 112 182.075 112 181.612C 112 181.367 111.64 180.78 111.2 180.308C 110.76 179.836 110.4 179.213 110.4 178.925C 110.4 178.636 110.22 178.4 110 178.4C 109.78 178.4 109.6 178.04 109.6 177.6C 109.6 177.16 109.42 176.8 109.2 176.8C 108.98 176.8 108.8 176.53 108.8 176.2C 108.8 175.87 108.665 175.6 108.5 175.599C 108.335 175.599 107.674 174.519 107.03 173.199C 106.387 171.88 105.712 170.8 105.53 170.8C 105.349 170.8 105.2 170.44 105.2 170C 105.2 169.56 105.02 169.2 104.8 169.2C 104.58 169.2 104.4 168.964 104.4 168.675C 104.4 168.387 104.04 167.764 103.6 167.292C 103.16 166.82 102.8 166.156 102.8 165.817C 102.8 165.478 102.62 165.2 102.4 165.2C 102.18 165.2 102 164.964 102 164.675C 102 164.387 101.64 163.764 101.2 163.292C 100.76 162.82 100.4 162.156 100.4 161.817C 100.4 161.478 100.22 161.2 100 161.2C 99.78 161.2 99.6 161.012 99.6 160.783C 99.6 160.554 99.24 159.98 98.8 159.508C 98.36 159.036 98 158.413 98 158.125C 98 157.836 97.82 157.6 97.6 157.6C 97.38 157.6 97.2 157.322 97.2 156.983C 97.2 156.644 96.84 155.98 96.4 155.508C 95.96 155.036 95.6 154.413 95.6 154.125C 95.6 153.836 95.42 153.6 95.2 153.6C 94.371 153.6 94.767 151.264 95.642 150.987C 96.565 150.694 101.2 146.161 101.2 145.552C 101.2 145.344 101.83 144.543 102.6 143.773C 103.37 143.003 104 142.199 104 141.987C 104 141.774 104.45 141.6 105 141.6C 105.55 141.6 106 141.78 106 142M203.932 144.031C 216.882 145.474 229.606 154.608 233.977 165.6C 234.284 166.37 234.651 167.18 234.795 167.4C 234.938 167.62 235.289 168.61 235.574 169.6C 235.859 170.59 236.238 171.85 236.415 172.4C 240.006 183.533 235.165 199.681 225.573 208.561C 221.927 211.937 214.672 216.379 212.78 216.395C 212.439 216.398 211.989 216.551 211.78 216.736C 211.42 217.053 209.718 217.462 204.88 218.392C 202.168 218.914 197.832 218.914 195.12 218.392C 190.282 217.462 188.58 217.053 188.22 216.736C 188.011 216.551 187.588 216.4 187.281 216.4C 183.492 216.4 172.989 208.226 168.874 202.075C 163.219 193.62 160.87 180.47 163.572 172.4C 163.757 171.85 164.142 170.59 164.429 169.6C 168.201 156.589 180.528 146.355 195 144.217C 199.68 143.525 199.439 143.53 203.932 144.031M144.8 161.6C 144.8 161.82 145.16 162 145.6 162C 146.04 162 146.4 162.18 146.4 162.4C 146.4 162.62 146.76 162.8 147.2 162.8C 147.64 162.8 148 162.98 148 163.2C 148 163.42 148.36 163.6 148.8 163.6C 149.24 163.6 149.6 163.78 149.6 164C 149.6 164.22 149.883 164.4 150.229 164.4C 151.105 164.4 152.357 165.681 151.696 165.901C 151.423 165.992 151.2 166.592 151.2 167.233C 151.2 167.875 151.02 168.4 150.8 168.4C 150.58 168.4 150.4 169.3 150.4 170.4C 150.4 171.5 150.22 172.4 150 172.4C 149.745 172.4 149.6 175.592 149.6 181.176C 149.6 186.596 149.753 190.047 150 190.2C 150.22 190.336 150.4 191.247 150.4 192.224C 150.4 193.201 150.58 194 150.8 194C 151.02 194 151.203 194.405 151.206 194.9C 151.213 195.876 152.082 198.615 152.526 199.059C 152.677 199.21 152.8 199.753 152.8 200.267C 152.8 200.78 152.98 201.2 153.2 201.2C 153.42 201.2 153.6 201.56 153.6 202C 153.6 202.44 153.78 202.8 154 202.8C 154.22 202.8 154.4 203.16 154.4 203.6C 154.4 204.04 154.58 204.4 154.8 204.4C 155.02 204.4 155.2 204.76 155.2 205.2C 155.2 205.64 155.336 206 155.502 206C 155.669 206 156.06 206.585 156.372 207.3C 156.684 208.015 157.268 208.891 157.67 209.247C 158.071 209.603 158.4 210.143 158.4 210.447C 158.4 210.751 159.12 211.788 160 212.751C 160.88 213.713 161.605 214.613 161.611 214.751C 161.631 215.216 164.594 218.217 166 219.195C 166.77 219.731 167.877 220.671 168.46 221.285C 169.044 221.898 169.743 222.4 170.014 222.4C 170.284 222.4 170.797 222.723 171.153 223.117C 171.509 223.512 172.88 224.367 174.2 225.017C 175.52 225.668 176.66 226.335 176.733 226.5C 176.807 226.665 177.212 226.8 177.633 226.8C 178.055 226.8 178.4 226.98 178.4 227.2C 178.4 227.42 178.76 227.6 179.2 227.6C 179.64 227.6 180 227.78 180 228C 180 228.22 180.54 228.4 181.2 228.4C 181.86 228.4 182.4 228.58 182.4 228.8C 182.4 229.02 182.839 229.2 183.376 229.2C 183.913 229.2 184.464 229.38 184.6 229.6C 184.736 229.82 185.377 230 186.024 230C 186.671 230 187.2 230.18 187.2 230.4C 187.2 230.62 188.1 230.8 189.2 230.8C 190.3 230.8 191.2 230.98 191.2 231.2C 191.2 231.42 191.65 231.6 192.2 231.6L192.2 231.6L193.2 231.6L193.2 259.4L193.2 287.2L192.2 287.2C 191.65 287.2 191.2 287.38 191.2 287.6C 191.2 287.82 190.3 288 189.2 288C 188.1 288 187.2 288.18 187.2 288.4C 187.2 288.62 186.671 288.8 186.024 288.8C 185.377 288.8 184.736 288.98 184.6 289.2C 184.464 289.42 183.913 289.6 183.376 289.6C 182.839 289.6 182.4 289.78 182.4 290C 182.4 290.22 181.86 290.4 181.2 290.4C 180.54 290.4 180 290.58 180 290.8C 180 291.02 179.655 291.2 179.233 291.2C 178.812 291.2 178.403 291.39 178.326 291.623C 178.128 292.215 176.8 291.636 176.8 290.957C 176.8 290.651 176.62 290.4 176.4 290.4C 176.18 290.4 176 290.04 176 289.6C 176 289.16 175.854 288.8 175.675 288.8C 175.496 288.8 174.962 287.945 174.487 286.9C 173.651 285.057 172.407 282.807 172 282.4C 171.89 282.29 171.575 281.795 171.3 281.3C 171.025 280.805 170.575 279.995 170.3 279.5C 170.025 279.005 169.71 278.51 169.599 278.4C 169.489 278.29 169.13 277.66 168.802 277C 168.474 276.34 167.889 275.509 167.503 275.153C 167.116 274.797 166.8 274.212 166.8 273.853C 166.8 273.494 166.62 273.2 166.4 273.2C 166.18 273.2 166 272.88 166 272.488C 166 272.097 165.64 271.517 165.2 271.2C 164.76 270.883 164.4 270.303 164.4 269.912C 164.4 269.52 164.22 269.2 164 269.2C 163.78 269.2 163.6 268.88 163.6 268.488C 163.6 268.097 163.24 267.517 162.8 267.2C 162.36 266.883 162 266.303 162 265.912C 162 265.52 161.82 265.2 161.6 265.2C 161.38 265.2 161.2 264.922 161.2 264.583C 161.2 264.244 160.84 263.58 160.4 263.108C 159.96 262.636 159.6 262.013 159.6 261.725C 159.6 261.436 159.457 261.2 159.282 261.2C 159.107 261.2 158.63 260.39 158.222 259.4C 157.813 258.41 157.372 257.597 157.24 257.594C 157.108 257.59 156.56 256.69 156.021 255.594C 155.483 254.497 154.898 253.6 154.721 253.6C 154.545 253.6 154.4 253.24 154.4 252.8C 154.4 252.36 154.22 252 154 252C 153.78 252 153.6 251.764 153.6 251.475C 153.6 251.187 153.24 250.564 152.8 250.092C 152.36 249.62 152 248.956 152 248.617C 152 248.278 151.82 248 151.6 248C 151.38 248 151.2 247.764 151.2 247.475C 151.2 247.187 150.84 246.564 150.4 246.092C 149.96 245.62 149.6 244.956 149.6 244.617C 149.6 244.278 149.42 244 149.2 244C 148.98 244 148.8 243.77 148.8 243.488C 148.8 243.207 148.44 242.717 148 242.4C 147.56 242.083 147.2 241.503 147.2 241.112C 147.2 240.72 147.02 240.4 146.8 240.4C 146.58 240.4 146.4 240.08 146.4 239.688C 146.4 239.297 146.04 238.717 145.6 238.4C 145.16 238.083 144.8 237.503 144.8 237.112C 144.8 236.72 144.62 236.4 144.4 236.4C 144.18 236.4 144 236.122 144 235.783C 144 235.444 143.64 234.78 143.2 234.308C 142.76 233.836 142.4 233.213 142.4 232.925C 142.4 232.636 142.22 232.4 142 232.4C 141.78 232.4 141.6 232.126 141.6 231.792C 141.6 231.458 141.191 230.513 140.691 229.692C 140.191 228.871 139.532 227.708 139.227 227.107C 138.922 226.505 138.341 225.658 137.936 225.223C 137.531 224.789 137.2 224.156 137.2 223.817C 137.2 223.478 137.02 223.2 136.8 223.2C 136.58 223.2 136.4 222.964 136.4 222.675C 136.4 222.387 136.04 221.764 135.6 221.292C 135.16 220.82 134.8 220.156 134.8 219.817C 134.8 219.478 134.62 219.2 134.4 219.2C 134.18 219.2 134 218.88 134 218.488C 134 218.097 133.64 217.517 133.2 217.2C 132.76 216.883 132.4 216.303 132.4 215.912C 132.4 215.52 132.22 215.2 132 215.2C 131.78 215.2 131.6 214.88 131.6 214.488C 131.6 214.097 131.24 213.517 130.8 213.2C 130.36 212.883 130 212.303 130 211.912C 130 211.52 129.82 211.2 129.6 211.2C 129.38 211.2 129.2 210.93 129.2 210.6C 129.2 210.27 129.02 210 128.8 210C 128.58 210 128.4 209.73 128.4 209.4C 128.4 209.07 128.22 208.8 128 208.8C 127.78 208.8 127.6 208.53 127.6 208.2C 127.6 207.87 127.42 207.6 127.2 207.6C 126.98 207.6 126.8 207.24 126.8 206.8C 126.8 206.36 126.665 205.999 126.5 205.997C 126.335 205.995 126.012 205.59 125.782 205.097C 125.135 203.707 123.03 199.824 122.803 199.6C 121.856 198.667 121.253 196.4 121.951 196.4C 122.145 196.4 122.527 195.86 122.8 195.2C 123.073 194.54 123.41 193.998 123.549 193.995C 123.687 193.993 124.157 193.228 124.593 192.295C 125.028 191.363 125.703 190.309 126.093 189.953C 126.482 189.597 126.8 189.052 126.8 188.741C 126.8 188.431 127.16 187.917 127.6 187.6C 128.04 187.283 128.4 186.743 128.4 186.4C 128.4 186.057 128.76 185.517 129.2 185.2C 129.64 184.883 130 184.343 130 184C 130 183.657 130.36 183.117 130.8 182.8C 131.24 182.483 131.6 181.903 131.6 181.512C 131.6 181.12 131.758 180.8 131.951 180.8C 132.145 180.8 132.527 180.26 132.8 179.6C 133.073 178.94 133.455 178.4 133.649 178.4C 133.842 178.4 134 178.164 134 177.875C 134 177.587 134.315 177.002 134.7 176.575C 135.085 176.149 135.655 175.305 135.968 174.7C 136.28 174.095 136.685 173.6 136.868 173.6C 137.05 173.6 137.2 173.412 137.2 173.183C 137.2 172.954 137.56 172.38 138 171.908C 138.44 171.436 138.8 170.813 138.8 170.525C 138.8 170.236 138.935 169.999 139.1 169.999C 139.265 169.998 139.94 168.963 140.6 167.699C 141.26 166.434 141.89 165.31 142.001 165.2C 142.111 165.09 142.456 164.505 142.768 163.9C 143.08 163.295 143.485 162.8 143.668 162.8C 143.85 162.8 144 162.44 144 162C 144 161.56 144.18 161.2 144.4 161.2C 144.62 161.2 144.8 161.38 144.8 161.6M343.269 162.832C 374.438 169.151 385.813 204.873 363.645 226.819C 345.06 245.218 313.555 238.98 303.006 214.812C 298.565 204.638 299.086 191.982 304.339 182.4C 312.014 168.402 328.894 159.917 343.269 162.832M250.8 195.2C 250.8 195.431 252.067 195.6 253.8 195.6C 255.533 195.6 256.8 195.769 256.8 196C 256.8 196.225 257.925 196.4 259.376 196.4C 260.793 196.4 262.064 196.58 262.2 196.8C 262.336 197.02 263.596 197.2 265 197.2C 266.404 197.2 267.664 197.38 267.8 197.6C 267.936 197.82 269.387 198 271.024 198C 272.741 198 274 198.169 274 198.4C 274 198.626 275.133 198.8 276.6 198.8C 278.067 198.8 279.2 198.974 279.2 199.2C 279.2 199.429 280.4 199.6 282 199.6C 283.6 199.6 284.8 199.771 284.8 200C 284.8 200.22 285.34 200.4 286 200.4L286 200.4L287.2 200.4L287.2 204.776C 287.2 207.263 287.373 209.26 287.6 209.4C 287.82 209.536 288 210.357 288 211.224C 288 212.091 288.18 212.8 288.4 212.8C 288.62 212.8 288.8 213.329 288.8 213.976C 288.8 214.623 288.98 215.264 289.2 215.4C 289.42 215.536 289.6 216.177 289.6 216.824C 289.6 217.471 289.78 218 290 218C 290.22 218 290.4 218.45 290.4 219C 290.4 219.55 290.58 220 290.8 220C 291.02 220 291.2 220.349 291.2 220.776C 291.2 221.203 291.366 221.655 291.569 221.781C 291.772 221.906 292.057 222.547 292.201 223.205C 292.345 223.862 292.629 224.4 292.832 224.4C 293.034 224.4 293.2 224.76 293.2 225.2C 293.2 225.64 293.368 226 293.573 226C 293.778 226 294.053 226.338 294.184 226.751C 294.316 227.164 294.867 228.019 295.411 228.651C 295.954 229.283 296.399 230.01 296.4 230.267C 296.4 230.523 296.623 230.808 296.895 230.898C 297.204 231.001 296.716 231.875 295.595 233.229C 292.439 237.037 291.783 237.72 283.899 245.422C 282.084 247.194 279.928 249.444 279.107 250.422C 275.105 255.189 275.673 254.593 267.496 262.621C 263.716 266.332 261.848 268.37 259.501 271.341C 259.006 271.969 257.816 273.229 256.859 274.141C 249.805 280.859 244.919 285.965 242.4 289.251C 241.85 289.969 240.99 290.926 240.489 291.378C 239.988 291.83 238.046 293.696 236.172 295.523L236.172 295.523L232.765 298.847L231.622 297.623C 230.993 296.951 230.315 296.4 230.115 296.4C 229.915 296.4 229.402 296.076 228.975 295.68C 228.549 295.284 227.39 294.519 226.4 293.98C 225.41 293.441 224.542 292.871 224.471 292.713C 224.4 292.555 223.725 292.31 222.971 292.168C 222.217 292.027 221.6 291.751 221.6 291.555C 221.6 291.36 221.24 291.2 220.8 291.2C 220.36 291.2 220 291.02 220 290.8C 220 290.58 219.561 290.4 219.024 290.4C 218.487 290.4 217.936 290.22 217.8 290C 217.664 289.78 217.023 289.6 216.376 289.6C 215.729 289.6 215.2 289.42 215.2 289.2C 215.2 288.98 214.66 288.8 214 288.8C 213.34 288.8 212.8 288.62 212.8 288.4C 212.8 288.18 211.9 288 210.8 288C 209.7 288 208.8 287.82 208.8 287.6C 208.8 287.38 208.35 287.2 207.8 287.2L207.8 287.2L206.8 287.2L206.8 259.4L206.8 231.6L207.8 231.6C 208.35 231.6 208.8 231.42 208.8 231.2C 208.8 230.98 209.7 230.8 210.8 230.8C 211.9 230.8 212.8 230.62 212.8 230.4C 212.8 230.18 213.34 230 214 230C 214.66 230 215.2 229.82 215.2 229.6C 215.2 229.38 215.74 229.2 216.4 229.2C 217.06 229.2 217.6 229.02 217.6 228.8C 217.6 228.58 218.14 228.4 218.8 228.4C 219.46 228.4 220 228.22 220 228C 220 227.78 220.36 227.6 220.8 227.6C 221.24 227.6 221.6 227.42 221.6 227.2C 221.6 226.98 221.945 226.8 222.367 226.8C 222.788 226.8 223.193 226.665 223.267 226.5C 223.34 226.335 224.48 225.668 225.8 225.017C 227.12 224.367 228.491 223.512 228.847 223.117C 229.203 222.723 229.704 222.4 229.96 222.4C 230.217 222.4 231.042 221.815 231.794 221.1C 232.546 220.385 233.863 219.26 234.72 218.6C 235.577 217.94 236.889 216.59 237.634 215.6C 238.38 214.61 239.281 213.53 239.636 213.2C 239.991 212.87 240.605 211.97 241 211.2C 241.395 210.43 242.052 209.509 242.459 209.153C 242.867 208.797 243.2 208.212 243.2 207.853C 243.2 207.494 243.38 207.2 243.6 207.2C 243.82 207.2 244 206.93 244 206.6C 244 206.27 244.18 206 244.4 206C 244.62 206 244.8 205.64 244.8 205.2C 244.8 204.76 244.98 204.4 245.2 204.4C 245.42 204.4 245.6 204.04 245.6 203.6C 245.6 203.16 245.78 202.8 246 202.8C 246.22 202.8 246.4 202.44 246.4 202C 246.4 201.56 246.58 201.2 246.8 201.2C 247.02 201.2 247.2 200.66 247.2 200C 247.2 199.34 247.38 198.8 247.6 198.8C 247.82 198.8 248 198.26 248 197.6C 248 196.94 248.18 196.4 248.4 196.4C 248.62 196.4 248.8 196.04 248.8 195.6C 248.8 195.013 249.067 194.8 249.8 194.8C 250.35 194.8 250.8 194.98 250.8 195.2M112.929 211.7C 113.188 211.975 113.655 212.695 113.968 213.3C 114.28 213.905 114.685 214.4 114.868 214.4C 115.05 214.4 115.2 214.76 115.2 215.2C 115.2 215.64 115.38 216 115.6 216C 115.82 216 116 216.236 116 216.525C 116 216.813 116.36 217.436 116.8 217.908C 117.24 218.38 117.6 219.044 117.6 219.383C 117.6 219.722 117.78 220 118 220C 118.22 220 118.4 220.236 118.4 220.525C 118.4 220.813 118.76 221.436 119.2 221.908C 119.64 222.38 120 223.044 120 223.383C 120 223.722 120.18 224 120.4 224C 120.62 224 120.8 224.188 120.8 224.417C 120.8 224.646 121.16 225.22 121.6 225.692C 122.04 226.164 122.4 226.787 122.4 227.075C 122.4 227.364 122.58 227.6 122.8 227.6C 123.02 227.6 123.2 227.96 123.2 228.4C 123.2 228.84 123.335 229.201 123.5 229.203C 123.665 229.205 123.988 229.61 124.218 230.103C 124.865 231.493 126.97 235.376 127.197 235.6C 127.591 235.988 128.852 238.209 129.071 238.9C 129.193 239.285 129.452 239.6 129.647 239.6C 129.841 239.6 130 239.87 130 240.2C 130 240.53 130.18 240.8 130.4 240.8C 130.62 240.8 130.8 241.12 130.8 241.512C 130.8 241.903 131.16 242.483 131.6 242.8C 132.04 243.117 132.4 243.697 132.4 244.088C 132.4 244.48 132.58 244.8 132.8 244.8C 133.02 244.8 133.2 245.12 133.2 245.512C 133.2 245.903 133.56 246.483 134 246.8C 134.44 247.117 134.8 247.697 134.8 248.088C 134.8 248.48 134.98 248.8 135.2 248.8C 135.42 248.8 135.6 249.078 135.6 249.417C 135.6 249.756 135.96 250.42 136.4 250.892C 136.84 251.364 137.2 251.987 137.2 252.275C 137.2 252.564 137.38 252.8 137.6 252.8C 137.82 252.8 138 253.078 138 253.417C 138 253.756 138.36 254.42 138.8 254.892C 139.24 255.364 139.6 255.987 139.6 256.275C 139.6 256.564 139.78 256.8 140 256.8C 140.22 256.8 140.4 257.055 140.4 257.367C 140.4 257.678 140.539 257.993 140.708 258.067C 140.878 258.14 141.729 259.595 142.6 261.3C 143.471 263.005 144.322 264.4 144.492 264.4C 144.661 264.4 144.8 264.76 144.8 265.2C 144.8 265.64 144.98 266 145.2 266C 145.42 266 145.6 266.236 145.6 266.525C 145.6 266.813 145.96 267.436 146.4 267.908C 146.84 268.38 147.2 269.044 147.2 269.383C 147.2 269.722 147.38 270 147.6 270C 147.82 270 148 270.236 148 270.525C 148 270.813 148.315 271.398 148.7 271.825C 149.085 272.251 149.669 273.14 149.997 273.8C 150.326 274.46 150.911 275.291 151.297 275.647C 151.684 276.003 152 276.588 152 276.947C 152 277.306 152.18 277.6 152.4 277.6C 152.62 277.6 152.8 277.878 152.8 278.217C 152.8 278.556 153.16 279.22 153.6 279.692C 154.04 280.164 154.4 280.787 154.4 281.075C 154.4 281.364 154.58 281.6 154.8 281.6C 155.02 281.6 155.2 281.96 155.2 282.4C 155.2 282.84 155.38 283.2 155.6 283.2C 155.82 283.2 156 283.47 156 283.8C 156 284.13 156.18 284.4 156.4 284.4C 156.62 284.4 156.8 284.67 156.8 285C 156.8 285.33 156.98 285.6 157.2 285.6C 157.42 285.6 157.6 285.96 157.6 286.4C 157.6 286.84 157.735 287.202 157.9 287.204C 158.065 287.206 158.555 288.016 158.99 289.004C 159.424 289.992 159.897 290.8 160.041 290.8C 160.185 290.8 160.527 291.34 160.8 292C 161.073 292.66 161.455 293.2 161.649 293.2C 161.842 293.2 162 293.56 162 294C 162 294.44 162.18 294.8 162.4 294.8C 162.62 294.8 162.8 295.036 162.8 295.325C 162.8 295.613 163.16 296.236 163.6 296.708C 164.04 297.18 164.4 297.844 164.4 298.183C 164.4 298.522 164.58 298.8 164.8 298.8C 165.612 298.8 165.166 300.358 164.094 301.264C 163.486 301.779 162.55 302.83 162.013 303.6C 161.477 304.37 160.741 305.27 160.378 305.6C 160.015 305.93 159.437 306.74 159.093 307.4C 158.749 308.06 158.093 308.997 157.634 309.483C 157.175 309.969 156.8 310.554 156.8 310.783C 156.8 311.012 156.62 311.2 156.4 311.2C 156.18 311.2 156 311.56 156 312C 156 312.622 155.733 312.8 154.8 312.8C 154.14 312.8 153.6 312.62 153.6 312.4C 153.6 312.18 153.24 312 152.8 312C 152.36 312 152 311.82 152 311.6C 152 311.38 151.64 311.2 151.2 311.2C 150.76 311.2 150.4 311.02 150.4 310.8C 150.4 310.58 150.04 310.4 149.6 310.4C 149.16 310.4 148.8 310.22 148.8 310C 148.8 309.78 148.551 309.6 148.246 309.6C 147.941 309.6 147.176 309.331 146.546 309.002C 145.916 308.674 145.085 308.404 144.7 308.402C 144.315 308.401 144 308.22 144 308C 144 307.78 143.64 307.6 143.2 307.6C 142.76 307.6 142.4 307.454 142.4 307.275C 142.4 307.096 141.77 306.702 141 306.4C 140.23 306.098 139.6 305.704 139.6 305.525C 139.6 305.346 139.24 305.2 138.8 305.2C 138.36 305.2 138 305.02 138 304.8C 138 304.58 137.64 304.4 137.2 304.4C 136.76 304.4 136.4 304.22 136.4 304C 136.4 303.78 136.04 303.6 135.6 303.6C 135.16 303.6 134.8 303.42 134.8 303.2C 134.8 302.98 134.44 302.8 134 302.8C 133.56 302.8 133.2 302.62 133.2 302.4C 133.2 302.18 132.84 302 132.4 302C 131.96 302 131.6 301.82 131.6 301.6C 131.6 301.38 131.24 301.2 130.8 301.2C 130.36 301.2 130 301.02 130 300.8C 130 300.58 129.64 300.4 129.2 300.4C 128.76 300.4 128.4 300.22 128.4 300C 128.4 299.78 128.04 299.6 127.6 299.6C 127.16 299.6 126.8 299.42 126.8 299.2C 126.8 298.98 126.44 298.8 126 298.8C 125.56 298.8 125.2 298.654 125.2 298.475C 125.2 298.296 124.57 297.902 123.8 297.6C 123.03 297.298 122.4 296.904 122.4 296.725C 122.4 296.546 122.04 296.4 121.6 296.4C 121.16 296.4 120.8 296.22 120.8 296C 120.8 295.78 120.44 295.6 120 295.6C 119.56 295.6 119.2 295.42 119.2 295.2C 119.2 294.98 118.84 294.8 118.4 294.8C 117.96 294.8 117.6 294.62 117.6 294.4C 117.6 294.18 117.24 294 116.8 294C 116.36 294 116 293.82 116 293.6C 116 293.38 115.728 293.2 115.395 293.2C 115.062 293.2 114.477 293.029 114.095 292.819C 113.713 292.61 112.725 292.14 111.9 291.774C 110.497 291.152 109.895 290.4 110.8 290.4C 111.02 290.4 111.2 289.871 111.2 289.224C 111.2 288.577 111.38 287.936 111.6 287.8C 111.82 287.664 112 286.753 112 285.776C 112 284.799 112.18 284 112.4 284C 112.655 284 112.8 280.741 112.8 275.024C 112.8 269.471 112.647 265.953 112.4 265.8C 112.18 265.664 112 264.753 112 263.776C 112 262.799 111.82 262 111.6 262C 111.38 262 111.2 261.37 111.2 260.6C 111.2 259.83 111.02 259.2 110.8 259.2C 110.58 259.2 110.4 258.761 110.4 258.224C 110.4 257.687 110.22 257.136 110 257C 109.78 256.864 109.6 256.403 109.6 255.976C 109.6 255.549 109.42 255.2 109.2 255.2C 108.98 255.2 108.8 254.928 108.8 254.595C 108.8 254.262 108.637 253.677 108.437 253.295C 108.237 252.913 107.407 251.25 106.593 249.6C 105.778 247.95 104.988 246.51 104.837 246.4C 104.685 246.29 104.129 245.57 103.6 244.8C 103.071 244.03 102.314 243.109 101.919 242.753C 101.524 242.397 101.2 241.982 101.2 241.831C 101.2 241.68 100.12 240.496 98.8 239.2C 97.48 237.904 96.4 236.652 96.4 236.417C 96.4 236.003 97.193 234.406 97.601 234C 97.711 233.89 98.056 233.305 98.368 232.7C 98.68 232.095 99.085 231.6 99.268 231.6C 99.45 231.6 99.6 231.28 99.6 230.888C 99.6 230.497 99.96 229.917 100.4 229.6C 100.84 229.283 101.2 228.743 101.2 228.4C 101.2 228.057 101.56 227.517 102 227.2C 102.44 226.883 102.8 226.343 102.8 226C 102.8 225.657 103.16 225.117 103.6 224.8C 104.04 224.483 104.4 224.073 104.4 223.89C 104.4 223.706 105.093 222.531 105.94 221.278C 106.787 220.025 107.797 218.325 108.185 217.5C 108.574 216.675 109.051 216 109.246 216C 109.441 216 109.6 215.68 109.6 215.288C 109.6 214.897 109.96 214.317 110.4 214C 110.84 213.683 111.2 213.186 111.2 212.895C 111.2 211.732 112.265 210.996 112.929 211.7M71.449 238.6C 99.73 245.761 109.632 280.661 89.221 301.243C 68.767 321.869 33.446 312.486 26.154 284.489C 19.032 257.146 44.158 231.691 71.449 238.6M206.4 300.579C 220.005 303.206 230.055 311.6 235.248 324.676C 238.669 333.291 237.923 346.559 233.586 354.214C 233.154 354.976 232.424 356.263 231.965 357.074C 231.027 358.731 226.872 363.881 225.732 364.8C 225.323 365.13 224.09 366.134 222.994 367.031C 206.27 380.711 178.483 375.69 168.042 357.1C 167.579 356.275 166.846 354.976 166.414 354.214C 160.433 343.656 161.439 327.988 168.814 316.836C 176.993 304.469 192.286 297.854 206.4 300.579" stroke="none" fill="#1C1C1C" fill-rule="nonzero" />
        <path d="M194 25.454C 180.079 28.116 168.121 38.373 164.449 50.8C 164.156 51.79 163.777 52.965 163.607 53.412C 161.813 58.117 162.408 69.23 164.786 75.4C 173.608 98.297 200.636 107.041 220.834 93.534C 240.424 80.433 243.106 52.596 226.374 36.029C 218.141 27.878 204.547 23.437 194 25.454" stroke="none" fill="#8360F4" fill-rule="nonzero" />
        <path d="M195.6 300.627C 177.878 303.714 166.388 314.8 163.399 331.694C 160.975 345.402 167.317 360.154 179 367.977C 182.013 369.994 186.772 372.4 187.751 372.4C 188.082 372.4 188.452 372.56 188.573 372.756C 188.694 372.951 189.379 373.214 190.096 373.34C 190.813 373.465 192.66 373.79 194.2 374.062C 199.727 375.037 208.148 374.396 211.295 372.761C 211.677 372.562 212.167 372.4 212.385 372.4C 214.369 372.4 222.594 367.292 225.962 363.968C 246.766 343.432 236.99 308.581 208.4 301.355C 206.192 300.797 197.472 300.301 195.6 300.627" stroke="none" fill="#71D2DF" fill-rule="nonzero" />
	</g>
</g>
</svg>